<svg xmlns="http://www.w3.org/2000/svg" version="1.1" xmlns:xlink="http://www.w3.org/1999/xlink" xmlns:svgjs="http://svgjs.dev/svgjs" width="1000" height="1000" viewBox="0 0 1000 1000"><rect width="1000" height="1000" fill="#ffffff"></rect><g transform="matrix(0.7,0,0,0.7,150,281.25)"><svg viewBox="0 0 512 320" data-background-color="#ffffff" preserveAspectRatio="xMidYMid meet" height="625" width="1000" xmlns="http://www.w3.org/2000/svg" xmlns:xlink="http://www.w3.org/1999/xlink"><g id="tight-bounds" transform="matrix(1,0,0,1,0,0)"><svg viewBox="0 0 512 320" height="320" width="512"><g><svg></svg></g><g><svg viewBox="0 0 512 320" height="320" width="512"><g><path xmlns="http://www.w3.org/2000/svg" d="M96 160c0-88.366 71.634-160 160-160 88.366 0 160 71.634 160 160 0 88.366-71.634 160-160 160-88.366 0-160-71.634-160-160z" fill="#000000" fill-rule="nonzero" stroke="none" stroke-width="1" stroke-linecap="butt" stroke-linejoin="miter" stroke-miterlimit="10" stroke-dasharray="" stroke-dashoffset="0" font-family="none" font-weight="none" font-size="none" text-anchor="none" style="mix-blend-mode: normal" data-fill-palette-color="tertiary"></path></g><g transform="matrix(1,0,0,1,153.6,98.87338282679748)"><svg viewBox="0 0 204.8 122.25323434640504" height="122.25323434640504" width="204.8"><g><svg viewBox="0 0 204.8 122.25323434640504" height="122.25323434640504" width="204.8"><g><svg viewBox="0 0 204.8 122.25323434640504" height="122.25323434640504" width="204.8"><g transform="matrix(1,0,0,1,0,73.87798823146612)"><svg viewBox="0 0 204.8 48.375246114938925" height="48.375246114938925" width="204.8"><g id="textblocktransform"><svg viewBox="0 0 204.8 48.375246114938925" height="48.375246114938925" width="204.8" id="textblock"><g><svg viewBox="0 0 204.8 29.75058074781225" height="29.75058074781225" width="204.8"><g transform="matrix(1,0,0,1,0,0)"><svg width="204.8" viewBox="1.2699999809265137 -33.939998626708984 306.8500061035156 44.57999801635742" height="29.75058074781225" data-palette-color="#ffffff"><path d="M8.59-32.18L8.59-32.18Q11.77-32.18 16.8-32.3 21.83-32.42 24.37-32.42L24.37-32.42Q24.41-31.93 25.78-25.2L25.78-25.2Q25.54-24.95 24.66-24.95L24.66-24.95Q24.12-24.95 23.97-25.29L23.97-25.29Q23.05-27.15 21.04-28.47 19.04-29.79 17.14-29.79L17.14-29.79 15.28-29.79Q12.21-29.79 12.11-29.15L12.11-29.15Q11.87-27.98 11.87-25.34L11.87-25.34 11.87-17.82Q11.87-17.53 13.96-17.53L13.96-17.53 16.55-17.53Q19.58-17.53 19.87-17.72L19.87-17.72Q20.12-17.92 20.26-19.14L20.26-19.14Q20.36-19.87 20.56-20.56L20.56-20.56Q20.61-20.9 21.29-20.9L21.29-20.9Q22.12-20.9 22.36-20.65L22.36-20.65 22.36-11.43Q22.17-11.23 21.34-11.23L21.34-11.23Q20.7-11.23 20.56-11.62L20.56-11.62Q20.36-12.3 20.21-12.79 20.07-13.28 19.97-13.53 19.87-13.77 19.75-13.96 19.63-14.16 19.58-14.21 19.53-14.26 19.38-14.33 19.24-14.4 19.19-14.45L19.19-14.45Q18.55-14.84 15.38-14.84L15.38-14.84Q11.87-14.84 11.87-14.4L11.87-14.4 11.87-6.88Q11.87-4.39 12.21-2.88L12.21-2.88Q12.35-2.29 13.82-1.95 15.28-1.61 16.02-1.61L16.02-1.61Q16.21-1.61 16.21-0.68L16.21-0.68Q16.21-0.1 16.11 0.2L16.11 0.2Q10.25-0.1 8.64-0.1L8.64-0.1 1.51 0.2Q1.32 0 1.32-0.63L1.32-0.63Q1.32-1.61 1.51-1.61L1.51-1.61Q2.1-1.61 3.34-1.95 4.59-2.29 4.74-2.69L4.74-2.69Q5.03-3.81 5.03-6.98L5.03-6.98 5.03-25.44Q5.03-28.13 4.74-29.25L4.74-29.25Q4.59-29.64 3.3-30.13 2-30.62 1.46-30.62L1.46-30.62Q1.27-30.62 1.27-31.49L1.27-31.49Q1.27-32.28 1.42-32.42L1.42-32.42Q5.81-32.18 8.59-32.18ZM32.18-27.51Q31.1-28.56 31.1-30.08 31.1-31.59 32.18-32.64 33.25-33.69 34.74-33.69 36.23-33.69 37.28-32.64 38.33-31.59 38.33-30.08 38.33-28.56 37.28-27.51 36.23-26.46 34.74-26.46 33.25-26.46 32.18-27.51ZM38.33-15.92L38.33-7.28Q38.33-4.15 38.67-2.83L38.67-2.83Q38.77-2.49 40.06-2.05 41.35-1.61 41.75-1.61L41.75-1.61Q41.94-1.61 41.94-0.81 41.94 0 41.84 0.2L41.84 0.2Q41.35 0.15 38.82-0.02 36.28-0.2 35.15-0.2L35.15-0.2Q33.98-0.2 31.52-0.02 29.05 0.15 28.46 0.2L28.46 0.2Q28.32 0 28.32-0.81 28.32-1.61 28.46-1.61L28.46-1.61Q29.05-1.61 30.3-2.05 31.54-2.49 31.64-2.83L31.64-2.83Q31.98-4.3 31.98-6.54L31.98-6.54 31.98-13.23Q31.98-15.97 31.1-16.89L31.1-16.89Q30.76-17.29 30.1-17.53 29.44-17.77 28.93-17.87 28.42-17.97 28.42-18.02L28.42-18.02Q28.42-19.73 28.66-19.73L28.66-19.73Q29.64-19.73 32.93-20.39 36.23-21.04 37.6-21.48L37.6-21.48Q37.64-21.48 37.89-21.56 38.13-21.63 38.13-21.63L38.13-21.63Q38.43-21.63 38.64-21.31 38.86-21 38.86-20.8L38.86-20.8Q38.82-20.41 38.67-19.34 38.52-18.26 38.43-17.46 38.33-16.65 38.33-15.92L38.33-15.92ZM61.81-21.78L61.81-21.78Q64.64-21.78 66.43-19.38 68.21-16.99 68.21-12.11L68.21-12.11 68.21-7.28Q68.21-4.15 68.55-2.83L68.55-2.83Q68.65-2.49 69.92-2.05 71.19-1.61 71.63-1.61L71.63-1.61Q71.77-1.61 71.8-0.81 71.82 0 71.72 0.2L71.72 0.2Q71.19 0.15 68.67-0.02 66.16-0.2 65.03-0.2L65.03-0.2Q63.86-0.2 61.49-0.02 59.13 0.15 58.54 0.2L58.54 0.2Q58.34 0 58.34-0.81 58.34-1.61 58.54-1.61L58.54-1.61Q59.08-1.61 60.25-2.05 61.42-2.49 61.52-2.83L61.52-2.83Q61.86-4.3 61.86-6.54L61.86-6.54 61.86-10.94Q61.86-14.55 60.86-16.09 59.86-17.63 57.66-17.63L57.66-17.63Q56.15-17.63 55.22-17.07 54.29-16.5 54.29-15.48L54.29-15.48 54.29-7.28Q54.29-4.15 54.63-2.83L54.63-2.83Q54.73-2.49 55.93-2.05 57.12-1.61 57.51-1.61L57.51-1.61Q57.66-1.61 57.69-0.81 57.71 0 57.61 0.2L57.61 0.2Q57.03 0.15 54.63-0.02 52.24-0.2 51.12-0.2L51.12-0.2Q49.95-0.2 47.46-0.02 44.97 0.15 44.43 0.2L44.43 0.2Q44.23 0 44.23-0.81 44.23-1.61 44.43-1.61L44.43-1.61Q44.97-1.61 46.24-2.05 47.5-2.49 47.6-2.83L47.6-2.83Q47.94-4.3 47.94-6.54L47.94-6.54 47.94-13.23Q47.94-15.97 47.07-16.89L47.07-16.89Q46.72-17.29 46.04-17.53 45.36-17.77 44.87-17.87 44.38-17.97 44.38-18.02L44.38-18.02Q44.38-19.73 44.62-19.73L44.62-19.73Q45.21-19.73 46.58-20 47.94-20.26 50.14-20.75 52.34-21.24 53.56-21.48L53.56-21.48Q53.66-21.48 53.78-21.53 53.9-21.58 54-21.58L54-21.58 54.1-21.63Q54.34-21.63 54.58-21.31 54.83-21 54.83-20.8L54.83-20.8Q54.63-19.43 54.63-19.29L54.63-19.29Q54.63-19.04 54.68-18.99L54.68-18.99Q54.78-18.99 55.02-19.24L55.02-19.24Q57.76-21.78 61.81-21.78ZM89.74 3.96L89.74 3.96Q89.74 1.76 81.54 1.76L81.54 1.76Q81.39 1.81 81.34 1.81L81.34 1.81Q79.73 2.34 79.39 2.88L79.39 2.88Q79.05 3.32 79.05 4.2L79.05 4.2Q79.05 5.66 80.58 6.67 82.12 7.67 84.03 7.67L84.03 7.67Q86.56 7.67 88.15 6.74 89.74 5.81 89.74 3.96ZM81.34-14.36L81.34-14.36Q81.34-13.09 81.44-12.18 81.54-11.28 81.78-10.33 82.02-9.38 82.61-8.89 83.2-8.4 84.12-8.4 85.05-8.4 85.61-8.76 86.17-9.13 86.39-9.91 86.61-10.69 86.69-11.35 86.76-12.01 86.76-13.09L86.76-13.09Q86.76-16.21 86.17-17.77 85.59-19.34 83.83-19.34L83.83-19.34Q82.95-19.34 82.39-18.9 81.83-18.46 81.63-17.58 81.44-16.7 81.39-16.14 81.34-15.58 81.34-14.6L81.34-14.6Q81.34-14.45 81.34-14.36ZM84.17-21.92L84.17-21.92Q85.93-21.92 88.3-21.29 90.67-20.65 92.08-20.65L92.08-20.65 94.77-20.65Q94.91-20.61 95.31-19.78 95.7-18.95 95.7-18.6L95.7-18.6Q95.7-17.92 95.4-17.92L95.4-17.92 92.52-17.92Q92.33-17.87 92.33-17.77L92.33-17.77Q92.33-17.72 92.69-16.43 93.06-15.14 93.06-14.01L93.06-14.01Q93.06-10.94 90.57-8.4 88.08-5.86 84.32-5.86L84.32-5.86Q82.37-5.86 81-6.1L81-6.1Q80.41-5.91 80.12-5.44 79.83-4.98 79.83-4.64 79.83-4.3 80.31-4.08 80.8-3.86 81.8-3.74 82.81-3.61 83.56-3.54 84.32-3.47 85.73-3.42 87.15-3.37 87.54-3.37L87.54-3.37Q95.35-2.98 95.4 1.76L95.4 1.76Q95.45 5.32 91.55 7.98 87.64 10.64 83.2 10.64L83.2 10.64Q79.48 10.64 76.95 9.18 74.41 7.71 74.41 5.27L74.41 5.27Q74.41 4.2 75.55 2.98 76.7 1.76 78.41 1.22L78.41 1.22Q77.14 0.68 76.12-0.51 75.09-1.71 75.09-3.13L75.09-3.13Q75.09-3.76 75.43-4.35 75.77-4.93 76.53-5.49 77.29-6.05 77.6-6.25 77.92-6.45 78.8-6.93L78.8-6.93Q77.39-7.71 76.21-9.69 75.04-11.67 75.04-13.77L75.04-13.77Q75.04-17.77 77.7-19.85 80.36-21.92 84.17-21.92ZM108.58-19.14L108.58-19.14Q106.68-19.14 105.8-17.31 104.92-15.48 104.92-13.72L104.92-13.72Q104.92-13.43 105.26-13.43L105.26-13.43 111.46-13.43Q112.15-13.43 112.15-14.36L112.15-14.36Q112.15-16.21 111.15-17.68 110.15-19.14 108.58-19.14ZM108.83-21.83L108.83-21.83Q113.22-21.83 115.88-18.77 118.54-15.72 118.54-12.55L118.54-12.55Q118.54-11.43 118.08-11.08 117.62-10.74 116.25-10.74L116.25-10.74 105.21-10.74Q104.92-10.74 104.92-10.4L104.92-10.4Q104.92-7.76 106.41-5.66 107.9-3.56 110.68-3.56L110.68-3.56Q112.29-3.56 113.76-4.03 115.22-4.49 115.81-4.86 116.4-5.22 117.37-5.96L117.37-5.96Q117.81-5.76 117.81-5.03L117.81-5.03Q117.81-4.44 117.62-4.05L117.62-4.05Q117.13-2.88 114.69-1.27 112.25 0.34 109.22 0.34L109.22 0.34Q104.73 0.34 101.48-2.93 98.23-6.2 98.23-10.79L98.23-10.79Q98.23-15.48 101.16-18.65 104.09-21.83 108.83-21.83ZM136.71-21.83L136.71-21.83Q138.85-21.83 140.91-20.02L140.91-20.02Q140.91-17.48 140.3-16.26 139.68-15.04 138.07-15.04L138.07-15.04Q137.1-15.04 135.83-16.16 134.56-17.29 133.58-17.29L133.58-17.29Q132.12-17.29 131.51-15.65 130.9-14.01 130.9-12.16L130.9-12.16 130.9-7.23Q130.9-4.15 131.24-2.83L131.24-2.83Q131.34-2.49 132.53-2.05 133.73-1.61 134.12-1.61L134.12-1.61Q134.26-1.61 134.29-0.81 134.31 0 134.22 0.2L134.22 0.2Q133.63 0.15 131.24-0.02 128.84-0.2 127.72-0.2L127.72-0.2Q126.55-0.2 124.06-0.02 121.57 0.15 121.03 0.2L121.03 0.2Q120.84 0 120.84-0.81 120.84-1.61 121.03-1.61L121.03-1.61Q121.57-1.61 122.84-2.05 124.11-2.49 124.21-2.83L124.21-2.83Q124.55-4.3 124.55-6.54L124.55-6.54 124.55-13.23Q124.55-15.97 123.67-16.89L123.67-16.89Q123.33-17.29 122.64-17.53 121.96-17.77 121.47-17.87 120.98-17.97 120.98-18.02L120.98-18.02Q120.98-19.73 121.23-19.73L121.23-19.73Q121.81-19.73 123.18-20 124.55-20.26 126.75-20.75 128.94-21.24 130.16-21.48L130.16-21.48Q130.65-21.63 130.7-21.63L130.7-21.63Q130.94-21.63 131.19-21.31 131.43-21 131.43-20.8L131.43-20.8Q131.34-20.21 131.29-19.53 131.24-18.85 131.19-18.65L131.19-18.65Q133.58-21.83 136.71-21.83ZM173.08-1.61L173.08-1.61Q174.15-1.61 175.28-2.08 176.4-2.54 176.4-3.32L176.4-3.32Q176.4-3.42 175.18-6.59L175.18-6.59 173.71-10.16Q173.52-10.35 173.37-10.35L173.37-10.35Q172.44-10.4 168.68-10.4L168.68-10.4Q165.46-10.4 163.75-10.35L163.75-10.35Q163.56-10.35 163.41-10.11L163.41-10.11Q163.41-10.11 161.8-6.4L161.8-6.4Q160.82-4.2 160.82-3.42 160.82-2.64 161.7-2.2 162.58-1.76 163.24-1.68 163.9-1.61 164.39-1.61L164.39-1.61Q164.53-1.56 164.53-0.83 164.53-0.1 164.44 0.2L164.44 0.2Q163.8 0.15 161.87-0.02 159.94-0.2 158.72-0.2 157.5-0.2 155.79-0.02 154.08 0.15 153.16 0.2L153.16 0.2Q152.96 0 152.96-0.54L152.96-0.54Q152.96-1.56 153.06-1.56L153.06-1.56Q153.64-1.56 155.01-2.08 156.38-2.59 156.72-3.13L156.72-3.13Q157.11-3.71 157.53-4.57 157.94-5.42 158.19-5.96L158.19-5.96 158.43-6.54 169.22-31.35Q169.76-32.62 171.03-32.62L171.03-32.62Q171.76-32.62 172.2-31.98L172.2-31.98 182.21-7.23Q183.14-4.98 183.82-3.22L183.82-3.22Q184.11-2.44 185.43-2.03 186.75-1.61 187.43-1.61L187.43-1.61Q187.63-1.61 187.63-0.78 187.63 0.05 187.53 0.2L187.53 0.2Q187.34 0.2 184.53 0 181.72-0.2 180.45-0.2L180.45-0.2Q180.11-0.2 173.08 0.2L173.08 0.2Q172.88 0 172.88-0.81 172.88-1.61 173.08-1.61ZM165.07-13.48L165.07-13.48Q166.54-13.33 168.68-13.33L168.68-13.33Q170.64-13.33 172.15-13.43L172.15-13.43 172.3-13.67 168.78-22.41 164.97-13.67Q164.97-13.48 165.07-13.48ZM203.2-21.83L203.2-21.83Q207.6-21.83 210.77-18.68 213.94-15.53 213.94-11.04L213.94-11.04Q213.94-6.15 210.6-2.88 207.26 0.39 202.47 0.39L202.47 0.39Q200.18 0.39 198.81-0.05 197.44-0.49 196.17-0.49L196.17-0.49Q195.68-0.49 194.66-0.02 193.63 0.44 193.49 0.44 193.34 0.44 192.63-0.02 191.92-0.49 191.92-0.73L191.92-0.73Q191.92-0.88 192.02-1.61 192.12-2.34 192.22-3.59 192.31-4.83 192.31-6.25L192.31-6.25 192.31-25.93Q192.31-27.98 192.02-29.44L192.02-29.44Q191.78-30.22 189.48-30.22L189.48-30.22 189.04-30.22Q188.75-30.22 188.75-31.2L188.75-31.2Q188.75-32.03 189.04-32.03L189.04-32.03Q190.56-32.18 192.09-32.42 193.63-32.67 194.71-32.91 195.78-33.15 196.64-33.4 197.49-33.64 197.98-33.79L197.98-33.79 198.47-33.94 198.56-33.94Q198.76-33.94 198.95-33.64 199.15-33.35 199.2-33.11L199.2-33.11Q198.66-30.91 198.66-28.17L198.66-28.17 198.66-21.04Q198.66-20.9 198.66-20.8 198.66-20.7 198.69-20.53 198.71-20.36 198.78-20.36 198.86-20.36 198.95-20.41L198.95-20.41Q200.71-21.83 203.2-21.83ZM202.67-18.85L202.67-18.85Q200.76-18.85 199.71-17.77 198.66-16.7 198.66-15.53L198.66-15.53 198.66-6.3Q198.66-4.35 199.78-3.3 200.91-2.25 202.62-2.25L202.62-2.25Q204.81-2.25 205.86-4.22 206.91-6.2 206.91-9.42L206.91-9.42Q206.91-18.85 202.67-18.85ZM225.42-3.17L225.42-3.17Q226.69-3.17 227.39-3.78 228.1-4.39 228.1-5.27L228.1-5.27 228.1-10.21Q228-10.16 227.15-9.89 226.3-9.62 226.05-9.52 225.81-9.42 225.12-9.16 224.44-8.89 224.17-8.67 223.9-8.45 223.51-8.11 223.12-7.76 222.98-7.37 222.83-6.98 222.83-6.49L222.83-6.49Q222.83-4.74 223.59-3.96 224.34-3.17 225.42-3.17ZM227.37-21.92L227.37-21.92Q230.79-21.92 232.62-20.04 234.45-18.16 234.45-13.23L234.45-13.23 234.45-5.32Q234.45-3.66 235.62-3.66L235.62-3.66Q236.45-3.66 237.28-4.3L237.28-4.3Q237.62-4.1 237.62-3.56L237.62-3.56Q237.62-2.34 237.28-1.76L237.28-1.76Q236.6-1.12 235.06-0.42 233.52 0.29 232.16 0.29L232.16 0.29Q230.98 0.29 229.91-0.42 228.83-1.12 228.49-2.05L228.49-2.05Q228.44-2.05 228.1-1.78 227.76-1.51 227.22-1.17 226.69-0.83 225.98-0.49 225.27-0.15 224.29 0.1 223.32 0.34 222.34 0.34L222.34 0.34Q219.66 0.34 218.07-1.15 216.48-2.64 216.48-4.88L216.48-4.88Q216.48-6.2 217.09-7.3 217.7-8.4 218.51-9.11 219.31-9.81 220.68-10.42 222.05-11.04 223.02-11.35 224-11.67 225.54-12.08 227.08-12.5 227.66-12.7L227.66-12.7Q228.1-12.84 228.1-13.43L228.1-13.43 228.1-15.19Q228.1-19.19 225.66-19.19L225.66-19.19Q222.83-19.19 222.83-15.92L222.83-15.92Q222.83-14.84 221.95-14.33 221.07-13.82 220-13.82L220-13.82Q217.75-13.82 216.92-15.28L216.92-15.28Q216.92-17.77 220.22-19.85 223.51-21.92 227.37-21.92ZM251.78-21.83L251.78-21.83Q253.88-21.83 255.71-21.19 257.54-20.56 258.28-20 259.01-19.43 259.4-18.95L259.4-18.95Q259.4-14.45 256.76-14.45L256.76-14.45Q254.86-14.45 253.88-16.89L253.88-16.89Q253.44-18.02 252.78-18.58 252.12-19.14 250.95-19.14L250.95-19.14Q247.05-19.14 247.05-11.82L247.05-11.82Q247.05-3.56 252.56-3.56L252.56-3.56Q254.17-3.56 255.64-4.03 257.1-4.49 257.69-4.86 258.28-5.22 259.25-5.96L259.25-5.96Q259.69-5.76 259.69-5.03L259.69-5.03Q259.69-4.44 259.5-4.05L259.5-4.05Q259.01-2.83 256.59-1.25 254.17 0.34 251.15 0.34L251.15 0.34Q246.46 0.34 243.29-2.95 240.11-6.25 240.11-11.04L240.11-11.04Q240.11-15.53 243.51-18.68 246.9-21.83 251.78-21.83ZM286.4-15.97L286.4-15.97 286.4-6.4Q286.4-3.86 286.89-3.32L286.89-3.32Q287.13-3.08 287.67-2.95 288.2-2.83 288.74-2.83L288.74-2.83 289.23-2.83Q289.43-2.73 289.43-2.44L289.43-2.44Q289.43-1.03 289.13-1.03L289.13-1.03Q288.4-0.98 287.23-0.83 286.06-0.68 284.88-0.51 283.71-0.34 282.66-0.17 281.61 0 280.93 0.1L280.93 0.1 280.25 0.24Q279.95 0.24 279.95-0.63L279.95-0.63 279.95-2.44Q279.95-2.64 279.9-2.69 279.86-2.73 279.76-2.64L279.76-2.64Q278.73-1.56 276.75-0.68 274.78 0.2 272.48 0.2L272.48 0.2Q269.6 0.2 267.87-2.34 266.13-4.88 266.13-8.5L266.13-8.5 266.13-13.23Q266.13-15.97 265.26-16.89L265.26-16.89Q264.91-17.29 264.23-17.53 263.55-17.77 263.06-17.87 262.57-17.97 262.57-18.02L262.57-18.02Q262.57-19.73 262.81-19.73L262.81-19.73Q263.74-19.73 267.06-20.39 270.38-21.04 271.75-21.48L271.75-21.48 271.99-21.58Q272.24-21.63 272.29-21.63L272.29-21.63Q272.53-21.63 272.78-21.31 273.02-21 273.02-20.8L273.02-20.8Q272.48-16.5 272.48-15.92L272.48-15.92 272.48-10.69Q272.48-6.88 273.46-5.35 274.44-3.81 276.73-3.81L276.73-3.81Q278.39-3.81 279.22-4.57 280.05-5.32 280.05-6.25L280.05-6.25 280.05-13.23Q280.05-15.97 279.17-16.89L279.17-16.89Q278.83-17.29 278.15-17.53 277.46-17.77 276.97-17.87 276.49-17.97 276.49-18.02L276.49-18.02Q276.49-19.73 276.73-19.73L276.73-19.73Q277.66-19.73 280.98-20.39 284.3-21.04 285.67-21.48L285.67-21.48Q285.71-21.48 285.96-21.58L285.96-21.58 286.2-21.63Q286.45-21.63 286.69-21.31 286.94-21 286.94-20.8L286.94-20.8Q286.4-16.5 286.4-15.97ZM300.41-21.92L300.41-21.92Q304.71-21.92 306.76-20.95L306.76-20.95Q307.25-18.7 307.25-14.89L307.25-14.89Q307.25-14.45 306.61-14.45L306.61-14.45Q305.1-14.45 305-14.84L305-14.84Q304.56-16.89 303.51-18.07 302.46-19.24 300.17-19.24L300.17-19.24Q299.09-19.24 298.41-18.73 297.72-18.21 297.72-17.24L297.72-17.24Q297.72-16.11 298.7-15.31 299.68-14.5 301.58-13.57L301.58-13.57Q302.9-12.94 303.66-12.5 304.41-12.06 305.66-11.11 306.9-10.16 307.51-8.89 308.12-7.62 308.12-6.05L308.12-6.05Q308.12-2.83 305.66-1.17 303.19 0.49 299.38 0.49L299.38 0.49Q297.68 0.49 295.58-0.05 293.48-0.59 292.55-1.37L292.55-1.37Q291.96-4.74 291.96-7.32L291.96-7.32Q292.16-7.47 292.69-7.47L292.69-7.47Q294.26-7.47 294.31-7.03L294.31-7.03Q295.14-2.2 299.58-2.2L299.58-2.2Q300.75-2.2 301.53-2.73 302.31-3.27 302.31-4.25L302.31-4.25Q302.31-5.47 301.26-6.3 300.21-7.13 297.48-8.5L297.48-8.5Q294.65-9.86 293.28-11.5 291.91-13.13 291.91-15.53L291.91-15.53Q291.91-18.85 294.45-20.39 296.99-21.92 300.41-21.92Z" opacity="1" transform="matrix(1,0,0,1,0,0)" fill="#ffffff" class="wordmark-text-0" data-fill-palette-color="quaternary" id="text-0"></path></svg></g></svg></g><g transform="matrix(1,0,0,1,0,36.773978848432776)"><svg viewBox="0 0 204.8 11.601267266506147" height="11.601267266506147" width="204.8"><g transform="matrix(1,0,0,1,0,0)"><svg width="204.8" viewBox="1.9500000476837158 -33.5 789 44.70000076293945" height="11.601267266506147" data-palette-color="#ffffff"><path d="M19.85-31.7L19.85-31.7Q16.15-31.7 13.43-30.38 10.7-29.05 8.9-26.93 7.1-24.8 6.23-22.15 5.35-19.5 5.35-16.9L5.35-16.9Q5.35-13.95 6.5-11.13 7.65-8.3 9.68-6.13 11.7-3.95 14.4-2.63 17.1-1.3 20.25-1.3L20.25-1.3Q21.15-1.3 22.38-1.5 23.6-1.7 24.8-2.27 26-2.85 27.03-3.9 28.05-4.95 28.6-6.65L28.6-6.65 29.1-6.65 29.1-1.1Q28.35-1.1 27.53-0.9 26.7-0.7 25.7-0.45L25.7-0.45Q24.4-0.1 22.83 0.2 21.25 0.5 19.5 0.5L19.5 0.5Q15.15 0.5 11.85-1 8.55-2.5 6.35-4.9 4.15-7.3 3.05-10.33 1.95-13.35 1.95-16.45L1.95-16.45Q1.95-19.55 3.05-22.6 4.15-25.65 6.4-28.08 8.65-30.5 12.05-32 15.45-33.5 20.05-33.5L20.05-33.5Q21.7-33.5 23.03-33.2 24.35-32.9 25.4-32.6L25.4-32.6Q26.15-32.35 26.78-32.23 27.4-32.1 28-32.1L28-32.1 28-26.55 27.5-26.55Q27.2-28.1 26.4-29.13 25.6-30.15 24.53-30.7 23.45-31.25 22.23-31.48 21-31.7 19.85-31.7ZM43.9 0.35L43.9 0.35Q41.4 0.35 39.4-0.48 37.4-1.3 35.97-2.73 34.55-4.15 33.77-6.1 33-8.05 33-10.35L33-10.35Q33-12.8 33.85-14.83 34.7-16.85 36.2-18.3 37.7-19.75 39.75-20.55 41.8-21.35 44.2-21.35L44.2-21.35Q46.6-21.35 48.6-20.58 50.6-19.8 52.05-18.4 53.5-17 54.3-15.08 55.1-13.15 55.1-10.85L55.1-10.85Q55.1-8.7 54.37-6.68 53.65-4.65 52.22-3.1 50.8-1.55 48.72-0.6 46.65 0.35 43.9 0.35ZM43.6-19.7L43.6-19.7Q41.8-19.6 40.42-18.82 39.05-18.05 38.12-16.82 37.2-15.6 36.72-14.05 36.25-12.5 36.25-10.9L36.25-10.9Q36.25-9.05 36.82-7.33 37.4-5.6 38.47-4.25 39.55-2.9 41.05-2.1 42.55-1.3 44.4-1.3L44.4-1.3Q46.25-1.3 47.67-2.1 49.1-2.9 50.05-4.17 51-5.45 51.47-7.05 51.95-8.65 51.95-10.25L51.95-10.25Q51.95-11.9 51.45-13.58 50.95-15.25 49.9-16.63 48.85-18 47.27-18.85 45.7-19.7 43.6-19.7ZM79.34-21.55L79.34-3.25Q79.34-2.9 79.45-2.43 79.55-1.95 79.72-1.53 79.9-1.1 80.2-0.8 80.5-0.5 80.9-0.5L80.9-0.5 80.9 0 76.05 0 76.05-2.75Q75.3-1.65 73.84-0.6 72.4 0.45 70.09 0.45L70.09 0.45Q67.2 0.45 65.5-0.55 63.8-1.55 62.9-3.1 62-4.65 61.75-6.48 61.5-8.3 61.5-9.9L61.5-9.9 61.5-17.05Q61.5-17.5 61.47-17.93 61.45-18.35 61.27-18.7 61.09-19.05 60.75-19.28 60.4-19.5 59.75-19.5L59.75-19.5 59.75-19.95 64.8-21.55 64.8-8.8Q64.8-5 66.45-3.2 68.09-1.4 70.5-1.4L70.5-1.4Q71.8-1.4 72.82-1.98 73.84-2.55 74.57-3.35 75.3-4.15 75.67-5 76.05-5.85 76.05-6.4L76.05-6.4 76.05-17.05Q76.05-17.5 76.02-17.93 76-18.35 75.82-18.7 75.65-19.05 75.3-19.28 74.95-19.5 74.3-19.5L74.3-19.5 74.3-19.95 79.34-21.55ZM105.84-12.9L105.84-3.25Q105.84-2.85 105.94-2.38 106.04-1.9 106.27-1.5 106.49-1.1 106.77-0.8 107.04-0.5 107.44-0.5L107.44-0.5 107.44 0 100.99 0 100.99-0.5Q101.34-0.5 101.64-0.8 101.94-1.1 102.17-1.5 102.39-1.9 102.49-2.38 102.59-2.85 102.59-3.25L102.59-3.25 102.59-12.55Q102.59-14.35 102.09-15.7 101.59-17.05 100.74-17.95 99.89-18.85 98.82-19.28 97.74-19.7 96.64-19.7L96.64-19.7Q95.54-19.7 94.47-19.25 93.39-18.8 92.57-18.07 91.74-17.35 91.22-16.38 90.69-15.4 90.69-14.35L90.69-14.35 90.69-3.25Q90.69-2.85 90.79-2.38 90.89-1.9 91.12-1.5 91.34-1.1 91.62-0.8 91.89-0.5 92.29-0.5L92.29-0.5 92.29 0 85.79 0 85.79-0.5Q86.14-0.5 86.44-0.8 86.74-1.1 86.97-1.5 87.19-1.9 87.29-2.38 87.39-2.85 87.39-3.25L87.39-3.25 87.39-17.05Q87.39-17.9 87.14-18.68 86.89-19.45 85.69-19.5L85.69-19.5 85.69-19.95 90.69-21.55 90.69-18.8Q91.04-19.2 91.59-19.68 92.14-20.15 92.92-20.58 93.69-21 94.72-21.28 95.74-21.55 97.14-21.55L97.14-21.55Q99.49-21.55 101.14-20.75 102.79-19.95 103.84-18.68 104.89-17.4 105.37-15.88 105.84-14.35 105.84-12.9L105.84-12.9ZM122.84-19.3L117.24-19.3 117.24-7.25Q117.24-5.95 117.29-4.9 117.34-3.85 117.54-3.15 117.74-2.45 118.14-2.08 118.54-1.7 119.24-1.7L119.24-1.7Q120.29-1.7 121.22-2.7 122.14-3.7 122.39-5.1L122.39-5.1 122.84-5.1 122.84-1.45Q122.39-1.45 122.09-1.15L122.09-1.15Q121.69-0.8 120.97-0.4 120.24 0 118.79 0L118.79 0Q116.99 0 115.99-0.7 114.99-1.4 114.54-2.55 114.09-3.7 114.02-5.1 113.94-6.5 113.94-7.95L113.94-7.95 113.94-19.3 111.14-19.3 111.14-21 113.94-21 113.94-25.45Q113.94-26.3 113.72-27.03 113.49-27.75 112.24-27.8L112.24-27.8 112.24-28.3 117.24-29.9 117.24-21 122.84-21 122.84-19.3ZM133.79 0L127.29 0 127.29-0.5Q127.69-0.5 127.99-0.8 128.29-1.1 128.49-1.5 128.69-1.9 128.79-2.38 128.89-2.85 128.89-3.25L128.89-3.25 128.89-17.1Q128.89-17.95 128.64-18.73 128.39-19.5 127.19-19.55L127.19-19.55 127.19-20 132.19-21.6 132.19-3.25Q132.19-2.85 132.29-2.38 132.39-1.9 132.59-1.5 132.79-1.1 133.09-0.8 133.39-0.5 133.79-0.5L133.79-0.5 133.79 0ZM127.54-26.4L127.54-26.4Q127.54-27.4 128.21-28.1 128.89-28.8 129.89-28.8L129.89-28.8Q130.89-28.8 131.59-28.1 132.29-27.4 132.29-26.4L132.29-26.4Q132.29-25.4 131.59-24.75 130.89-24.1 129.89-24.1L129.89-24.1Q128.89-24.1 128.21-24.75 127.54-25.4 127.54-26.4ZM159.24-12.9L159.24-3.25Q159.24-2.85 159.34-2.38 159.44-1.9 159.66-1.5 159.89-1.1 160.16-0.8 160.44-0.5 160.84-0.5L160.84-0.5 160.84 0 154.39 0 154.39-0.5Q154.74-0.5 155.04-0.8 155.34-1.1 155.56-1.5 155.79-1.9 155.89-2.38 155.99-2.85 155.99-3.25L155.99-3.25 155.99-12.55Q155.99-14.35 155.49-15.7 154.99-17.05 154.14-17.95 153.29-18.85 152.21-19.28 151.14-19.7 150.04-19.7L150.04-19.7Q148.94-19.7 147.86-19.25 146.79-18.8 145.96-18.07 145.14-17.35 144.61-16.38 144.09-15.4 144.09-14.35L144.09-14.35 144.09-3.25Q144.09-2.85 144.19-2.38 144.29-1.9 144.51-1.5 144.74-1.1 145.01-0.8 145.29-0.5 145.69-0.5L145.69-0.5 145.69 0 139.19 0 139.19-0.5Q139.54-0.5 139.84-0.8 140.14-1.1 140.36-1.5 140.59-1.9 140.69-2.38 140.79-2.85 140.79-3.25L140.79-3.25 140.79-17.05Q140.79-17.9 140.54-18.68 140.29-19.45 139.09-19.5L139.09-19.5 139.09-19.95 144.09-21.55 144.09-18.8Q144.44-19.2 144.99-19.68 145.54-20.15 146.31-20.58 147.09-21 148.11-21.28 149.14-21.55 150.54-21.55L150.54-21.55Q152.89-21.55 154.54-20.75 156.19-19.95 157.24-18.68 158.29-17.4 158.76-15.88 159.24-14.35 159.24-12.9L159.24-12.9ZM176.13 9.3L176.13 9.3Q177.63 9.3 178.98 9.03 180.33 8.75 181.36 8.25 182.38 7.75 182.98 7.05 183.58 6.35 183.58 5.55L183.58 5.55Q183.58 4.7 182.76 4.1 181.93 3.5 180.53 3.05 179.13 2.6 177.28 2.27 175.43 1.95 173.43 1.6L173.43 1.6 170.88 1.15Q169.73 2.05 169.28 3.05 168.83 4.05 168.83 4.8L168.83 4.8Q168.83 5.85 169.41 6.68 169.98 7.5 170.96 8.1 171.93 8.7 173.26 9 174.58 9.3 176.13 9.3ZM172.63-1.7L178.88-0.7Q180.88-0.4 182.21 0.1 183.53 0.6 184.33 1.28 185.13 1.95 185.43 2.78 185.73 3.6 185.73 4.55L185.73 4.55Q185.73 6.25 184.81 7.5 183.88 8.75 182.41 9.58 180.93 10.4 179.06 10.8 177.18 11.2 175.23 11.2L175.23 11.2Q173.33 11.2 171.58 10.83 169.83 10.45 168.48 9.7 167.13 8.95 166.33 7.83 165.53 6.7 165.53 5.25L165.53 5.25Q165.53 3.95 166.33 2.78 167.13 1.6 168.93 0.45L168.93 0.45Q167.18-0.45 166.26-1.98 165.33-3.5 165.33-5.1L165.33-5.1Q165.33-6.05 165.78-6.98 166.23-7.9 167.23-8.7L167.23-8.7Q166.38-9.7 166.03-10.7 165.68-11.7 165.68-12.85L165.68-12.85Q165.68-14.65 166.43-16.2 167.18-17.75 168.48-18.9 169.78-20.05 171.53-20.7 173.28-21.35 175.28-21.35L175.28-21.35Q177.38-21.35 179.28-20.63 181.18-19.9 182.48-18.75L182.48-18.75 186.08-18.75 186.08-16.95 183.78-16.95Q184.13-16.2 184.48-15.18 184.83-14.15 184.83-13.05L184.83-13.05Q184.83-11.45 184.08-10.03 183.33-8.6 182.01-7.53 180.68-6.45 178.91-5.83 177.13-5.2 175.13-5.2L175.13-5.2Q173.28-5.2 171.53-5.75 169.78-6.3 168.43-7.35L168.43-7.35Q167.88-7 167.68-6.48 167.48-5.95 167.48-5.4L167.48-5.4Q167.48-3.8 168.93-2.93 170.38-2.05 172.63-1.7L172.63-1.7ZM174.68-19.6L174.68-19.6Q173.48-19.6 172.43-19.18 171.38-18.75 170.58-18 169.78-17.25 169.31-16.18 168.83-15.1 168.83-13.75L168.83-13.75Q168.83-12.1 169.51-10.8 170.18-9.5 171.23-8.65 172.28-7.8 173.56-7.35 174.83-6.9 175.98-6.9L175.98-6.9Q177.23-6.9 178.26-7.38 179.28-7.85 180.03-8.68 180.78-9.5 181.18-10.6 181.58-11.7 181.58-12.9L181.58-12.9Q181.58-14.4 180.98-15.65 180.38-16.9 179.41-17.78 178.43-18.65 177.18-19.13 175.93-19.6 174.68-19.6ZM210.43-0.5L210.43-0.5 210.68-0.5 210.68 0 203.53 0 203.53-0.5 203.78-0.5Q204.18-0.5 204.48-0.78 204.78-1.05 205-1.45 205.23-1.85 205.33-2.3 205.43-2.75 205.43-3.15L205.43-3.15 205.43-29.9Q205.43-30.25 205.33-30.7 205.23-31.15 205.03-31.55 204.83-31.95 204.5-32.23 204.18-32.5 203.78-32.5L203.78-32.5 203.53-32.5 203.53-33 222.73-33 222.73-28.35 222.23-28.35Q222.23-29.5 221.45-30.38 220.68-31.25 219.03-31.25L219.03-31.25 208.78-31.25 208.78-18.6 217.08-18.6Q218.23-18.6 219-19.3 219.78-20 219.78-20.95L219.78-20.95 220.28-20.95 220.28-14.7 219.78-14.7Q219.78-15.6 219.03-16.25 218.28-16.9 217.08-16.9L217.08-16.9 208.78-16.9 208.78-3.15Q208.78-2.75 208.88-2.3 208.98-1.85 209.2-1.45 209.43-1.05 209.73-0.78 210.03-0.5 210.43-0.5ZM233.68 0L227.18 0 227.18-0.5Q227.58-0.5 227.88-0.8 228.18-1.1 228.38-1.5 228.58-1.9 228.68-2.38 228.78-2.85 228.78-3.25L228.78-3.25 228.78-17.1Q228.78-17.95 228.53-18.73 228.28-19.5 227.08-19.55L227.08-19.55 227.08-20 232.08-21.6 232.08-3.25Q232.08-2.85 232.18-2.38 232.28-1.9 232.48-1.5 232.68-1.1 232.98-0.8 233.28-0.5 233.68-0.5L233.68-0.5 233.68 0ZM227.43-26.4L227.43-26.4Q227.43-27.4 228.1-28.1 228.78-28.8 229.78-28.8L229.78-28.8Q230.78-28.8 231.48-28.1 232.18-27.4 232.18-26.4L232.18-26.4Q232.18-25.4 231.48-24.75 230.78-24.1 229.78-24.1L229.78-24.1Q228.78-24.1 228.1-24.75 227.43-25.4 227.43-26.4ZM259.12-12.9L259.12-3.25Q259.12-2.85 259.22-2.38 259.32-1.9 259.55-1.5 259.77-1.1 260.05-0.8 260.32-0.5 260.72-0.5L260.72-0.5 260.72 0 254.27 0 254.27-0.5Q254.62-0.5 254.92-0.8 255.22-1.1 255.45-1.5 255.67-1.9 255.77-2.38 255.87-2.85 255.87-3.25L255.87-3.25 255.87-12.55Q255.87-14.35 255.37-15.7 254.87-17.05 254.02-17.95 253.17-18.85 252.1-19.28 251.02-19.7 249.92-19.7L249.92-19.7Q248.82-19.7 247.75-19.25 246.67-18.8 245.85-18.07 245.02-17.35 244.5-16.38 243.97-15.4 243.97-14.35L243.97-14.35 243.97-3.25Q243.97-2.85 244.07-2.38 244.17-1.9 244.4-1.5 244.62-1.1 244.9-0.8 245.17-0.5 245.57-0.5L245.57-0.5 245.57 0 239.07 0 239.07-0.5Q239.42-0.5 239.72-0.8 240.02-1.1 240.25-1.5 240.47-1.9 240.57-2.38 240.67-2.85 240.67-3.25L240.67-3.25 240.67-17.05Q240.67-17.9 240.42-18.68 240.17-19.45 238.97-19.5L238.97-19.5 238.97-19.95 243.97-21.55 243.97-18.8Q244.32-19.2 244.87-19.68 245.42-20.15 246.2-20.58 246.97-21 248-21.28 249.02-21.55 250.42-21.55L250.42-21.55Q252.77-21.55 254.42-20.75 256.07-19.95 257.12-18.68 258.17-17.4 258.65-15.88 259.12-14.35 259.12-12.9L259.12-12.9ZM276.02 9.3L276.02 9.3Q277.52 9.3 278.87 9.03 280.22 8.75 281.25 8.25 282.27 7.75 282.87 7.05 283.47 6.35 283.47 5.55L283.47 5.55Q283.47 4.7 282.65 4.1 281.82 3.5 280.42 3.05 279.02 2.6 277.17 2.27 275.32 1.95 273.32 1.6L273.32 1.6 270.77 1.15Q269.62 2.05 269.17 3.05 268.72 4.05 268.72 4.8L268.72 4.8Q268.72 5.85 269.3 6.68 269.87 7.5 270.85 8.1 271.82 8.7 273.15 9 274.47 9.3 276.02 9.3ZM272.52-1.7L278.77-0.7Q280.77-0.4 282.1 0.1 283.42 0.6 284.22 1.28 285.02 1.95 285.32 2.78 285.62 3.6 285.62 4.55L285.62 4.55Q285.62 6.25 284.7 7.5 283.77 8.75 282.3 9.58 280.82 10.4 278.95 10.8 277.07 11.2 275.12 11.2L275.12 11.2Q273.22 11.2 271.47 10.83 269.72 10.45 268.37 9.7 267.02 8.95 266.22 7.83 265.42 6.7 265.42 5.25L265.42 5.25Q265.42 3.95 266.22 2.78 267.02 1.6 268.82 0.45L268.82 0.45Q267.07-0.45 266.15-1.98 265.22-3.5 265.22-5.1L265.22-5.1Q265.22-6.05 265.67-6.98 266.12-7.9 267.12-8.7L267.12-8.7Q266.27-9.7 265.92-10.7 265.57-11.7 265.57-12.85L265.57-12.85Q265.57-14.65 266.32-16.2 267.07-17.75 268.37-18.9 269.67-20.05 271.42-20.7 273.17-21.35 275.17-21.35L275.17-21.35Q277.27-21.35 279.17-20.63 281.07-19.9 282.37-18.75L282.37-18.75 285.97-18.75 285.97-16.95 283.67-16.95Q284.02-16.2 284.37-15.18 284.72-14.15 284.72-13.05L284.72-13.05Q284.72-11.45 283.97-10.03 283.22-8.6 281.9-7.53 280.57-6.45 278.8-5.83 277.02-5.2 275.02-5.2L275.02-5.2Q273.17-5.2 271.42-5.75 269.67-6.3 268.32-7.35L268.32-7.35Q267.77-7 267.57-6.48 267.37-5.95 267.37-5.4L267.37-5.4Q267.37-3.8 268.82-2.93 270.27-2.05 272.52-1.7L272.52-1.7ZM274.57-19.6L274.57-19.6Q273.37-19.6 272.32-19.18 271.27-18.75 270.47-18 269.67-17.25 269.2-16.18 268.72-15.1 268.72-13.75L268.72-13.75Q268.72-12.1 269.4-10.8 270.07-9.5 271.12-8.65 272.17-7.8 273.45-7.35 274.72-6.9 275.87-6.9L275.87-6.9Q277.12-6.9 278.15-7.38 279.17-7.85 279.92-8.68 280.67-9.5 281.07-10.6 281.47-11.7 281.47-12.9L281.47-12.9Q281.47-14.4 280.87-15.65 280.27-16.9 279.3-17.78 278.32-18.65 277.07-19.13 275.82-19.6 274.57-19.6ZM310.47-10.1L293.12-10.1Q293.32-8.35 293.97-6.78 294.62-5.2 295.69-4 296.77-2.8 298.32-2.08 299.87-1.35 301.92-1.35L301.92-1.35Q303.02-1.35 304.24-1.68 305.47-2 306.52-2.6 307.57-3.2 308.39-4.08 309.22-4.95 309.52-6.05L309.52-6.05 309.97-6.05 309.97-2.3Q309.67-2.3 309.29-2.1 308.92-1.9 308.42-1.6L308.42-1.6Q307.42-1 305.72-0.33 304.02 0.35 301.22 0.35L301.22 0.35Q298.97 0.35 296.94-0.3 294.92-0.95 293.37-2.3 291.82-3.65 290.89-5.75 289.97-7.85 289.97-10.75L289.97-10.75Q289.97-12.6 290.59-14.5 291.22-16.4 292.49-17.93 293.77-19.45 295.77-20.4 297.77-21.35 300.57-21.35L300.57-21.35Q303.07-21.35 304.94-20.5 306.82-19.65 308.04-18.15 309.27-16.65 309.87-14.6 310.47-12.55 310.47-10.1L310.47-10.1ZM300.37-19.7L300.37-19.7Q298.62-19.7 297.34-19 296.07-18.3 295.17-17.2 294.27-16.1 293.77-14.7 293.27-13.3 293.12-11.9L293.12-11.9 307.37-11.9Q307.32-13.35 306.84-14.75 306.37-16.15 305.52-17.25 304.67-18.35 303.37-19.03 302.07-19.7 300.37-19.7ZM328.32-20.4L326.82-17.35Q326.22-18.35 325.57-18.6 324.92-18.85 324.07-18.85L324.07-18.85Q323.52-18.85 322.89-18.6 322.27-18.35 321.67-17.95 321.07-17.55 320.49-17.07 319.92-16.6 319.52-16.2L319.52-16.2 319.52-3.2Q319.52-2.8 319.62-2.35 319.72-1.9 319.94-1.48 320.17-1.05 320.44-0.78 320.72-0.5 321.12-0.5L321.12-0.5 321.12 0 314.62 0 314.62-0.5Q314.97-0.5 315.27-0.78 315.57-1.05 315.79-1.48 316.02-1.9 316.12-2.35 316.22-2.8 316.22-3.2L316.22-3.2 316.22-17.15Q316.22-17.85 315.77-18.55 315.32-19.25 314.47-19.45L314.47-19.45 314.47-19.85 319.52-21.35 319.52-18.35Q319.97-18.9 320.47-19.43 320.97-19.95 321.59-20.38 322.22-20.8 322.97-21.08 323.72-21.35 324.72-21.35L324.72-21.35Q325.42-21.35 326.52-21.05 327.62-20.75 328.32-20.4L328.32-20.4ZM347.71-5.7L347.71-5.7Q347.71-4.4 347.06-3.3 346.41-2.2 345.29-1.38 344.16-0.55 342.66-0.08 341.16 0.4 339.41 0.4L339.41 0.4Q337.26 0.4 335.91-0.18 334.56-0.75 333.61-1.35L333.61-1.35Q332.96-1.75 332.41-2.02 331.86-2.3 331.21-2.3L331.21-2.3 331.21-6.1 331.71-6.1Q331.86-5.4 332.59-4.58 333.31-3.75 334.34-3.05 335.36-2.35 336.59-1.88 337.81-1.4 339.06-1.4L339.06-1.4Q339.96-1.4 340.91-1.6 341.86-1.8 342.64-2.25 343.41-2.7 343.94-3.38 344.46-4.05 344.46-5L344.46-5Q344.46-5.95 343.91-6.65 343.36-7.35 342.51-7.88 341.66-8.4 340.56-8.8 339.46-9.2 338.36-9.55L338.36-9.55Q337.06-9.95 335.74-10.45 334.41-10.95 333.36-11.63 332.31-12.3 331.66-13.28 331.01-14.25 331.01-15.6L331.01-15.6Q331.01-16.75 331.44-17.8 331.86-18.85 332.84-19.63 333.81-20.4 335.36-20.88 336.91-21.35 339.11-21.35L339.11-21.35Q341.06-21.35 342.14-21.03 343.21-20.7 343.91-20.35L343.91-20.35Q344.36-20.1 344.81-19.98 345.26-19.85 345.81-19.85L345.81-19.85 345.81-16.35 345.41-16.35Q344.51-18 342.66-18.85 340.81-19.7 338.86-19.7L338.86-19.7Q337.61-19.7 336.71-19.38 335.81-19.05 335.24-18.57 334.66-18.1 334.39-17.5 334.11-16.9 334.11-16.3L334.11-16.3Q334.11-15.45 334.59-14.85 335.06-14.25 335.89-13.8 336.71-13.35 337.74-12.95 338.76-12.55 339.91-12.2L339.91-12.2Q341.31-11.75 342.71-11.23 344.11-10.7 345.21-9.95 346.31-9.2 347.01-8.18 347.71-7.15 347.71-5.7ZM352.46-4.65L352.46-4.65Q353.91-4.65 354.59-3.65 355.26-2.65 355.26-1.35L355.26-1.35Q355.26-0.6 355.06 0.33 354.86 1.25 354.29 2.18 353.71 3.1 352.64 4.03 351.56 4.95 349.81 5.75L349.81 5.75 349.56 5.3Q350.56 4.4 351.14 3.68 351.71 2.95 351.99 2.38 352.26 1.8 352.34 1.3 352.41 0.8 352.41 0.25L352.41 0.25Q352.41-0.15 352.16-0.38 351.91-0.6 351.61-0.8L351.61-0.8Q351.21-1.05 350.81-1.38 350.41-1.7 350.41-2.5L350.41-2.5Q350.41-3.45 351.01-4.05 351.61-4.65 352.46-4.65ZM388.66-31.7L388.66-31.7Q384.96-31.7 382.23-30.38 379.51-29.05 377.71-26.93 375.91-24.8 375.03-22.15 374.16-19.5 374.16-16.9L374.16-16.9Q374.16-13.95 375.31-11.13 376.46-8.3 378.48-6.13 380.51-3.95 383.21-2.63 385.91-1.3 389.06-1.3L389.06-1.3Q389.96-1.3 391.18-1.5 392.41-1.7 393.61-2.27 394.81-2.85 395.83-3.9 396.86-4.95 397.41-6.65L397.41-6.65 397.91-6.65 397.91-1.1Q397.16-1.1 396.33-0.9 395.51-0.7 394.51-0.45L394.51-0.45Q393.21-0.1 391.63 0.2 390.06 0.5 388.31 0.5L388.31 0.5Q383.96 0.5 380.66-1 377.36-2.5 375.16-4.9 372.96-7.3 371.86-10.33 370.76-13.35 370.76-16.45L370.76-16.45Q370.76-19.55 371.86-22.6 372.96-25.65 375.21-28.08 377.46-30.5 380.86-32 384.26-33.5 388.86-33.5L388.86-33.5Q390.51-33.5 391.83-33.2 393.16-32.9 394.21-32.6L394.21-32.6Q394.96-32.35 395.58-32.23 396.21-32.1 396.81-32.1L396.81-32.1 396.81-26.55 396.31-26.55Q396.01-28.1 395.21-29.13 394.41-30.15 393.33-30.7 392.26-31.25 391.03-31.48 389.81-31.7 388.66-31.7ZM420.25 0L415.4 0 415.4-2.55 415.15-2.3Q413.9-1.05 412.28-0.35 410.65 0.35 408.35 0.35L408.35 0.35Q406.6 0.35 405.35-0.05 404.1-0.45 403.3-1.18 402.5-1.9 402.13-2.85 401.75-3.8 401.75-4.85L401.75-4.85Q401.75-6.55 402.68-7.85 403.6-9.15 405.35-10.15 407.1-11.15 409.63-11.98 412.15-12.8 415.4-13.6L415.4-13.6Q415.3-15.55 414.6-16.75 413.9-17.95 412.95-18.63 412-19.3 410.95-19.53 409.9-19.75 409.15-19.75L409.15-19.75Q407.85-19.75 406.88-19.35 405.9-18.95 405.18-18.32 404.45-17.7 403.95-16.98 403.45-16.25 403.15-15.6L403.15-15.6 402.7-15.6 402.7-19.25Q403.1-19.3 403.45-19.5 403.8-19.7 404.3-19.9L404.3-19.9Q405.05-20.2 406.35-20.78 407.65-21.35 410-21.35L410-21.35Q412.75-21.35 414.45-20.65 416.15-19.95 417.08-18.8 418-17.65 418.3-16.18 418.6-14.7 418.6-13.15L418.6-13.15 418.6-3.25Q418.6-2.25 419.05-1.38 419.5-0.5 420.25-0.5L420.25-0.5 420.25 0ZM414.85-4.15L415.4-4.75 415.4-11.9 414.9-11.8Q413.7-11.5 411.98-11 410.25-10.5 408.7-9.7 407.15-8.9 406.05-7.8 404.95-6.7 404.95-5.25L404.95-5.25Q404.95-3.65 406.25-2.6 407.55-1.55 409.65-1.55L409.65-1.55Q411.3-1.55 412.55-2.27 413.8-3 414.85-4.15L414.85-4.15ZM431.8 0L425.25 0 425.25-0.5Q425.65-0.5 425.95-0.8 426.25-1.1 426.48-1.5 426.7-1.9 426.8-2.38 426.9-2.85 426.9-3.25L426.9-3.25 426.9-28.85Q426.9-29.7 426.65-30.45 426.4-31.2 425.15-31.25L425.15-31.25 425.15-31.75 430.2-33.3 430.2-3.25Q430.2-2.85 430.3-2.38 430.4-1.9 430.63-1.5 430.85-1.1 431.13-0.8 431.4-0.5 431.8-0.5L431.8-0.5 431.8 0ZM455.05-5.7L455.05-1.8Q454.65-1.8 454.3-1.63 453.95-1.45 453.5-1.2L453.5-1.2Q452.65-0.7 451.35-0.18 450.05 0.35 447.95 0.35L447.95 0.35Q445.4 0.35 443.22-0.48 441.05-1.3 439.47-2.78 437.9-4.25 437.02-6.23 436.15-8.2 436.15-10.5L436.15-10.5Q436.15-12.65 436.92-14.6 437.7-16.55 439.15-18.05 440.6-19.55 442.72-20.45 444.85-21.35 447.55-21.35L447.55-21.35Q449.4-21.35 450.55-20.93 451.7-20.5 452.5-20.1L452.5-20.1Q452.95-19.85 453.37-19.7 453.8-19.55 454.25-19.55L454.25-19.55 454.25-15.75 453.75-15.75Q453.5-16.7 452.85-17.43 452.2-18.15 451.35-18.65 450.5-19.15 449.5-19.4 448.5-19.65 447.55-19.65L447.55-19.65Q445.5-19.65 443.95-18.93 442.4-18.2 441.4-17.03 440.4-15.85 439.9-14.35 439.4-12.85 439.4-11.25L439.4-11.25Q439.4-9.4 440-7.63 440.6-5.85 441.72-4.45 442.85-3.05 444.45-2.2 446.05-1.35 448.05-1.35L448.05-1.35Q449.45-1.35 450.62-1.75 451.8-2.15 452.62-2.8 453.45-3.45 453.95-4.23 454.45-5 454.55-5.7L454.55-5.7 455.05-5.7ZM478.2-21.55L478.2-3.25Q478.2-2.9 478.3-2.43 478.4-1.95 478.57-1.53 478.75-1.1 479.05-0.8 479.35-0.5 479.75-0.5L479.75-0.5 479.75 0 474.9 0 474.9-2.75Q474.15-1.65 472.7-0.6 471.25 0.45 468.95 0.45L468.95 0.45Q466.05 0.45 464.35-0.55 462.65-1.55 461.75-3.1 460.85-4.65 460.6-6.48 460.35-8.3 460.35-9.9L460.35-9.9 460.35-17.05Q460.35-17.5 460.32-17.93 460.3-18.35 460.12-18.7 459.95-19.05 459.6-19.28 459.25-19.5 458.6-19.5L458.6-19.5 458.6-19.95 463.65-21.55 463.65-8.8Q463.65-5 465.3-3.2 466.95-1.4 469.35-1.4L469.35-1.4Q470.65-1.4 471.67-1.98 472.7-2.55 473.42-3.35 474.15-4.15 474.52-5 474.9-5.85 474.9-6.4L474.9-6.4 474.9-17.05Q474.9-17.5 474.87-17.93 474.85-18.35 474.67-18.7 474.5-19.05 474.15-19.28 473.8-19.5 473.15-19.5L473.15-19.5 473.15-19.95 478.2-21.55ZM491.34 0L484.79 0 484.79-0.5Q485.19-0.5 485.49-0.8 485.79-1.1 486.02-1.5 486.24-1.9 486.34-2.38 486.44-2.85 486.44-3.25L486.44-3.25 486.44-28.85Q486.44-29.7 486.19-30.45 485.94-31.2 484.69-31.25L484.69-31.25 484.69-31.75 489.74-33.3 489.74-3.25Q489.74-2.85 489.84-2.38 489.94-1.9 490.17-1.5 490.39-1.1 490.67-0.8 490.94-0.5 491.34-0.5L491.34-0.5 491.34 0ZM514.19 0L509.34 0 509.34-2.55 509.09-2.3Q507.84-1.05 506.22-0.35 504.59 0.35 502.29 0.35L502.29 0.35Q500.54 0.35 499.29-0.05 498.04-0.45 497.24-1.18 496.44-1.9 496.07-2.85 495.69-3.8 495.69-4.85L495.69-4.85Q495.69-6.55 496.62-7.85 497.54-9.15 499.29-10.15 501.04-11.15 503.57-11.98 506.09-12.8 509.34-13.6L509.34-13.6Q509.24-15.55 508.54-16.75 507.84-17.95 506.89-18.63 505.94-19.3 504.89-19.53 503.84-19.75 503.09-19.75L503.09-19.75Q501.79-19.75 500.82-19.35 499.84-18.95 499.12-18.32 498.39-17.7 497.89-16.98 497.39-16.25 497.09-15.6L497.09-15.6 496.64-15.6 496.64-19.25Q497.04-19.3 497.39-19.5 497.74-19.7 498.24-19.9L498.24-19.9Q498.99-20.2 500.29-20.78 501.59-21.35 503.94-21.35L503.94-21.35Q506.69-21.35 508.39-20.65 510.09-19.95 511.02-18.8 511.94-17.65 512.24-16.18 512.54-14.7 512.54-13.15L512.54-13.15 512.54-3.25Q512.54-2.25 512.99-1.38 513.44-0.5 514.19-0.5L514.19-0.5 514.19 0ZM508.79-4.15L509.34-4.75 509.34-11.9 508.84-11.8Q507.64-11.5 505.92-11 504.19-10.5 502.64-9.7 501.09-8.9 499.99-7.8 498.89-6.7 498.89-5.25L498.89-5.25Q498.89-3.65 500.19-2.6 501.49-1.55 503.59-1.55L503.59-1.55Q505.24-1.55 506.49-2.27 507.74-3 508.79-4.15L508.79-4.15ZM529.49-19.3L523.89-19.3 523.89-7.25Q523.89-5.95 523.94-4.9 523.99-3.85 524.19-3.15 524.39-2.45 524.79-2.08 525.19-1.7 525.89-1.7L525.89-1.7Q526.94-1.7 527.86-2.7 528.79-3.7 529.04-5.1L529.04-5.1 529.49-5.1 529.49-1.45Q529.04-1.45 528.74-1.15L528.74-1.15Q528.34-0.8 527.61-0.4 526.89 0 525.44 0L525.44 0Q523.64 0 522.64-0.7 521.64-1.4 521.19-2.55 520.74-3.7 520.66-5.1 520.59-6.5 520.59-7.95L520.59-7.95 520.59-19.3 517.79-19.3 517.79-21 520.59-21 520.59-25.45Q520.59-26.3 520.36-27.03 520.14-27.75 518.89-27.8L518.89-27.8 518.89-28.3 523.89-29.9 523.89-21 529.49-21 529.49-19.3ZM540.44 0L533.94 0 533.94-0.5Q534.34-0.5 534.63-0.8 534.94-1.1 535.13-1.5 535.34-1.9 535.44-2.38 535.53-2.85 535.53-3.25L535.53-3.25 535.53-17.1Q535.53-17.95 535.28-18.73 535.03-19.5 533.84-19.55L533.84-19.55 533.84-20 538.84-21.6 538.84-3.25Q538.84-2.85 538.94-2.38 539.03-1.9 539.24-1.5 539.44-1.1 539.74-0.8 540.03-0.5 540.44-0.5L540.44-0.5 540.44 0ZM534.19-26.4L534.19-26.4Q534.19-27.4 534.86-28.1 535.53-28.8 536.53-28.8L536.53-28.8Q537.53-28.8 538.24-28.1 538.94-27.4 538.94-26.4L538.94-26.4Q538.94-25.4 538.24-24.75 537.53-24.1 536.53-24.1L536.53-24.1Q535.53-24.1 534.86-24.75 534.19-25.4 534.19-26.4ZM565.88-12.9L565.88-3.25Q565.88-2.85 565.98-2.38 566.08-1.9 566.31-1.5 566.53-1.1 566.81-0.8 567.08-0.5 567.48-0.5L567.48-0.5 567.48 0 561.03 0 561.03-0.5Q561.38-0.5 561.68-0.8 561.98-1.1 562.21-1.5 562.43-1.9 562.53-2.38 562.63-2.85 562.63-3.25L562.63-3.25 562.63-12.55Q562.63-14.35 562.13-15.7 561.63-17.05 560.78-17.95 559.93-18.85 558.86-19.28 557.78-19.7 556.68-19.7L556.68-19.7Q555.58-19.7 554.51-19.25 553.43-18.8 552.61-18.07 551.78-17.35 551.26-16.38 550.73-15.4 550.73-14.35L550.73-14.35 550.73-3.25Q550.73-2.85 550.83-2.38 550.93-1.9 551.16-1.5 551.38-1.1 551.66-0.8 551.93-0.5 552.33-0.5L552.33-0.5 552.33 0 545.83 0 545.83-0.5Q546.18-0.5 546.48-0.8 546.78-1.1 547.01-1.5 547.23-1.9 547.33-2.38 547.43-2.85 547.43-3.25L547.43-3.25 547.43-17.05Q547.43-17.9 547.18-18.68 546.93-19.45 545.73-19.5L545.73-19.5 545.73-19.95 550.73-21.55 550.73-18.8Q551.08-19.2 551.63-19.68 552.18-20.15 552.96-20.58 553.73-21 554.76-21.28 555.78-21.55 557.18-21.55L557.18-21.55Q559.53-21.55 561.18-20.75 562.83-19.95 563.88-18.68 564.93-17.4 565.41-15.88 565.88-14.35 565.88-12.9L565.88-12.9ZM582.78 9.3L582.78 9.3Q584.28 9.3 585.63 9.03 586.98 8.75 588 8.25 589.03 7.75 589.63 7.05 590.23 6.35 590.23 5.55L590.23 5.55Q590.23 4.7 589.4 4.1 588.58 3.5 587.18 3.05 585.78 2.6 583.93 2.27 582.08 1.95 580.08 1.6L580.08 1.6 577.53 1.15Q576.38 2.05 575.93 3.05 575.48 4.05 575.48 4.8L575.48 4.8Q575.48 5.85 576.05 6.68 576.63 7.5 577.6 8.1 578.58 8.7 579.9 9 581.23 9.3 582.78 9.3ZM579.28-1.7L585.53-0.7Q587.53-0.4 588.85 0.1 590.18 0.6 590.98 1.28 591.78 1.95 592.08 2.78 592.38 3.6 592.38 4.55L592.38 4.55Q592.38 6.25 591.45 7.5 590.53 8.75 589.05 9.58 587.58 10.4 585.7 10.8 583.83 11.2 581.88 11.2L581.88 11.2Q579.98 11.2 578.23 10.83 576.48 10.45 575.13 9.7 573.78 8.95 572.98 7.83 572.18 6.7 572.18 5.25L572.18 5.25Q572.18 3.95 572.98 2.78 573.78 1.6 575.58 0.45L575.58 0.45Q573.83-0.45 572.9-1.98 571.98-3.5 571.98-5.1L571.98-5.1Q571.98-6.05 572.43-6.98 572.88-7.9 573.88-8.7L573.88-8.7Q573.03-9.7 572.68-10.7 572.33-11.7 572.33-12.85L572.33-12.85Q572.33-14.65 573.08-16.2 573.83-17.75 575.13-18.9 576.43-20.05 578.18-20.7 579.93-21.35 581.93-21.35L581.93-21.35Q584.03-21.35 585.93-20.63 587.83-19.9 589.13-18.75L589.13-18.75 592.73-18.75 592.73-16.95 590.43-16.95Q590.78-16.2 591.13-15.18 591.48-14.15 591.48-13.05L591.48-13.05Q591.48-11.45 590.73-10.03 589.98-8.6 588.65-7.53 587.33-6.45 585.55-5.83 583.78-5.2 581.78-5.2L581.78-5.2Q579.93-5.2 578.18-5.75 576.43-6.3 575.08-7.35L575.08-7.35Q574.53-7 574.33-6.48 574.13-5.95 574.13-5.4L574.13-5.4Q574.13-3.8 575.58-2.93 577.03-2.05 579.28-1.7L579.28-1.7ZM581.33-19.6L581.33-19.6Q580.13-19.6 579.08-19.18 578.03-18.75 577.23-18 576.43-17.25 575.95-16.18 575.48-15.1 575.48-13.75L575.48-13.75Q575.48-12.1 576.15-10.8 576.83-9.5 577.88-8.65 578.93-7.8 580.2-7.35 581.48-6.9 582.63-6.9L582.63-6.9Q583.88-6.9 584.9-7.38 585.93-7.85 586.68-8.68 587.43-9.5 587.83-10.6 588.23-11.7 588.23-12.9L588.23-12.9Q588.23-14.4 587.63-15.65 587.03-16.9 586.05-17.78 585.08-18.65 583.83-19.13 582.58-19.6 581.33-19.6ZM610.12 0L610.12-0.5 610.37-0.5Q610.72-0.5 611.02-0.8 611.32-1.1 611.55-1.5 611.77-1.9 611.87-2.38 611.97-2.85 611.97-3.25L611.97-3.25 611.97-29.85Q611.97-30.2 611.87-30.65 611.77-31.1 611.55-31.53 611.32-31.95 611-32.23 610.67-32.5 610.27-32.5L610.27-32.5 610.02-32.5 610.02-33 618.22-33Q622.87-33 625.5-30.95 628.12-28.9 628.12-25.5L628.12-25.5Q628.12-24.05 627.62-22.9 627.12-21.75 626.35-20.85 625.57-19.95 624.67-19.33 623.77-18.7 622.97-18.3L622.97-18.3Q625.07-17.9 626.47-16.95 627.87-16 628.75-14.78 629.62-13.55 629.97-12.15 630.32-10.75 630.32-9.4L630.32-9.4Q630.32-6.8 629.37-5.03 628.42-3.25 626.85-2.13 625.27-1 623.25-0.5 621.22 0 619.07 0L619.07 0 610.12 0ZM626.92-8.55L626.92-9.1Q626.52-12.95 624.32-15.05 622.12-17.15 618.12-17.15L618.12-17.15 615.32-17.15 615.32-1.65 618.22-1.65Q622.27-1.65 624.6-3.48 626.92-5.3 626.92-8.55L626.92-8.55ZM624.87-24.7L624.87-25.05Q624.72-27.95 622.85-29.65 620.97-31.35 617.82-31.35L617.82-31.35 615.32-31.35 615.32-18.75 617.92-18.75Q620.02-18.75 621.35-19.3 622.67-19.85 623.47-20.73 624.27-21.6 624.57-22.65 624.87-23.7 624.87-24.7L624.87-24.7ZM648.27-20.4L646.77-17.35Q646.17-18.35 645.52-18.6 644.87-18.85 644.02-18.85L644.02-18.85Q643.47-18.85 642.85-18.6 642.22-18.35 641.62-17.95 641.02-17.55 640.45-17.07 639.87-16.6 639.47-16.2L639.47-16.2 639.47-3.2Q639.47-2.8 639.57-2.35 639.67-1.9 639.9-1.48 640.12-1.05 640.4-0.78 640.67-0.5 641.07-0.5L641.07-0.5 641.07 0 634.57 0 634.57-0.5Q634.92-0.5 635.22-0.78 635.52-1.05 635.75-1.48 635.97-1.9 636.07-2.35 636.17-2.8 636.17-3.2L636.17-3.2 636.17-17.15Q636.17-17.85 635.72-18.55 635.27-19.25 634.42-19.45L634.42-19.45 634.42-19.85 639.47-21.35 639.47-18.35Q639.92-18.9 640.42-19.43 640.92-19.95 641.55-20.38 642.17-20.8 642.92-21.08 643.67-21.35 644.67-21.35L644.67-21.35Q645.37-21.35 646.47-21.05 647.57-20.75 648.27-20.4L648.27-20.4ZM658.62 0L652.12 0 652.12-0.5Q652.52-0.5 652.82-0.8 653.12-1.1 653.32-1.5 653.52-1.9 653.62-2.38 653.72-2.85 653.72-3.25L653.72-3.25 653.72-17.1Q653.72-17.95 653.47-18.73 653.22-19.5 652.02-19.55L652.02-19.55 652.02-20 657.02-21.6 657.02-3.25Q657.02-2.85 657.12-2.38 657.22-1.9 657.42-1.5 657.62-1.1 657.92-0.8 658.22-0.5 658.62-0.5L658.62-0.5 658.62 0ZM652.37-26.4L652.37-26.4Q652.37-27.4 653.04-28.1 653.72-28.8 654.72-28.8L654.72-28.8Q655.72-28.8 656.42-28.1 657.12-27.4 657.12-26.4L657.12-26.4Q657.12-25.4 656.42-24.75 655.72-24.1 654.72-24.1L654.72-24.1Q653.72-24.1 653.04-24.75 652.37-25.4 652.37-26.4ZM670.72 0L664.17 0 664.17-0.5Q664.57-0.5 664.87-0.8 665.17-1.1 665.39-1.5 665.62-1.9 665.72-2.38 665.82-2.85 665.82-3.25L665.82-3.25 665.82-28.85Q665.82-29.7 665.57-30.45 665.32-31.2 664.07-31.25L664.07-31.25 664.07-31.75 669.12-33.3 669.12-3.25Q669.12-2.85 669.22-2.38 669.32-1.9 669.54-1.5 669.77-1.1 670.04-0.8 670.32-0.5 670.72-0.5L670.72-0.5 670.72 0ZM682.26 0L675.71 0 675.71-0.5Q676.11-0.5 676.41-0.8 676.71-1.1 676.94-1.5 677.16-1.9 677.26-2.38 677.36-2.85 677.36-3.25L677.36-3.25 677.36-28.85Q677.36-29.7 677.11-30.45 676.86-31.2 675.61-31.25L675.61-31.25 675.61-31.75 680.66-33.3 680.66-3.25Q680.66-2.85 680.76-2.38 680.86-1.9 681.09-1.5 681.31-1.1 681.59-0.8 681.86-0.5 682.26-0.5L682.26-0.5 682.26 0ZM694.26 0L687.76 0 687.76-0.5Q688.16-0.5 688.46-0.8 688.76-1.1 688.96-1.5 689.16-1.9 689.26-2.38 689.36-2.85 689.36-3.25L689.36-3.25 689.36-17.1Q689.36-17.95 689.11-18.73 688.86-19.5 687.66-19.55L687.66-19.55 687.66-20 692.66-21.6 692.66-3.25Q692.66-2.85 692.76-2.38 692.86-1.9 693.06-1.5 693.26-1.1 693.56-0.8 693.86-0.5 694.26-0.5L694.26-0.5 694.26 0ZM688.01-26.4L688.01-26.4Q688.01-27.4 688.69-28.1 689.36-28.8 690.36-28.8L690.36-28.8Q691.36-28.8 692.06-28.1 692.76-27.4 692.76-26.4L692.76-26.4Q692.76-25.4 692.06-24.75 691.36-24.1 690.36-24.1L690.36-24.1Q689.36-24.1 688.69-24.75 688.01-25.4 688.01-26.4ZM717.66 0L712.81 0 712.81-2.55 712.56-2.3Q711.31-1.05 709.68-0.35 708.06 0.35 705.76 0.35L705.76 0.35Q704.01 0.35 702.76-0.05 701.51-0.45 700.71-1.18 699.91-1.9 699.53-2.85 699.16-3.8 699.16-4.85L699.16-4.85Q699.16-6.55 700.08-7.85 701.01-9.15 702.76-10.15 704.51-11.15 707.03-11.98 709.56-12.8 712.81-13.6L712.81-13.6Q712.71-15.55 712.01-16.75 711.31-17.95 710.36-18.63 709.41-19.3 708.36-19.53 707.31-19.75 706.56-19.75L706.56-19.75Q705.26-19.75 704.28-19.35 703.31-18.95 702.58-18.32 701.86-17.7 701.36-16.98 700.86-16.25 700.56-15.6L700.56-15.6 700.11-15.6 700.11-19.25Q700.51-19.3 700.86-19.5 701.21-19.7 701.71-19.9L701.71-19.9Q702.46-20.2 703.76-20.78 705.06-21.35 707.41-21.35L707.41-21.35Q710.16-21.35 711.86-20.65 713.56-19.95 714.48-18.8 715.41-17.65 715.71-16.18 716.01-14.7 716.01-13.15L716.01-13.15 716.01-3.25Q716.01-2.25 716.46-1.38 716.91-0.5 717.66-0.5L717.66-0.5 717.66 0ZM712.26-4.15L712.81-4.75 712.81-11.9 712.31-11.8Q711.11-11.5 709.38-11 707.66-10.5 706.11-9.7 704.56-8.9 703.46-7.8 702.36-6.7 702.36-5.25L702.36-5.25Q702.36-3.65 703.66-2.6 704.96-1.55 707.06-1.55L707.06-1.55Q708.71-1.55 709.96-2.27 711.21-3 712.26-4.15L712.26-4.15ZM742.56-12.9L742.56-3.25Q742.56-2.85 742.66-2.38 742.76-1.9 742.98-1.5 743.21-1.1 743.48-0.8 743.76-0.5 744.16-0.5L744.16-0.5 744.16 0 737.71 0 737.71-0.5Q738.06-0.5 738.36-0.8 738.66-1.1 738.88-1.5 739.11-1.9 739.21-2.38 739.31-2.85 739.31-3.25L739.31-3.25 739.31-12.55Q739.31-14.35 738.81-15.7 738.31-17.05 737.46-17.95 736.61-18.85 735.53-19.28 734.46-19.7 733.36-19.7L733.36-19.7Q732.26-19.7 731.18-19.25 730.11-18.8 729.28-18.07 728.46-17.35 727.93-16.38 727.41-15.4 727.41-14.35L727.41-14.35 727.41-3.25Q727.41-2.85 727.51-2.38 727.61-1.9 727.83-1.5 728.06-1.1 728.33-0.8 728.61-0.5 729.01-0.5L729.01-0.5 729.01 0 722.51 0 722.51-0.5Q722.86-0.5 723.16-0.8 723.46-1.1 723.68-1.5 723.91-1.9 724.01-2.38 724.11-2.85 724.11-3.25L724.11-3.25 724.11-17.05Q724.11-17.9 723.86-18.68 723.61-19.45 722.41-19.5L722.41-19.5 722.41-19.95 727.41-21.55 727.41-18.8Q727.76-19.2 728.31-19.68 728.86-20.15 729.63-20.58 730.41-21 731.43-21.28 732.46-21.55 733.86-21.55L733.86-21.55Q736.21-21.55 737.86-20.75 739.51-19.95 740.56-18.68 741.61-17.4 742.08-15.88 742.56-14.35 742.56-12.9L742.56-12.9ZM767.5-5.7L767.5-1.8Q767.1-1.8 766.75-1.63 766.4-1.45 765.95-1.2L765.95-1.2Q765.1-0.7 763.8-0.18 762.5 0.35 760.4 0.35L760.4 0.35Q757.85 0.35 755.68-0.48 753.5-1.3 751.93-2.78 750.35-4.25 749.48-6.23 748.6-8.2 748.6-10.5L748.6-10.5Q748.6-12.65 749.38-14.6 750.15-16.55 751.6-18.05 753.05-19.55 755.18-20.45 757.3-21.35 760-21.35L760-21.35Q761.85-21.35 763-20.93 764.15-20.5 764.95-20.1L764.95-20.1Q765.4-19.85 765.83-19.7 766.25-19.55 766.7-19.55L766.7-19.55 766.7-15.75 766.2-15.75Q765.95-16.7 765.3-17.43 764.65-18.15 763.8-18.65 762.95-19.15 761.95-19.4 760.95-19.65 760-19.65L760-19.65Q757.95-19.65 756.4-18.93 754.85-18.2 753.85-17.03 752.85-15.85 752.35-14.35 751.85-12.85 751.85-11.25L751.85-11.25Q751.85-9.4 752.45-7.63 753.05-5.85 754.18-4.45 755.3-3.05 756.9-2.2 758.5-1.35 760.5-1.35L760.5-1.35Q761.9-1.35 763.08-1.75 764.25-2.15 765.08-2.8 765.9-3.45 766.4-4.23 766.9-5 767-5.7L767-5.7 767.5-5.7ZM790.95-10.1L773.6-10.1Q773.8-8.35 774.45-6.78 775.1-5.2 776.18-4 777.25-2.8 778.8-2.08 780.35-1.35 782.4-1.35L782.4-1.35Q783.5-1.35 784.73-1.68 785.95-2 787-2.6 788.05-3.2 788.88-4.08 789.7-4.95 790-6.05L790-6.05 790.45-6.05 790.45-2.3Q790.15-2.3 789.78-2.1 789.4-1.9 788.9-1.6L788.9-1.6Q787.9-1 786.2-0.33 784.5 0.35 781.7 0.35L781.7 0.35Q779.45 0.35 777.43-0.3 775.4-0.95 773.85-2.3 772.3-3.65 771.38-5.75 770.45-7.85 770.45-10.75L770.45-10.75Q770.45-12.6 771.08-14.5 771.7-16.4 772.98-17.93 774.25-19.45 776.25-20.4 778.25-21.35 781.05-21.35L781.05-21.35Q783.55-21.35 785.43-20.5 787.3-19.65 788.53-18.15 789.75-16.65 790.35-14.6 790.95-12.55 790.95-10.1L790.95-10.1ZM780.85-19.7L780.85-19.7Q779.1-19.7 777.83-19 776.55-18.3 775.65-17.2 774.75-16.1 774.25-14.7 773.75-13.3 773.6-11.9L773.6-11.9 787.85-11.9Q787.8-13.35 787.33-14.75 786.85-16.15 786-17.25 785.15-18.35 783.85-19.03 782.55-19.7 780.85-19.7Z" opacity="1" transform="matrix(1,0,0,1,0,0)" fill="#ffffff" class="slogan-text-1" data-fill-palette-color="quaternary" id="text-1"></path></svg></g></svg></g></svg></g></svg></g><g transform="matrix(1,0,0,1,68.97270493457721,0)"><svg viewBox="0 0 66.8545901308456 66.8545901308456" height="66.8545901308456" width="66.8545901308456"><g><svg xmlns="http://www.w3.org/2000/svg" data-name="Layer 1" viewBox="1 1 48 48" x="0" y="0" height="66.8545901308456" width="66.8545901308456" class="icon-icon-0" data-fill-palette-color="quaternary" id="icon-0"><path d="M22 1H2A1 1 0 0 0 1 2V22a1 1 0 0 0 1 1H22a1 1 0 0 0 1-1V2A1 1 0 0 0 22 1ZM21 21H3V3H21V21ZM7 12a1 1 0 0 1 1-1h3V8a1 1 0 0 1 2 0v3h3a1 1 0 0 1 0 2H13v3a1 1 0 0 1-2 0V13H8A1 1 0 0 1 7 12ZM48 1H28a1 1 0 0 0-1 1V22a1 1 0 0 0 1 1H48a1 1 0 0 0 1-1V2A1 1 0 0 0 48 1ZM47 21H29V3H47V21ZM33 12a1 1 0 0 1 1-1h8a1 1 0 0 1 0 2H34A1 1 0 0 1 33 12ZM22 27H2a1 1 0 0 0-1 1V48a1 1 0 0 0 1 1H22a1 1 0 0 0 1-1V28A1 1 0 0 0 22 27ZM21 47H3V29H21V47ZM8.46 40.12L10.59 38 8.46 35.88a1 1 0 0 1 1.42-1.42L12 36.59l2.12-2.13a1 1 0 0 1 1.42 1.42L13.41 38l2.13 2.12a1 1 0 0 1 0 1.42 1 1 0 0 1-0.71 0.29 1 1 0 0 1-0.71-0.29L12 39.41 9.88 41.54a1 1 0 0 1-0.71 0.29 1 1 0 0 1-0.71-0.29A1 1 0 0 1 8.46 40.12ZM48 27H28a1 1 0 0 0-1 1V48a1 1 0 0 0 1 1H48a1 1 0 0 0 1-1V28A1 1 0 0 0 48 27ZM47 47H29V29H47V47ZM33 39a1 1 0 0 1 1-1h8a1 1 0 0 1 0 2H34A1 1 0 0 1 33 39Zm4-4a1 1 0 1 1 1 1A1 1 0 0 1 37 35Zm2 8a1 1 0 1 1-1-1A1 1 0 0 1 39 43Z" fill="#ffffff" data-fill-palette-color="quaternary"></path></svg></g></svg></g><g></g></svg></g></svg></g></svg></g></svg></g><defs></defs></svg><rect width="512" height="320" fill="none" stroke="none" visibility="hidden"></rect></g></svg></g></svg>