<svg xmlns="http://www.w3.org/2000/svg" version="1.1" xmlns:xlink="http://www.w3.org/1999/xlink" xmlns:svgjs="http://svgjs.dev/svgjs" width="1000" height="625" viewBox="0 0 1000 625"><g transform="matrix(1,0,0,1,0,0)"><svg viewBox="0 0 512 320" data-background-color="#ffffff" preserveAspectRatio="xMidYMid meet" height="625" width="1000" xmlns="http://www.w3.org/2000/svg" xmlns:xlink="http://www.w3.org/1999/xlink"><g id="tight-bounds" transform="matrix(1,0,0,1,0,0)"><svg viewBox="0 0 512 320" height="320" width="512"><g><svg></svg></g><g><svg viewBox="0 0 512 320" height="320" width="512"><g><path transform="translate(256,160) scale(160,160)" d="M-1 0c0-0.552 0.448-1 1-1 0.552 0 1 0.448 1 1 0 0.552-0.448 1-1 1-0.552 0-1-0.448-1-1z" fill="#233565" fill-rule="nonzero" stroke="none" stroke-width="1" stroke-linecap="butt" stroke-linejoin="miter" stroke-miterlimit="10" stroke-dasharray="" stroke-dashoffset="0" font-family="none" font-weight="none" font-size="none" text-anchor="none" style="mix-blend-mode: normal" data-fill-palette-color="tertiary"></path></g><g transform="matrix(1,0,0,1,207.56910270604467,80)"><svg viewBox="0 0 96.86179458791065 160" height="160" width="96.86179458791065"><g><svg viewBox="0 0 96.86179458791065 160" height="160" width="96.86179458791065"><g><svg viewBox="0 0 253.1328 418.1343962530194" height="160" width="96.86179458791065"><g transform="matrix(1,0,0,1,24.166399999999996,264.4652212274309)"><svg viewBox="0 0 204.8 153.66917502558854" height="153.66917502558854" width="204.8"><g id="textblocktransform"><svg viewBox="0 0 204.8 153.66917502558854" height="153.66917502558854" width="204.8" id="textblock"><g><svg viewBox="0 0 204.8 153.66917502558854" height="153.66917502558854" width="204.8"><g transform="matrix(1,0,0,1,0,0)"><svg width="204.8" viewBox="96.72999999999999 -32.52 190.81999999999996 138.81" height="153.66917502558854" data-palette-color="#ffffff"><svg></svg><svg></svg><svg></svg><g class="wordmark-text-0" data-fill-palette-color="quaternary" id="text-0"><path transform="translate(124.61,0)" d="M8.15-0.15v0c-0.973 0-2.013 0.027-3.12 0.08-1.107 0.047-1.97 0.103-2.59 0.17v0l-0.98 0.05c-0.093-0.1-0.14-0.36-0.14-0.78v0c0-0.553 0.047-0.83 0.14-0.83v0c0.427 0 1.047-0.107 1.86-0.32 0.813-0.213 1.287-0.467 1.42-0.76v0c0.227-0.68 0.34-2.16 0.34-4.44v0-18.46c0-1.953-0.113-3.287-0.34-4v0c-0.1-0.36-0.557-0.653-1.37-0.88-0.813-0.227-1.463-0.34-1.95-0.34v0c-0.133 0-0.2-0.247-0.2-0.74v0c0-0.453 0.067-0.747 0.2-0.88v0c2.113 0.133 4.26 0.2 6.44 0.2v0c1.533 0.033 4.113-0.017 7.74-0.15 3.627-0.127 6.303-0.19 8.03-0.19v0c0.133 0.973 0.393 2.333 0.78 4.08 0.393 1.74 0.607 2.69 0.64 2.85v0c-0.167 0.167-0.51 0.25-1.03 0.25v0c-0.353 0-0.58-0.117-0.68-0.35v0c-1.073-2.893-3.157-4.34-6.25-4.34v0h-2.54c-2.407 0-3.643 0.21-3.71 0.63v0c-0.16 0.78-0.24 2.1-0.24 3.96v0 7.66c0 0.2 0.713 0.3 2.14 0.3v0h2.49c0.033 0 0.1 0 0.2 0v0c1.887 0 3.01-0.083 3.37-0.25 0.36-0.16 0.637-0.73 0.83-1.71v0c0.1-0.487 0.197-0.893 0.29-1.22v0c0.033-0.227 0.293-0.34 0.78-0.34v0c0.46 0 0.77 0.083 0.93 0.25v0 9.22c-0.127 0.133-0.437 0.2-0.93 0.2v0c-0.42 0-0.68-0.13-0.78-0.39v0c-0.227-0.88-0.43-1.53-0.61-1.95-0.18-0.427-0.293-0.657-0.34-0.69-0.047-0.033-0.187-0.13-0.42-0.29v0c-0.42-0.26-1.917-0.39-4.49-0.39v0c-2.307 0-3.46 0.13-3.46 0.39v0 7.67c0 1.753 0.177 3.103 0.53 4.05v0c0.133 0.327 0.72 0.637 1.76 0.93 1.04 0.293 1.74 0.44 2.1 0.44v0c0.16 0 0.24 0.277 0.24 0.83v0c0 0.387-0.047 0.647-0.14 0.78v0c-3.907-0.2-6.22-0.3-6.94-0.3zM31.2-27.37c-0.587-0.6-0.88-1.317-0.88-2.15 0-0.827 0.293-1.533 0.88-2.12 0.587-0.587 1.303-0.88 2.15-0.88 0.847 0 1.563 0.293 2.15 0.88 0.587 0.587 0.88 1.293 0.88 2.12 0 0.833-0.293 1.55-0.88 2.15-0.587 0.607-1.303 0.91-2.15 0.91-0.847 0-1.563-0.303-2.15-0.91zM36.28-16.31v9.38c0 1.98 0.13 3.443 0.39 4.39v0c0.067 0.227 0.507 0.463 1.32 0.71 0.813 0.247 1.367 0.37 1.66 0.37v0c0.127 0 0.2 0.233 0.22 0.7 0.013 0.473-0.013 0.793-0.08 0.96v0c-0.227-0.033-1.097-0.1-2.61-0.2-1.513-0.1-2.627-0.15-3.34-0.15v0c-0.813 0-1.96 0.05-3.44 0.15-1.487 0.1-2.343 0.167-2.57 0.2v0c-0.127-0.133-0.19-0.443-0.19-0.93 0-0.487 0.063-0.73 0.19-0.73v0c0.36 0 0.947-0.123 1.76-0.37 0.813-0.247 1.253-0.483 1.32-0.71v0c0.227-0.973 0.34-2.16 0.34-3.56v0-7.96c0-1.533-0.26-2.577-0.78-3.13v0c-0.293-0.327-0.667-0.57-1.12-0.73-0.46-0.16-0.853-0.257-1.18-0.29-0.32-0.033-0.48-0.083-0.48-0.15v0c0-0.947 0.097-1.433 0.29-1.46v0c0.913-0.067 2.23-0.263 3.95-0.59 1.727-0.327 3.013-0.62 3.86-0.88v0c0.033 0 0.107-0.017 0.22-0.05 0.113-0.033 0.17-0.05 0.17-0.05v0c0.167 0 0.297 0.117 0.39 0.35 0.1 0.227 0.133 0.403 0.1 0.53v0c-0.26 2.087-0.39 3.487-0.39 4.2zM58.2-21.58v0c4.2 0 6.3 3.337 6.3 10.01v0 4.64c0 1.98 0.113 3.443 0.34 4.39v0c0.067 0.227 0.517 0.463 1.35 0.71 0.827 0.247 1.387 0.37 1.68 0.37v0c0.1 0 0.157 0.233 0.17 0.7 0.02 0.473-0.003 0.793-0.07 0.96v0c-0.193-0.033-1.047-0.1-2.56-0.2-1.52-0.1-2.653-0.15-3.4-0.15v0c-0.78 0-1.863 0.05-3.25 0.15-1.38 0.1-2.217 0.167-2.51 0.2v0c-0.133-0.133-0.2-0.443-0.2-0.93 0-0.487 0.067-0.73 0.2-0.73v0c0.36 0 0.907-0.123 1.64-0.37 0.727-0.247 1.123-0.483 1.19-0.71v0c0.26-0.973 0.39-2.16 0.39-3.56v0-4.64c0-2.7-0.367-4.59-1.1-5.67-0.727-1.073-1.89-1.61-3.49-1.61v0c-1.04 0-1.95 0.287-2.73 0.86-0.78 0.567-1.17 1.177-1.17 1.83v0 8.4c0 1.98 0.113 3.443 0.34 4.39v0c0.067 0.227 0.497 0.463 1.29 0.71 0.8 0.247 1.33 0.37 1.59 0.37v0c0.127 0 0.2 0.233 0.22 0.7 0.013 0.473-0.01 0.793-0.07 0.96v0c-0.26-0.033-1.117-0.1-2.57-0.2-1.447-0.1-2.543-0.15-3.29-0.15v0c-0.787 0-1.92 0.05-3.4 0.15-1.48 0.1-2.35 0.167-2.61 0.2v0c-0.127-0.133-0.19-0.443-0.19-0.93 0-0.487 0.063-0.73 0.19-0.73v0c0.393 0 0.987-0.123 1.78-0.37 0.8-0.247 1.233-0.483 1.3-0.71v0c0.227-0.973 0.34-2.16 0.34-3.56v0-7.96c0-1.533-0.26-2.577-0.78-3.13v0c-0.26-0.327-0.627-0.57-1.1-0.73-0.473-0.16-0.863-0.257-1.17-0.29-0.313-0.033-0.47-0.083-0.47-0.15v0c0-0.947 0.083-1.433 0.25-1.46v0c1.493-0.133 4.113-0.623 7.86-1.47v0c0.033-0.033 0.073-0.057 0.12-0.07 0.047-0.02 0.097-0.03 0.15-0.03 0.047 0 0.087 0 0.12 0v0c0.127 0 0.24 0.117 0.34 0.35 0.1 0.227 0.15 0.403 0.15 0.53v0c-0.133 0.913-0.2 1.5-0.2 1.76v0c0 0.133 0.017 0.213 0.05 0.24v0c0.033 0 0.113-0.047 0.24-0.14v0c0.787-0.78 1.79-1.463 3.01-2.05 1.22-0.587 2.463-0.88 3.73-0.88zM86.82 4.05v0c0-1.14-0.823-1.897-2.47-2.27-1.647-0.373-3.853-0.56-6.62-0.56v0c-0.06 0-0.14 0.017-0.24 0.05v0c-0.067 0.033-0.147 0.083-0.24 0.15v0c-0.427 0.16-0.753 0.297-0.98 0.41-0.227 0.113-0.487 0.293-0.78 0.54-0.293 0.24-0.513 0.523-0.66 0.85-0.147 0.327-0.22 0.717-0.22 1.17v0c0 1.173 0.617 2.15 1.85 2.93 1.24 0.787 2.627 1.18 4.16 1.18v0c1.82 0 3.307-0.423 4.46-1.27 1.16-0.847 1.74-1.907 1.74-3.18zM76.37-14.4v0c0 1.593 0.323 2.933 0.97 4.02 0.653 1.093 1.567 1.64 2.74 1.64v0c1.2 0 2.087-0.463 2.66-1.39 0.567-0.927 0.85-2.073 0.85-3.44v0c0-1.727-0.323-3.127-0.97-4.2-0.653-1.073-1.597-1.61-2.83-1.61v0c-1.173 0-2.037 0.503-2.59 1.51-0.553 1.007-0.83 2.163-0.83 3.47zM80.08-21.48v0c1.173 0 2.523 0.21 4.05 0.63 1.533 0.427 2.837 0.64 3.91 0.64v0h2.78c0.067 0 0.18 0.21 0.34 0.63 0.167 0.42 0.25 0.747 0.25 0.98v0c0 0.453-0.1 0.68-0.3 0.68v0h-3.17c-0.133 0-0.2 0.05-0.2 0.15v0c0 0.033 0.147 0.457 0.44 1.27 0.293 0.813 0.44 1.593 0.44 2.34v0c0 1.92-0.803 3.653-2.41 5.2-1.613 1.547-3.623 2.32-6.03 2.32v0c-1.173 0-2.183-0.067-3.03-0.2v0c-0.393 0.167-0.753 0.47-1.08 0.91-0.32 0.44-0.48 0.837-0.48 1.19v0c0 0.327 0.153 0.603 0.46 0.83 0.307 0.233 0.787 0.397 1.44 0.49 0.653 0.1 1.207 0.167 1.66 0.2 0.453 0.033 1.103 0.063 1.95 0.09v0c0.36 0 0.607 0 0.74 0v0c3.253 0.1 5.637 0.55 7.15 1.35 1.513 0.793 2.27 1.99 2.27 3.59v0c0.033 2.44-1.14 4.553-3.52 6.34-2.373 1.793-5.123 2.69-8.25 2.69v0c-2.373 0.033-4.447-0.423-6.22-1.37-1.773-0.94-2.66-2.273-2.66-4v0c0-0.947 0.463-1.86 1.39-2.74 0.927-0.873 1.927-1.49 3-1.85v0c-0.847-0.26-1.627-0.757-2.34-1.49-0.72-0.733-1.08-1.587-1.08-2.56v0c0-1.4 1.207-2.85 3.62-4.35v0c-0.947-0.42-1.827-1.257-2.64-2.51-0.813-1.253-1.22-2.58-1.22-3.98v0c0-2.313 0.847-4.137 2.54-5.47 1.693-1.333 3.76-2 6.2-2zM103.71-19.34v0c-0.78 0-1.48 0.23-2.1 0.69-0.62 0.453-1.09 1.007-1.41 1.66-0.327 0.647-0.563 1.257-0.71 1.83-0.147 0.567-0.22 1.047-0.22 1.44v0c0 0.227 0.097 0.34 0.29 0.34v0h7.91c0.293 0 0.44-0.243 0.44-0.73v0c0-1.14-0.383-2.297-1.15-3.47-0.76-1.173-1.777-1.76-3.05-1.76zM104.05-21.58v0c1.533 0 2.9 0.3 4.1 0.9 1.207 0.6 2.153 1.367 2.84 2.3 0.68 0.927 1.2 1.887 1.56 2.88 0.36 0.993 0.54 1.943 0.54 2.85v0c0 0.72-0.123 1.17-0.37 1.35-0.247 0.173-0.743 0.26-1.49 0.26v0h-11.67c-0.227 0-0.34 0.1-0.34 0.3v0c0 1.173 0.21 2.313 0.63 3.42 0.427 1.107 1.153 2.067 2.18 2.88 1.02 0.813 2.247 1.22 3.68 1.22v0c0.493 0 0.967-0.027 1.42-0.08 0.453-0.047 0.877-0.127 1.27-0.24 0.387-0.113 0.727-0.22 1.02-0.32 0.293-0.093 0.597-0.24 0.91-0.44 0.307-0.193 0.527-0.33 0.66-0.41 0.127-0.08 0.32-0.21 0.58-0.39 0.26-0.18 0.39-0.27 0.39-0.27v0c0.067 0.033 0.15 0.13 0.25 0.29 0.093 0.167 0.14 0.33 0.14 0.49v0c0 0.36-0.097 0.67-0.29 0.93v0c-0.487 0.88-1.447 1.757-2.88 2.63-1.433 0.88-3.043 1.32-4.83 1.32v0c-2.833 0-5.277-1.05-7.33-3.15-2.047-2.1-3.07-4.647-3.07-7.64v0c0-3.287 0.95-5.957 2.85-8.01 1.907-2.047 4.323-3.07 7.25-3.07zM129.64-21.58v0c1.787 0 3.12 0.537 4 1.61v0c0 2.767-0.78 4.15-2.34 4.15v0c-0.587 0-1.223-0.327-1.91-0.98-0.68-0.647-1.38-0.97-2.1-0.97v0c-1.007 0-1.793 0.51-2.36 1.53-0.573 1.027-0.86 2.093-0.86 3.2v0 6.11c0 1.98 0.113 3.443 0.34 4.39v0c0.067 0.227 0.5 0.463 1.3 0.71 0.793 0.247 1.337 0.37 1.63 0.37v0c0.1 0 0.157 0.233 0.17 0.7 0.02 0.473 0.013 0.793-0.02 0.96v0c-0.26-0.033-1.123-0.1-2.59-0.2-1.46-0.1-2.567-0.15-3.32-0.15v0c-0.78 0-1.91 0.05-3.39 0.15-1.48 0.1-2.35 0.167-2.61 0.2v0c-0.133-0.133-0.2-0.443-0.2-0.93 0-0.487 0.067-0.73 0.2-0.73v0c0.387 0 0.98-0.123 1.78-0.37 0.793-0.247 1.223-0.483 1.29-0.71v0c0.227-0.973 0.34-2.16 0.34-3.56v0-7.96c0-1.533-0.26-2.577-0.78-3.13v0c-0.26-0.327-0.627-0.57-1.1-0.73-0.467-0.16-0.857-0.257-1.17-0.29-0.307-0.033-0.46-0.083-0.46-0.15v0c0-0.947 0.08-1.433 0.24-1.46v0c1.5-0.133 4.12-0.623 7.86-1.47v0c0 0 0.057-0.017 0.17-0.05 0.12-0.033 0.193-0.05 0.22-0.05v0c0.133 0 0.25 0.117 0.35 0.35 0.093 0.227 0.133 0.413 0.12 0.56-0.02 0.147-0.043 0.373-0.07 0.68-0.033 0.307-0.077 0.633-0.13 0.98-0.047 0.34-0.07 0.56-0.07 0.66v0c0.587-0.88 1.383-1.67 2.39-2.37 1.013-0.7 2.04-1.05 3.08-1.05z" fill="#ffffff" fill-rule="nonzero" stroke="none" stroke-width="1" stroke-linecap="butt" stroke-linejoin="miter" stroke-miterlimit="10" stroke-dasharray="" stroke-dashoffset="0" font-family="none" font-weight="none" font-size="none" text-anchor="none" style="mix-blend-mode: normal" data-fill-palette-color="quaternary" opacity="1"></path><path transform="translate(117.24,47.73)" d="M19.09-32.23v0l10.26 25.59c0.487 1.3 0.973 2.487 1.46 3.56v0c0.193 0.493 0.713 0.887 1.56 1.18 0.847 0.293 1.467 0.44 1.86 0.44v0c0.127 0 0.19 0.29 0.19 0.87v0c0 0.393-0.03 0.64-0.09 0.74v0c-3.907-0.2-5.96-0.3-6.16-0.3v0c-0.227 0-2.34 0.1-6.34 0.3v0c-0.133-0.133-0.2-0.437-0.2-0.91 0-0.467 0.067-0.7 0.2-0.7v0c0.387 0 0.923-0.1 1.61-0.3 0.68-0.193 1.087-0.42 1.22-0.68v0c0.093-0.193 0.14-0.407 0.14-0.64v0c0-0.647-0.307-1.77-0.92-3.37v0l-1.71-4.54c-0.133-0.127-0.247-0.19-0.34-0.19v0c-1.047-0.067-2.447-0.1-4.2-0.1-1.76 0-3.617 0.05-5.57 0.15v0c-0.193 0-0.29 0.063-0.29 0.19v0l-1.86 4.54c-0.62 1.693-0.93 2.753-0.93 3.18 0 0.42 0.18 0.743 0.54 0.97v0c0.293 0.2 0.807 0.38 1.54 0.54 0.733 0.167 1.23 0.25 1.49 0.25v0c0.1 0.027 0.15 0.253 0.15 0.68 0 0.42-0.033 0.73-0.1 0.93v0c-0.167 0-0.933-0.05-2.3-0.15-1.367-0.1-2.473-0.15-3.32-0.15-0.847 0-1.847 0.043-3 0.13-1.153 0.08-1.977 0.137-2.47 0.17v0c-0.127-0.133-0.19-0.38-0.19-0.74v0c0-0.58 0.033-0.87 0.1-0.87v0c0.387 0 1.013-0.14 1.88-0.42 0.86-0.273 1.403-0.59 1.63-0.95v0c0.62-0.98 1.24-2.25 1.86-3.81v0l9.08-21.97c0.747-1.953 1.35-3.127 1.81-3.52v0c0.26-0.227 0.537-0.34 0.83-0.34v0c0.227 0 0.42 0.08 0.58 0.24zM13.23-14.06v0c1.14 0.093 2.313 0.14 3.52 0.14v0c1.14 0 2.473-0.047 4-0.14v0l0.1-0.2-3.71-9.76-4.01 9.76c0 0.133 0.033 0.2 0.1 0.2zM49.71-21.58v0c2.013 0 3.827 0.513 5.44 1.54 1.613 1.02 2.833 2.32 3.66 3.9 0.833 1.58 1.25 3.217 1.25 4.91v0c0 3.187-1.13 5.913-3.39 8.18-2.267 2.26-4.88 3.39-7.84 3.39v0c-1.367 0-2.557-0.12-3.57-0.36-1.007-0.247-1.77-0.37-2.29-0.37v0c-0.293 0-0.717 0.113-1.27 0.34-0.553 0.227-0.88 0.34-0.98 0.34v0c-0.093 0-0.33-0.097-0.71-0.29-0.373-0.193-0.56-0.357-0.56-0.49v0c0-0.093 0.033-0.387 0.1-0.88 0.067-0.487 0.147-1.187 0.24-2.1 0.1-0.907 0.15-1.9 0.15-2.98v0-19.92c0-1.233-0.097-2.34-0.29-3.32v0c-0.167-0.52-1.013-0.78-2.54-0.78v0h-0.44c-0.193 0-0.29-0.26-0.29-0.78v0c0-0.52 0.097-0.78 0.29-0.78v0c1.007-0.1 1.967-0.23 2.88-0.39 0.913-0.167 1.67-0.33 2.27-0.49 0.6-0.16 1.12-0.323 1.56-0.49 0.44-0.16 0.783-0.28 1.03-0.36 0.247-0.087 0.37-0.13 0.37-0.13v0h0.09c0.133 0 0.263 0.09 0.39 0.27 0.133 0.18 0.217 0.35 0.25 0.51v0c-0.36 1.273-0.54 2.803-0.54 4.59v0 7.82 0.05c0 0.093 0 0.167 0 0.22 0 0.047 0.01 0.12 0.03 0.22 0.013 0.093 0.043 0.14 0.09 0.14 0.053 0 0.11-0.017 0.17-0.05v0c0.46-0.327 1.12-0.65 1.98-0.97 0.867-0.327 1.69-0.49 2.47-0.49zM48.63-18.95v0c-1.073 0-1.95 0.31-2.63 0.93-0.687 0.62-1.03 1.353-1.03 2.2v0 10.35c0 1.14 0.43 2.003 1.29 2.59 0.867 0.587 1.887 0.88 3.06 0.88v0c1.693 0 2.97-0.767 3.83-2.3 0.86-1.527 1.29-3.38 1.29-5.56v0c0-2.8-0.503-5.013-1.51-6.64-1.007-1.633-2.44-2.45-4.3-2.45zM70.95-2.83v0c0.88 0 1.637-0.23 2.27-0.69 0.633-0.453 0.95-0.973 0.95-1.56v0-4.98c-0.227 0.1-0.707 0.263-1.44 0.49-0.733 0.227-1.297 0.423-1.69 0.59-0.387 0.16-0.84 0.387-1.36 0.68-0.52 0.293-0.903 0.65-1.15 1.07-0.247 0.427-0.37 0.883-0.37 1.37v0c0 1.04 0.263 1.807 0.79 2.3 0.52 0.487 1.187 0.73 2 0.73zM73.14-21.58v0c2.02 0 3.537 0.527 4.55 1.58 1.007 1.06 1.51 2.877 1.51 5.45v0 9.62c0 0.647 0.147 1.143 0.44 1.49 0.293 0.34 0.683 0.51 1.17 0.51v0c0.487 0 1.04-0.21 1.66-0.63v0c0.193 0.06 0.29 0.237 0.29 0.53v0c0 0.653-0.097 1.143-0.29 1.47v0c-0.487 0.387-1.137 0.793-1.95 1.22-0.813 0.42-1.597 0.63-2.35 0.63v0c-0.747 0-1.477-0.277-2.19-0.83-0.72-0.553-1.193-1.153-1.42-1.8v0c-0.033 0.033-0.157 0.137-0.37 0.31-0.207 0.18-0.497 0.4-0.87 0.66-0.38 0.26-0.803 0.52-1.27 0.78-0.473 0.26-1.027 0.48-1.66 0.66-0.64 0.18-1.283 0.27-1.93 0.27v0c-1.627 0-2.953-0.447-3.98-1.34-1.027-0.893-1.54-2.123-1.54-3.69v0c0-0.78 0.187-1.51 0.56-2.19 0.373-0.687 0.82-1.25 1.34-1.69 0.527-0.44 1.227-0.87 2.1-1.29 0.88-0.427 1.637-0.747 2.27-0.96 0.64-0.207 1.457-0.457 2.45-0.75 0.987-0.293 1.677-0.507 2.07-0.64v0c0.293-0.127 0.44-0.387 0.44-0.78v0-2.68c0-1.14-0.26-2.037-0.78-2.69-0.52-0.653-1.22-0.98-2.1-0.98v0c-0.98 0-1.747 0.303-2.3 0.91-0.553 0.6-0.83 1.453-0.83 2.56v0c0 0.653-0.243 1.133-0.73 1.44-0.487 0.313-1.04 0.47-1.66 0.47v0c-1.207 0-2.053-0.393-2.54-1.18v0c0-1.56 1.067-3.023 3.2-4.39 2.133-1.367 4.37-2.05 6.71-2.05zM95.46-21.58v0c1.727 0 3.263 0.283 4.61 0.85 1.353 0.573 2.323 1.2 2.91 1.88v0c0 1.107-0.187 2.027-0.56 2.76-0.373 0.733-0.937 1.1-1.69 1.1v0c-0.62 0-1.117-0.163-1.49-0.49-0.373-0.327-0.753-0.863-1.14-1.61v0c-0.753-1.5-1.847-2.25-3.28-2.25v0c-1.4 0-2.513 0.71-3.34 2.13-0.833 1.413-1.25 3.193-1.25 5.34v0c0 2.933 0.603 5.107 1.81 6.52 1.207 1.42 2.737 2.13 4.59 2.13v0c0.487 0 0.96-0.027 1.42-0.08 0.453-0.047 0.877-0.127 1.27-0.24 0.387-0.113 0.727-0.22 1.02-0.32 0.293-0.093 0.597-0.24 0.91-0.44 0.307-0.193 0.523-0.33 0.65-0.41 0.133-0.08 0.33-0.21 0.59-0.39 0.26-0.18 0.39-0.27 0.39-0.27v0c0.067 0.033 0.15 0.13 0.25 0.29 0.093 0.167 0.14 0.33 0.14 0.49v0c0 0.36-0.097 0.67-0.29 0.93v0c-0.487 0.88-1.447 1.757-2.88 2.63-1.433 0.88-3.03 1.32-4.79 1.32v0c-2.893 0-5.357-1.057-7.39-3.17-2.04-2.113-3.06-4.7-3.06-7.76v0c0-2.967 0.977-5.53 2.93-7.69 1.953-2.167 4.51-3.25 7.67-3.25zM127.54-16.31v0 9.67c0 1.56 0.13 2.7 0.39 3.42v0c0.1 0.16 0.287 0.29 0.56 0.39 0.28 0.093 0.567 0.157 0.86 0.19 0.293 0.033 0.56 0.05 0.8 0.05 0.247 0 0.387 0.017 0.42 0.05v0c0.127 0.033 0.19 0.18 0.19 0.44v0c0 0.133-0.033 0.353-0.1 0.66-0.06 0.307-0.157 0.46-0.29 0.46v0c-0.453 0-1.03 0.057-1.73 0.17-0.7 0.12-1.377 0.237-2.03 0.35-0.653 0.113-1.27 0.233-1.85 0.36-0.587 0.133-1.06 0.233-1.42 0.3-0.36 0.06-0.54 0.09-0.54 0.09v0c-0.227 0-0.34-0.26-0.34-0.78v0-2.15c-0.033-0.16-0.083-0.24-0.15-0.24v0c-0.747 0.813-1.737 1.547-2.97 2.2-1.24 0.647-2.527 0.97-3.86 0.97v0c-1.107 0-2.077-0.277-2.91-0.83-0.827-0.553-1.477-1.27-1.95-2.15-0.473-0.873-0.817-1.817-1.03-2.83-0.207-1.007-0.31-2.03-0.31-3.07v0-5.47c0-1.533-0.26-2.577-0.78-3.13v0c-0.293-0.327-0.67-0.57-1.13-0.73-0.453-0.16-0.843-0.257-1.17-0.29-0.327-0.033-0.49-0.083-0.49-0.15v0c0-0.947 0.083-1.433 0.25-1.46v0c0.94-0.067 2.273-0.263 4-0.59 1.727-0.327 3.013-0.62 3.86-0.88v0c0.033 0 0.097-0.017 0.19-0.05 0.1-0.033 0.167-0.05 0.2-0.05v0c0.16 0 0.283 0.117 0.37 0.35 0.08 0.227 0.12 0.403 0.12 0.53v0c-0.293 2.213-0.44 3.647-0.44 4.3v0 5.86c0 2.54 0.357 4.363 1.07 5.47 0.72 1.107 1.877 1.66 3.47 1.66v0c1.04 0 1.92-0.317 2.64-0.95 0.713-0.64 1.07-1.253 1.07-1.84v0-8.05c0-1.533-0.26-2.577-0.78-3.13v0c-0.26-0.327-0.627-0.57-1.1-0.73-0.473-0.16-0.873-0.257-1.2-0.29-0.32-0.033-0.48-0.083-0.48-0.15v0c0-0.947 0.097-1.433 0.29-1.46v0c0.913-0.067 2.23-0.263 3.95-0.59 1.727-0.327 3.013-0.62 3.86-0.88v0c0.033 0 0.107-0.017 0.22-0.05 0.113-0.033 0.17-0.05 0.17-0.05v0c0.167 0 0.297 0.117 0.39 0.35 0.1 0.227 0.133 0.403 0.1 0.53v0c-0.26 2.213-0.39 3.613-0.39 4.2zM141.26-21.63v0c1.82 0 3.707 0.277 5.66 0.83v0c0.327 1.467 0.507 3.29 0.54 5.47v0c0 0.26-0.21 0.39-0.63 0.39v0c-0.72 0-1.113-0.13-1.18-0.39v0c-0.227-1.14-0.707-2.11-1.44-2.91-0.727-0.793-1.71-1.19-2.95-1.19v0c-0.947 0-1.687 0.21-2.22 0.63-0.54 0.427-0.81 1.03-0.81 1.81v0c0 0.453 0.09 0.867 0.27 1.24 0.18 0.373 0.473 0.723 0.88 1.05 0.407 0.327 0.763 0.587 1.07 0.78 0.313 0.2 0.78 0.463 1.4 0.79v0c0.227 0.127 0.387 0.207 0.48 0.24v0c0.067 0.033 0.313 0.163 0.74 0.39 0.42 0.227 0.687 0.373 0.8 0.44 0.113 0.067 0.373 0.22 0.78 0.46 0.407 0.247 0.693 0.433 0.86 0.56 0.16 0.133 0.41 0.33 0.75 0.59 0.347 0.26 0.593 0.487 0.74 0.68 0.147 0.2 0.34 0.453 0.58 0.76 0.247 0.313 0.42 0.607 0.52 0.88 0.093 0.28 0.18 0.59 0.26 0.93 0.087 0.34 0.13 0.69 0.13 1.05v0c0 2.047-0.79 3.667-2.37 4.86-1.58 1.187-3.493 1.78-5.74 1.78v0c-2.02 0-4.12-0.457-6.3-1.37v0c-0.16-0.553-0.323-1.457-0.49-2.71-0.16-1.253-0.24-2.19-0.24-2.81v0c0.193-0.16 0.42-0.24 0.68-0.24v0c0.753 0 1.147 0.13 1.18 0.39v0c0.26 1.367 0.9 2.467 1.92 3.3 1.027 0.827 2.143 1.24 3.35 1.24v0c0.913 0 1.66-0.227 2.24-0.68 0.587-0.46 0.88-1.127 0.88-2v0c0-0.327-0.04-0.63-0.12-0.91-0.08-0.273-0.233-0.55-0.46-0.83-0.227-0.273-0.413-0.5-0.56-0.68-0.147-0.18-0.44-0.4-0.88-0.66-0.44-0.26-0.767-0.447-0.98-0.56-0.213-0.113-0.62-0.327-1.22-0.64-0.6-0.307-1.017-0.527-1.25-0.66v0c-1.493-0.78-2.647-1.65-3.46-2.61-0.813-0.96-1.22-2.123-1.22-3.49v0c0-1.987 0.78-3.517 2.34-4.59 1.56-1.073 3.383-1.61 5.47-1.61z" fill="#ffffff" fill-rule="nonzero" stroke="none" stroke-width="1" stroke-linecap="butt" stroke-linejoin="miter" stroke-miterlimit="10" stroke-dasharray="" stroke-dashoffset="0" font-family="none" font-weight="none" font-size="none" text-anchor="none" style="mix-blend-mode: normal" data-fill-palette-color="quaternary" opacity="1"></path><path transform="translate(95.41,95.45)" d="M19.09-32.23v0l10.26 25.59c0.487 1.3 0.973 2.487 1.46 3.56v0c0.193 0.493 0.713 0.887 1.56 1.18 0.847 0.293 1.467 0.44 1.86 0.44v0c0.127 0 0.19 0.29 0.19 0.87v0c0 0.393-0.03 0.64-0.09 0.74v0c-3.907-0.2-5.96-0.3-6.16-0.3v0c-0.227 0-2.34 0.1-6.34 0.3v0c-0.133-0.133-0.2-0.437-0.2-0.91 0-0.467 0.067-0.7 0.2-0.7v0c0.387 0 0.923-0.1 1.61-0.3 0.68-0.193 1.087-0.42 1.22-0.68v0c0.093-0.193 0.14-0.407 0.14-0.64v0c0-0.647-0.307-1.77-0.92-3.37v0l-1.71-4.54c-0.133-0.127-0.247-0.19-0.34-0.19v0c-1.047-0.067-2.447-0.1-4.2-0.1-1.76 0-3.617 0.05-5.57 0.15v0c-0.193 0-0.29 0.063-0.29 0.19v0l-1.86 4.54c-0.62 1.693-0.93 2.753-0.93 3.18 0 0.42 0.18 0.743 0.54 0.97v0c0.293 0.2 0.807 0.38 1.54 0.54 0.733 0.167 1.23 0.25 1.49 0.25v0c0.1 0.027 0.15 0.253 0.15 0.68 0 0.42-0.033 0.73-0.1 0.93v0c-0.167 0-0.933-0.05-2.3-0.15-1.367-0.1-2.473-0.15-3.32-0.15-0.847 0-1.847 0.043-3 0.13-1.153 0.08-1.977 0.137-2.47 0.17v0c-0.127-0.133-0.19-0.38-0.19-0.74v0c0-0.58 0.033-0.87 0.1-0.87v0c0.387 0 1.013-0.14 1.88-0.42 0.86-0.273 1.403-0.59 1.63-0.95v0c0.62-0.98 1.24-2.25 1.86-3.81v0l9.08-21.97c0.747-1.953 1.35-3.127 1.81-3.52v0c0.26-0.227 0.537-0.34 0.83-0.34v0c0.227 0 0.42 0.08 0.58 0.24zM13.23-14.06v0c1.14 0.093 2.313 0.14 3.52 0.14v0c1.14 0 2.473-0.047 4-0.14v0l0.1-0.2-3.71-9.76-4.01 9.76c0 0.133 0.033 0.2 0.1 0.2zM47.75-21.58v0c1.727 0 3.267 0.283 4.62 0.85 1.347 0.573 2.313 1.2 2.9 1.88v0c0 1.107-0.187 2.027-0.56 2.76-0.373 0.733-0.933 1.1-1.68 1.1v0c-0.62 0-1.117-0.163-1.49-0.49-0.373-0.327-0.757-0.863-1.15-1.61v0c-0.747-1.5-1.837-2.25-3.27-2.25v0c-1.4 0-2.517 0.71-3.35 2.13-0.827 1.413-1.24 3.193-1.24 5.34v0c0 2.933 0.603 5.107 1.81 6.52 1.2 1.42 2.73 2.13 4.59 2.13v0c0.487 0 0.957-0.027 1.41-0.08 0.46-0.047 0.883-0.127 1.27-0.24 0.393-0.113 0.737-0.22 1.03-0.32 0.293-0.093 0.593-0.24 0.9-0.44 0.307-0.193 0.527-0.33 0.66-0.41 0.127-0.08 0.323-0.21 0.59-0.39 0.26-0.18 0.39-0.27 0.39-0.27v0c0.06 0.033 0.14 0.13 0.24 0.29 0.1 0.167 0.15 0.33 0.15 0.49v0c0 0.36-0.1 0.67-0.3 0.93v0c-0.487 0.88-1.447 1.757-2.88 2.63-1.433 0.88-3.027 1.32-4.78 1.32v0c-2.9 0-5.367-1.057-7.4-3.17-2.033-2.113-3.05-4.7-3.05-7.76v0c0-2.967 0.977-5.53 2.93-7.69 1.953-2.167 4.507-3.25 7.66-3.25zM66.55-2.83v0c0.88 0 1.637-0.23 2.27-0.69 0.64-0.453 0.96-0.973 0.96-1.56v0-4.98c-0.233 0.1-0.717 0.263-1.45 0.49-0.727 0.227-1.287 0.423-1.68 0.59-0.393 0.16-0.85 0.387-1.37 0.68-0.52 0.293-0.9 0.65-1.14 1.07-0.247 0.427-0.37 0.883-0.37 1.37v0c0 1.04 0.26 1.807 0.78 2.3 0.52 0.487 1.187 0.73 2 0.73zM68.75-21.58v0c2.02 0 3.533 0.527 4.54 1.58 1.007 1.06 1.51 2.877 1.51 5.45v0 9.62c0 0.647 0.147 1.143 0.44 1.49 0.293 0.34 0.687 0.51 1.18 0.51v0c0.487 0 1.04-0.21 1.66-0.63v0c0.193 0.06 0.29 0.237 0.29 0.53v0c0 0.653-0.097 1.143-0.29 1.47v0c-0.493 0.387-1.147 0.793-1.96 1.22-0.813 0.42-1.593 0.63-2.34 0.63v0c-0.747 0-1.48-0.277-2.2-0.83-0.713-0.553-1.183-1.153-1.41-1.8v0c-0.033 0.033-0.157 0.137-0.37 0.31-0.213 0.18-0.507 0.4-0.88 0.66-0.373 0.26-0.797 0.52-1.27 0.78-0.473 0.26-1.027 0.48-1.66 0.66-0.633 0.18-1.277 0.27-1.93 0.27v0c-1.627 0-2.953-0.447-3.98-1.34-1.027-0.893-1.54-2.123-1.54-3.69v0c0-0.78 0.19-1.51 0.57-2.19 0.373-0.687 0.82-1.25 1.34-1.69 0.52-0.44 1.22-0.87 2.1-1.29 0.88-0.427 1.637-0.747 2.27-0.96 0.633-0.207 1.447-0.457 2.44-0.75 0.993-0.293 1.687-0.507 2.08-0.64v0c0.293-0.127 0.44-0.387 0.44-0.78v0-2.68c0-1.14-0.263-2.037-0.79-2.69-0.52-0.653-1.22-0.98-2.1-0.98v0c-0.973 0-1.737 0.303-2.29 0.91-0.553 0.6-0.83 1.453-0.83 2.56v0c0 0.653-0.243 1.133-0.73 1.44-0.493 0.313-1.047 0.47-1.66 0.47v0c-1.207 0-2.053-0.393-2.54-1.18v0c0-1.56 1.067-3.023 3.2-4.39 2.127-1.367 4.363-2.05 6.71-2.05zM91.11-19.34v0c-1.72 0-3.02 0.733-3.9 2.2-0.88 1.467-1.32 3.437-1.32 5.91v0c0 2.767 0.503 4.923 1.51 6.47 1.013 1.547 2.43 2.32 4.25 2.32v0c1.107 0 2.003-0.287 2.69-0.86 0.68-0.567 1.02-1.29 1.02-2.17v0-10.25c0-0.327-0.057-0.67-0.17-1.03-0.113-0.36-0.31-0.743-0.59-1.15-0.273-0.407-0.71-0.747-1.31-1.02-0.607-0.28-1.333-0.42-2.18-0.42zM91.55-21.68v0c1.4 0 2.59 0.227 3.57 0.68v0c0.16 0 0.24-0.26 0.24-0.78v0-4.59c0-1.233-0.097-2.34-0.29-3.32v0c-0.167-0.52-1.013-0.78-2.54-0.78v0h-0.39c-0.193 0-0.29-0.26-0.29-0.78v0c0-0.52 0.097-0.78 0.29-0.78v0c0.973-0.1 1.927-0.23 2.86-0.39 0.927-0.167 1.69-0.33 2.29-0.49 0.6-0.16 1.12-0.323 1.56-0.49 0.44-0.16 0.773-0.28 1-0.36 0.233-0.087 0.363-0.13 0.39-0.13v0h0.1c0.133 0 0.263 0.09 0.39 0.27 0.133 0.18 0.2 0.35 0.2 0.51v0c-0.327 1.273-0.49 2.803-0.49 4.59v0 21.49c0 1.493 0.097 2.697 0.29 3.61v0c0.033 0.227 0.197 0.407 0.49 0.54 0.293 0.127 0.603 0.207 0.93 0.24 0.327 0.033 0.637 0.06 0.93 0.08 0.293 0.013 0.453 0.02 0.48 0.02v0c0.067 0.067 0.1 0.263 0.1 0.59v0c0 0.647-0.097 0.97-0.29 0.97v0c-0.453 0.033-1.03 0.1-1.73 0.2-0.7 0.1-1.387 0.207-2.06 0.32-0.667 0.113-1.3 0.227-1.9 0.34-0.6 0.113-1.087 0.21-1.46 0.29-0.38 0.08-0.57 0.12-0.57 0.12v0c-0.193 0-0.29-0.277-0.29-0.83v0-0.83c0-0.093-0.023-0.157-0.07-0.19-0.053-0.033-0.093-0.033-0.12 0v0c-1.567 1.2-3.26 1.8-5.08 1.8v0c-2.64 0-4.937-0.967-6.89-2.9-1.953-1.94-2.93-4.373-2.93-7.3v0c0-3.22 1.117-5.98 3.35-8.28 2.227-2.293 4.87-3.44 7.93-3.44zM115.63-19.34v0c-0.787 0-1.487 0.23-2.1 0.69-0.62 0.453-1.093 1.007-1.42 1.66-0.327 0.647-0.563 1.257-0.71 1.83-0.147 0.567-0.22 1.047-0.22 1.44v0c0 0.227 0.097 0.34 0.29 0.34v0h7.91c0.293 0 0.44-0.243 0.44-0.73v0c0-1.14-0.38-2.297-1.14-3.47-0.767-1.173-1.783-1.76-3.05-1.76zM115.97-21.58v0c1.527 0 2.893 0.3 4.1 0.9 1.207 0.6 2.15 1.367 2.83 2.3 0.687 0.927 1.207 1.887 1.56 2.88 0.36 0.993 0.54 1.943 0.54 2.85v0c0 0.72-0.123 1.17-0.37 1.35-0.24 0.173-0.737 0.26-1.49 0.26v0h-11.67c-0.227 0-0.34 0.1-0.34 0.3v0c0 1.173 0.213 2.313 0.64 3.42 0.42 1.107 1.143 2.067 2.17 2.88 1.027 0.813 2.257 1.22 3.69 1.22v0c0.487 0 0.957-0.027 1.41-0.08 0.46-0.047 0.883-0.127 1.27-0.24 0.393-0.113 0.737-0.22 1.03-0.32 0.293-0.093 0.593-0.24 0.9-0.44 0.313-0.193 0.533-0.33 0.66-0.41 0.133-0.08 0.33-0.21 0.59-0.39 0.26-0.18 0.39-0.27 0.39-0.27v0c0.06 0.033 0.14 0.13 0.24 0.29 0.1 0.167 0.15 0.33 0.15 0.49v0c0 0.36-0.1 0.67-0.3 0.93v0c-0.487 0.88-1.447 1.757-2.88 2.63-1.427 0.88-3.037 1.32-4.83 1.32v0c-2.833 0-5.273-1.05-7.32-3.15-2.053-2.1-3.08-4.647-3.08-7.64v0c0-3.287 0.953-5.957 2.86-8.01 1.9-2.047 4.317-3.07 7.25-3.07zM143.21-21.58v0c1.24 0 2.3 0.317 3.18 0.95 0.88 0.633 1.53 1.457 1.95 2.47v0c0.947-0.98 2.133-1.797 3.56-2.45 1.433-0.647 2.963-0.97 4.59-0.97v0c1.173 0 2.177 0.26 3.01 0.78 0.827 0.52 1.477 1.243 1.95 2.17 0.473 0.927 0.817 1.937 1.03 3.03 0.207 1.093 0.31 2.273 0.31 3.54v0 5.13c0 1.98 0.113 3.443 0.34 4.39v0c0.067 0.227 0.507 0.463 1.32 0.71 0.813 0.247 1.367 0.37 1.66 0.37v0c0.1 0 0.157 0.233 0.17 0.7 0.02 0.473-0.003 0.793-0.07 0.96v0c-0.227-0.033-1.08-0.1-2.56-0.2-1.48-0.1-2.597-0.15-3.35-0.15v0c-0.78 0-1.893 0.05-3.34 0.15-1.447 0.1-2.317 0.167-2.61 0.2v0c-0.1-0.133-0.15-0.443-0.15-0.93 0-0.487 0.05-0.73 0.15-0.73v0c0.387 0 0.97-0.123 1.75-0.37 0.787-0.247 1.21-0.483 1.27-0.71v0c0.227-0.973 0.34-2.113 0.34-3.42v0-4.98c0-4.72-1.513-7.08-4.54-7.08v0c-1.073 0-1.967 0.26-2.68 0.78-0.72 0.52-1.143 1.027-1.27 1.52v0c0 0.093-0.01 0.223-0.03 0.39-0.013 0.16-0.003 0.29 0.03 0.39v0c0.1 0.713 0.15 1.723 0.15 3.03v0 5.17c0 1.853 0.113 3.253 0.34 4.2v0c0.06 0.227 0.5 0.463 1.32 0.71 0.813 0.247 1.367 0.37 1.66 0.37v0c0.093 0 0.15 0.233 0.17 0.7 0.013 0.473-0.013 0.793-0.08 0.96v0c-0.227-0.033-1.08-0.1-2.56-0.2-1.48-0.1-2.593-0.15-3.34-0.15v0c-0.787 0-1.903 0.05-3.35 0.15-1.447 0.1-2.317 0.167-2.61 0.2v0c-0.1-0.133-0.15-0.443-0.15-0.93 0-0.487 0.05-0.73 0.15-0.73v0c0.387 0 0.973-0.123 1.76-0.37 0.78-0.247 1.203-0.483 1.27-0.71v0c0.227-0.973 0.34-2.16 0.34-3.56v0-4.69c0-2.54-0.377-4.38-1.13-5.52-0.747-1.14-1.853-1.71-3.32-1.71v0c-0.973 0-1.867 0.277-2.68 0.83-0.813 0.553-1.22 1.173-1.22 1.86v0 8.4c0 1.98 0.13 3.443 0.39 4.39v0c0.067 0.227 0.49 0.463 1.27 0.71 0.78 0.247 1.317 0.37 1.61 0.37v0c0.127 0 0.2 0.233 0.22 0.7 0.013 0.473-0.01 0.793-0.07 0.96v0c-0.267-0.033-1.123-0.1-2.57-0.2-1.447-0.1-2.543-0.15-3.29-0.15v0c-0.813 0-1.953 0.05-3.42 0.15-1.467 0.1-2.33 0.167-2.59 0.2v0c-0.133-0.133-0.2-0.443-0.2-0.93 0-0.487 0.067-0.73 0.2-0.73v0c0.36 0 0.947-0.123 1.76-0.37 0.813-0.247 1.253-0.483 1.32-0.71v0c0.227-0.973 0.34-2.16 0.34-3.56v0-7.96c0-1.533-0.26-2.577-0.78-3.13v0c-0.26-0.327-0.627-0.57-1.1-0.73-0.473-0.16-0.873-0.257-1.2-0.29-0.327-0.033-0.49-0.083-0.49-0.15v0c0-0.947 0.1-1.433 0.3-1.46v0c1.493-0.133 4.097-0.623 7.81-1.47v0c0.033-0.033 0.083-0.057 0.15-0.07 0.06-0.02 0.117-0.03 0.17-0.03 0.047 0 0.07 0 0.07 0v0c0.16 0 0.29 0.117 0.39 0.35 0.1 0.227 0.133 0.403 0.1 0.53v0c-0.133 0.913-0.2 1.5-0.2 1.76v0c0 0.133 0.033 0.213 0.1 0.24v0c0.033 0 0.113-0.047 0.24-0.14v0c0.787-0.78 1.79-1.463 3.01-2.05 1.22-0.587 2.463-0.88 3.73-0.88zM173.68-21.09v0c0.72 0 1.747-0.05 3.08-0.15 1.333-0.1 2.163-0.15 2.49-0.15v0c0.067 0.233 0.1 0.527 0.1 0.88v0c0 0.46-0.067 0.69-0.2 0.69v0c-0.327 0-0.84 0.12-1.54 0.36-0.7 0.247-1.067 0.517-1.1 0.81v0 0.29c0.067 0.52 1.58 4.23 4.54 11.13v0c0.267-0.587 0.903-2.19 1.91-4.81 1.007-2.62 1.593-4.123 1.76-4.51v0c0.193-0.553 0.29-1.06 0.29-1.52v0c0-0.42-0.26-0.817-0.78-1.19-0.52-0.373-1.303-0.56-2.35-0.56v0c-0.127 0-0.19-0.247-0.19-0.74v0c0-0.42 0.063-0.697 0.19-0.83v0c0.393 0 1.193 0.05 2.4 0.15 1.2 0.1 2.193 0.15 2.98 0.15v0c0.68 0 1.517-0.05 2.51-0.15 0.993-0.1 1.717-0.15 2.17-0.15v0c0.133 0.2 0.2 0.46 0.2 0.78v0c0 0.527-0.067 0.79-0.2 0.79v0c-0.453 0-1.11 0.16-1.97 0.48-0.867 0.327-1.43 0.817-1.69 1.47v0l-8.93 21.58c-2.02 4.753-4.447 7.13-7.28 7.13v0c-0.847 0-1.497-0.227-1.95-0.68-0.46-0.46-0.69-0.983-0.69-1.57v0c0-0.847 0.31-1.48 0.93-1.9v0c3.387 0 5.617-1.333 6.69-4v0c0.78-1.953 1.22-3.06 1.32-3.32v0l-7.13-16.61c-0.26-0.587-0.457-0.96-0.59-1.12v0c-0.32-0.487-0.8-0.853-1.44-1.1-0.633-0.24-1.16-0.36-1.58-0.36v0c-0.133 0-0.2-0.23-0.2-0.69v0c0-0.52 0.05-0.813 0.15-0.88v0c0.193 0 1.063 0.05 2.61 0.15 1.547 0.1 2.71 0.15 3.49 0.15z" fill="#ffffff" fill-rule="nonzero" stroke="none" stroke-width="1" stroke-linecap="butt" stroke-linejoin="miter" stroke-miterlimit="10" stroke-dasharray="" stroke-dashoffset="0" font-family="none" font-weight="none" font-size="none" text-anchor="none" style="mix-blend-mode: normal" data-fill-palette-color="quaternary" opacity="1"></path></g></svg></g></svg></g></svg></g></svg></g><g><svg viewBox="0 0 253.1328 253.1328" height="253.1328" width="253.1328"><g><svg xmlns="http://www.w3.org/2000/svg" data-name="Layer 1" viewBox="1 1 48 48" x="0" y="0" height="253.1328" width="253.1328" class="icon-icon-0" data-fill-palette-color="quaternary" id="icon-0"><path d="M22 1H2A1 1 0 0 0 1 2V22a1 1 0 0 0 1 1H22a1 1 0 0 0 1-1V2A1 1 0 0 0 22 1ZM21 21H3V3H21V21ZM7 12a1 1 0 0 1 1-1h3V8a1 1 0 0 1 2 0v3h3a1 1 0 0 1 0 2H13v3a1 1 0 0 1-2 0V13H8A1 1 0 0 1 7 12ZM48 1H28a1 1 0 0 0-1 1V22a1 1 0 0 0 1 1H48a1 1 0 0 0 1-1V2A1 1 0 0 0 48 1ZM47 21H29V3H47V21ZM33 12a1 1 0 0 1 1-1h8a1 1 0 0 1 0 2H34A1 1 0 0 1 33 12ZM22 27H2a1 1 0 0 0-1 1V48a1 1 0 0 0 1 1H22a1 1 0 0 0 1-1V28A1 1 0 0 0 22 27ZM21 47H3V29H21V47ZM8.46 40.12L10.59 38 8.46 35.88a1 1 0 0 1 1.42-1.42L12 36.59l2.12-2.13a1 1 0 0 1 1.42 1.42L13.41 38l2.13 2.12a1 1 0 0 1 0 1.42 1 1 0 0 1-0.71 0.29 1 1 0 0 1-0.71-0.29L12 39.41 9.88 41.54a1 1 0 0 1-0.71 0.29 1 1 0 0 1-0.71-0.29A1 1 0 0 1 8.46 40.12ZM48 27H28a1 1 0 0 0-1 1V48a1 1 0 0 0 1 1H48a1 1 0 0 0 1-1V28A1 1 0 0 0 48 27ZM47 47H29V29H47V47ZM33 39a1 1 0 0 1 1-1h8a1 1 0 0 1 0 2H34A1 1 0 0 1 33 39Zm4-4a1 1 0 1 1 1 1A1 1 0 0 1 37 35Zm2 8a1 1 0 1 1-1-1A1 1 0 0 1 39 43Z" fill="#ffffff" data-fill-palette-color="quaternary"></path></svg></g></svg></g><g></g></svg></g></svg></g></svg></g></svg></g><defs></defs></svg><rect width="512" height="320" fill="none" stroke="none" visibility="hidden"></rect></g></svg></g></svg>