<svg xmlns="http://www.w3.org/2000/svg" version="1.1" xmlns:xlink="http://www.w3.org/1999/xlink"
    xmlns:svgjs="http://svgjs.dev/svgjs" width="1000" height="1000" viewBox="0 0 1000 1000">
    <rect width="1000" height="1000" fill="#ffffff"></rect>
    <g transform="matrix(0.7,0,0,0.7,149.57575757575756,413.94814131874875)"><svg viewBox="0 0 396 98"
            data-background-color="#ffffff" preserveAspectRatio="xMidYMid meet" height="247" width="1000"
            xmlns="http://www.w3.org/2000/svg" xmlns:xlink="http://www.w3.org/1999/xlink">
            <g id="tight-bounds" transform="matrix(1,0,0,1,0.2400000000000091,-0.22566714423004441)"><svg
                    viewBox="0 0 395.52 98.45133428846009" height="98.45133428846009" width="395.52">
                    <g><svg viewBox="0 0 395.52 98.45133428846009" height="98.45133428846009" width="395.52">
                            <g><svg viewBox="0 0 395.52 98.45133428846009" height="98.45133428846009" width="395.52">
                                    <g id="textblocktransform"><svg viewBox="0 0 395.52 98.45133428846009"
                                            height="98.45133428846009" width="395.52" id="textblock">
                                            <g>
                                                <rect width="395.52" height="80.15015249944125" fill="none"
                                                    stroke-width="9.018103199999999" stroke="#233565"
                                                    data-fill-palette-color="none" data-stroke-palette-color="tertiary">
                                                </rect>
                                                <rect width="395.52" height="18.301181789018848" y="80.15015249944125"
                                                    fill="#233565" data-fill-palette-color="tertiary"></rect>
                                            </g>
                                            <g><svg viewBox="0 0 395.52 80.15015249944125" height="80.15015249944125"
                                                    width="395.52">
                                                    <g
                                                        transform="matrix(1,0,0,1,23.607599999999998,23.607599999999998)">
                                                        <svg width="348.3048" viewBox="-1.73 -36.94 525.29 50.58"
                                                            height="32.93495249944126" data-palette-color="#233565">
                                                            <path
                                                                d="M8.59-32.18L8.59-32.18Q11.77-32.18 16.8-32.3 21.83-32.42 24.37-32.42L24.37-32.42Q24.41-31.93 25.78-25.2L25.78-25.2Q25.54-24.95 24.66-24.95L24.66-24.95Q24.12-24.95 23.97-25.29L23.97-25.29Q23.05-27.15 21.04-28.47 19.04-29.79 17.14-29.79L17.14-29.79 15.28-29.79Q12.21-29.79 12.11-29.15L12.11-29.15Q11.87-27.98 11.87-25.34L11.87-25.34 11.87-17.82Q11.87-17.53 13.96-17.53L13.96-17.53 16.55-17.53Q19.58-17.53 19.87-17.72L19.87-17.72Q20.12-17.92 20.26-19.14L20.26-19.14Q20.36-19.87 20.56-20.56L20.56-20.56Q20.61-20.9 21.29-20.9L21.29-20.9Q22.12-20.9 22.36-20.65L22.36-20.65 22.36-11.43Q22.17-11.23 21.34-11.23L21.34-11.23Q20.7-11.23 20.56-11.62L20.56-11.62Q20.36-12.3 20.21-12.79 20.07-13.28 19.97-13.53 19.87-13.77 19.75-13.96 19.63-14.16 19.58-14.21 19.53-14.26 19.38-14.33 19.24-14.4 19.19-14.45L19.19-14.45Q18.55-14.84 15.38-14.84L15.38-14.84Q11.87-14.84 11.87-14.4L11.87-14.4 11.87-6.88Q11.87-4.39 12.21-2.88L12.21-2.88Q12.35-2.29 13.82-1.95 15.28-1.61 16.02-1.61L16.02-1.61Q16.21-1.61 16.21-0.68L16.21-0.68Q16.21-0.1 16.11 0.2L16.11 0.2Q10.25-0.1 8.64-0.1L8.64-0.1 1.51 0.2Q1.32 0 1.32-0.63L1.32-0.63Q1.32-1.61 1.51-1.61L1.51-1.61Q2.1-1.61 3.34-1.95 4.59-2.29 4.74-2.69L4.74-2.69Q5.03-3.81 5.03-6.98L5.03-6.98 5.03-25.44Q5.03-28.13 4.74-29.25L4.74-29.25Q4.59-29.64 3.3-30.13 2-30.62 1.46-30.62L1.46-30.62Q1.27-30.62 1.27-31.49L1.27-31.49Q1.27-32.28 1.42-32.42L1.42-32.42Q5.81-32.18 8.59-32.18ZM32.18-27.51Q31.1-28.56 31.1-30.08 31.1-31.59 32.18-32.64 33.25-33.69 34.74-33.69 36.23-33.69 37.28-32.64 38.33-31.59 38.33-30.08 38.33-28.56 37.28-27.51 36.23-26.46 34.74-26.46 33.25-26.46 32.18-27.51ZM38.33-15.92L38.33-7.28Q38.33-4.15 38.67-2.83L38.67-2.83Q38.77-2.49 40.06-2.05 41.35-1.61 41.75-1.61L41.75-1.61Q41.94-1.61 41.94-0.81 41.94 0 41.84 0.2L41.84 0.2Q41.35 0.15 38.82-0.02 36.28-0.2 35.15-0.2L35.15-0.2Q33.98-0.2 31.52-0.02 29.05 0.15 28.46 0.2L28.46 0.2Q28.32 0 28.32-0.81 28.32-1.61 28.46-1.61L28.46-1.61Q29.05-1.61 30.3-2.05 31.54-2.49 31.64-2.83L31.64-2.83Q31.98-4.3 31.98-6.54L31.98-6.54 31.98-13.23Q31.98-15.97 31.1-16.89L31.1-16.89Q30.76-17.29 30.1-17.53 29.44-17.77 28.93-17.87 28.42-17.97 28.42-18.02L28.42-18.02Q28.42-19.73 28.66-19.73L28.66-19.73Q29.64-19.73 32.93-20.39 36.23-21.04 37.6-21.48L37.6-21.48Q37.64-21.48 37.89-21.56 38.13-21.63 38.13-21.63L38.13-21.63Q38.43-21.63 38.64-21.31 38.86-21 38.86-20.8L38.86-20.8Q38.82-20.41 38.67-19.34 38.52-18.26 38.43-17.46 38.33-16.65 38.33-15.92L38.33-15.92ZM61.81-21.78L61.81-21.78Q64.64-21.78 66.43-19.38 68.21-16.99 68.21-12.11L68.21-12.11 68.21-7.28Q68.21-4.15 68.55-2.83L68.55-2.83Q68.65-2.49 69.92-2.05 71.19-1.61 71.63-1.61L71.63-1.61Q71.77-1.61 71.8-0.81 71.82 0 71.72 0.2L71.72 0.2Q71.19 0.15 68.67-0.02 66.16-0.2 65.03-0.2L65.03-0.2Q63.86-0.2 61.49-0.02 59.13 0.15 58.54 0.2L58.54 0.2Q58.34 0 58.34-0.81 58.34-1.61 58.54-1.61L58.54-1.61Q59.08-1.61 60.25-2.05 61.42-2.49 61.52-2.83L61.52-2.83Q61.86-4.3 61.86-6.54L61.86-6.54 61.86-10.94Q61.86-14.55 60.86-16.09 59.86-17.63 57.66-17.63L57.66-17.63Q56.15-17.63 55.22-17.07 54.29-16.5 54.29-15.48L54.29-15.48 54.29-7.28Q54.29-4.15 54.63-2.83L54.63-2.83Q54.73-2.49 55.93-2.05 57.12-1.61 57.51-1.61L57.51-1.61Q57.66-1.61 57.69-0.81 57.71 0 57.61 0.2L57.61 0.2Q57.03 0.15 54.63-0.02 52.24-0.2 51.12-0.2L51.12-0.2Q49.95-0.2 47.46-0.02 44.97 0.15 44.43 0.2L44.43 0.2Q44.23 0 44.23-0.81 44.23-1.61 44.43-1.61L44.43-1.61Q44.97-1.61 46.24-2.05 47.5-2.49 47.6-2.83L47.6-2.83Q47.94-4.3 47.94-6.54L47.94-6.54 47.94-13.23Q47.94-15.97 47.07-16.89L47.07-16.89Q46.72-17.29 46.04-17.53 45.36-17.77 44.87-17.87 44.38-17.97 44.38-18.02L44.38-18.02Q44.38-19.73 44.62-19.73L44.62-19.73Q45.21-19.73 46.58-20 47.94-20.26 50.14-20.75 52.34-21.24 53.56-21.48L53.56-21.48Q53.66-21.48 53.78-21.53 53.9-21.58 54-21.58L54-21.58 54.1-21.63Q54.34-21.63 54.58-21.31 54.83-21 54.83-20.8L54.83-20.8Q54.63-19.43 54.63-19.29L54.63-19.29Q54.63-19.04 54.68-18.99L54.68-18.99Q54.78-18.99 55.02-19.24L55.02-19.24Q57.76-21.78 61.81-21.78ZM89.74 3.96L89.74 3.96Q89.74 1.76 81.54 1.76L81.54 1.76Q81.39 1.81 81.34 1.81L81.34 1.81Q79.73 2.34 79.39 2.88L79.39 2.88Q79.05 3.32 79.05 4.2L79.05 4.2Q79.05 5.66 80.58 6.67 82.12 7.67 84.03 7.67L84.03 7.67Q86.56 7.67 88.15 6.74 89.74 5.81 89.74 3.96ZM81.34-14.36L81.34-14.36Q81.34-13.09 81.44-12.18 81.54-11.28 81.78-10.33 82.02-9.38 82.61-8.89 83.2-8.4 84.12-8.4 85.05-8.4 85.61-8.76 86.17-9.13 86.39-9.91 86.61-10.69 86.69-11.35 86.76-12.01 86.76-13.09L86.76-13.09Q86.76-16.21 86.17-17.77 85.59-19.34 83.83-19.34L83.83-19.34Q82.95-19.34 82.39-18.9 81.83-18.46 81.63-17.58 81.44-16.7 81.39-16.14 81.34-15.58 81.34-14.6L81.34-14.6Q81.34-14.45 81.34-14.36ZM84.17-21.92L84.17-21.92Q85.93-21.92 88.3-21.29 90.67-20.65 92.08-20.65L92.08-20.65 94.77-20.65Q94.91-20.61 95.31-19.78 95.7-18.95 95.7-18.6L95.7-18.6Q95.7-17.92 95.4-17.92L95.4-17.92 92.52-17.92Q92.33-17.87 92.33-17.77L92.33-17.77Q92.33-17.72 92.69-16.43 93.06-15.14 93.06-14.01L93.06-14.01Q93.06-10.94 90.57-8.4 88.08-5.86 84.32-5.86L84.32-5.86Q82.37-5.86 81-6.1L81-6.1Q80.41-5.91 80.12-5.44 79.83-4.98 79.83-4.64 79.83-4.3 80.31-4.08 80.8-3.86 81.8-3.74 82.81-3.61 83.56-3.54 84.32-3.47 85.73-3.42 87.15-3.37 87.54-3.37L87.54-3.37Q95.35-2.98 95.4 1.76L95.4 1.76Q95.45 5.32 91.55 7.98 87.64 10.64 83.2 10.64L83.2 10.64Q79.48 10.64 76.95 9.18 74.41 7.71 74.41 5.27L74.41 5.27Q74.41 4.2 75.55 2.98 76.7 1.76 78.41 1.22L78.41 1.22Q77.14 0.68 76.12-0.51 75.09-1.71 75.09-3.13L75.09-3.13Q75.09-3.76 75.43-4.35 75.77-4.93 76.53-5.49 77.29-6.05 77.6-6.25 77.92-6.45 78.8-6.93L78.8-6.93Q77.39-7.71 76.21-9.69 75.04-11.67 75.04-13.77L75.04-13.77Q75.04-17.77 77.7-19.85 80.36-21.92 84.17-21.92ZM108.58-19.14L108.58-19.14Q106.68-19.14 105.8-17.31 104.92-15.48 104.92-13.72L104.92-13.72Q104.92-13.43 105.26-13.43L105.26-13.43 111.46-13.43Q112.15-13.43 112.15-14.36L112.15-14.36Q112.15-16.21 111.15-17.68 110.15-19.14 108.58-19.14ZM108.83-21.83L108.83-21.83Q113.22-21.83 115.88-18.77 118.54-15.72 118.54-12.55L118.54-12.55Q118.54-11.43 118.08-11.08 117.62-10.74 116.25-10.74L116.25-10.74 105.21-10.74Q104.92-10.74 104.92-10.4L104.92-10.4Q104.92-7.76 106.41-5.66 107.9-3.56 110.68-3.56L110.68-3.56Q112.29-3.56 113.76-4.03 115.22-4.49 115.81-4.86 116.4-5.22 117.37-5.96L117.37-5.96Q117.81-5.76 117.81-5.03L117.81-5.03Q117.81-4.44 117.62-4.05L117.62-4.05Q117.13-2.88 114.69-1.27 112.25 0.34 109.22 0.34L109.22 0.34Q104.73 0.34 101.48-2.93 98.23-6.2 98.23-10.79L98.23-10.79Q98.23-15.48 101.16-18.65 104.09-21.83 108.83-21.83ZM136.71-21.83L136.71-21.83Q138.85-21.83 140.91-20.02L140.91-20.02Q140.91-17.48 140.3-16.26 139.68-15.04 138.07-15.04L138.07-15.04Q137.1-15.04 135.83-16.16 134.56-17.29 133.58-17.29L133.58-17.29Q132.12-17.29 131.51-15.65 130.9-14.01 130.9-12.16L130.9-12.16 130.9-7.23Q130.9-4.15 131.24-2.83L131.24-2.83Q131.34-2.49 132.53-2.05 133.73-1.61 134.12-1.61L134.12-1.61Q134.26-1.61 134.29-0.81 134.31 0 134.22 0.2L134.22 0.2Q133.63 0.15 131.24-0.02 128.84-0.2 127.72-0.2L127.72-0.2Q126.55-0.2 124.06-0.02 121.57 0.15 121.03 0.2L121.03 0.2Q120.84 0 120.84-0.81 120.84-1.61 121.03-1.61L121.03-1.61Q121.57-1.61 122.84-2.05 124.11-2.49 124.21-2.83L124.21-2.83Q124.55-4.3 124.55-6.54L124.55-6.54 124.55-13.23Q124.55-15.97 123.67-16.89L123.67-16.89Q123.33-17.29 122.64-17.53 121.96-17.77 121.47-17.87 120.98-17.97 120.98-18.02L120.98-18.02Q120.98-19.73 121.23-19.73L121.23-19.73Q121.81-19.73 123.18-20 124.55-20.26 126.75-20.75 128.94-21.24 130.16-21.48L130.16-21.48Q130.65-21.63 130.7-21.63L130.7-21.63Q130.94-21.63 131.19-21.31 131.43-21 131.43-20.8L131.43-20.8Q131.34-20.21 131.29-19.53 131.24-18.85 131.19-18.65L131.19-18.65Q133.58-21.83 136.71-21.83ZM173.08-1.61L173.08-1.61Q174.15-1.61 175.28-2.08 176.4-2.54 176.4-3.32L176.4-3.32Q176.4-3.42 175.18-6.59L175.18-6.59 173.71-10.16Q173.52-10.35 173.37-10.35L173.37-10.35Q172.44-10.4 168.68-10.4L168.68-10.4Q165.46-10.4 163.75-10.35L163.75-10.35Q163.56-10.35 163.41-10.11L163.41-10.11Q163.41-10.11 161.8-6.4L161.8-6.4Q160.82-4.2 160.82-3.42 160.82-2.64 161.7-2.2 162.58-1.76 163.24-1.68 163.9-1.61 164.39-1.61L164.39-1.61Q164.53-1.56 164.53-0.83 164.53-0.1 164.44 0.2L164.44 0.2Q163.8 0.15 161.87-0.02 159.94-0.2 158.72-0.2 157.5-0.2 155.79-0.02 154.08 0.15 153.16 0.2L153.16 0.2Q152.96 0 152.96-0.54L152.96-0.54Q152.96-1.56 153.06-1.56L153.06-1.56Q153.64-1.56 155.01-2.08 156.38-2.59 156.72-3.13L156.72-3.13Q157.11-3.71 157.53-4.57 157.94-5.42 158.19-5.96L158.19-5.96 158.43-6.54 169.22-31.35Q169.76-32.62 171.03-32.62L171.03-32.62Q171.76-32.62 172.2-31.98L172.2-31.98 182.21-7.23Q183.14-4.98 183.82-3.22L183.82-3.22Q184.11-2.44 185.43-2.03 186.75-1.61 187.43-1.61L187.43-1.61Q187.63-1.61 187.63-0.78 187.63 0.05 187.53 0.2L187.53 0.2Q187.34 0.2 184.53 0 181.72-0.2 180.45-0.2L180.45-0.2Q180.11-0.2 173.08 0.2L173.08 0.2Q172.88 0 172.88-0.81 172.88-1.61 173.08-1.61ZM165.07-13.48L165.07-13.48Q166.54-13.33 168.68-13.33L168.68-13.33Q170.64-13.33 172.15-13.43L172.15-13.43 172.3-13.67 168.78-22.41 164.97-13.67Q164.97-13.48 165.07-13.48ZM203.2-21.83L203.2-21.83Q207.6-21.83 210.77-18.68 213.94-15.53 213.94-11.04L213.94-11.04Q213.94-6.15 210.6-2.88 207.26 0.39 202.47 0.39L202.47 0.39Q200.18 0.39 198.81-0.05 197.44-0.49 196.17-0.49L196.17-0.49Q195.68-0.49 194.66-0.02 193.63 0.44 193.49 0.44 193.34 0.44 192.63-0.02 191.92-0.49 191.92-0.73L191.92-0.73Q191.92-0.88 192.02-1.61 192.12-2.34 192.22-3.59 192.31-4.83 192.31-6.25L192.31-6.25 192.31-25.93Q192.31-27.98 192.02-29.44L192.02-29.44Q191.78-30.22 189.48-30.22L189.48-30.22 189.04-30.22Q188.75-30.22 188.75-31.2L188.75-31.2Q188.75-32.03 189.04-32.03L189.04-32.03Q190.56-32.18 192.09-32.42 193.63-32.67 194.71-32.91 195.78-33.15 196.64-33.4 197.49-33.64 197.98-33.79L197.98-33.79 198.47-33.94 198.56-33.94Q198.76-33.94 198.95-33.64 199.15-33.35 199.2-33.11L199.2-33.11Q198.66-30.91 198.66-28.17L198.66-28.17 198.66-21.04Q198.66-20.9 198.66-20.8 198.66-20.7 198.69-20.53 198.71-20.36 198.78-20.36 198.86-20.36 198.95-20.41L198.95-20.41Q200.71-21.83 203.2-21.83ZM202.67-18.85L202.67-18.85Q200.76-18.85 199.71-17.77 198.66-16.7 198.66-15.53L198.66-15.53 198.66-6.3Q198.66-4.35 199.78-3.3 200.91-2.25 202.62-2.25L202.62-2.25Q204.81-2.25 205.86-4.22 206.91-6.2 206.91-9.42L206.91-9.42Q206.91-18.85 202.67-18.85ZM225.42-3.17L225.42-3.17Q226.69-3.17 227.39-3.78 228.1-4.39 228.1-5.27L228.1-5.27 228.1-10.21Q228-10.16 227.15-9.89 226.3-9.62 226.05-9.52 225.81-9.42 225.12-9.16 224.44-8.89 224.17-8.67 223.9-8.45 223.51-8.11 223.12-7.76 222.98-7.37 222.83-6.98 222.83-6.49L222.83-6.49Q222.83-4.74 223.59-3.96 224.34-3.17 225.42-3.17ZM227.37-21.92L227.37-21.92Q230.79-21.92 232.62-20.04 234.45-18.16 234.45-13.23L234.45-13.23 234.45-5.32Q234.45-3.66 235.62-3.66L235.62-3.66Q236.45-3.66 237.28-4.3L237.28-4.3Q237.62-4.1 237.62-3.56L237.62-3.56Q237.62-2.34 237.28-1.76L237.28-1.76Q236.6-1.12 235.06-0.42 233.52 0.29 232.16 0.29L232.16 0.29Q230.98 0.29 229.91-0.42 228.83-1.12 228.49-2.05L228.49-2.05Q228.44-2.05 228.1-1.78 227.76-1.51 227.22-1.17 226.69-0.83 225.98-0.49 225.27-0.15 224.29 0.1 223.32 0.34 222.34 0.34L222.34 0.34Q219.66 0.34 218.07-1.15 216.48-2.64 216.48-4.88L216.48-4.88Q216.48-6.2 217.09-7.3 217.7-8.4 218.51-9.11 219.31-9.81 220.68-10.42 222.05-11.04 223.02-11.35 224-11.67 225.54-12.08 227.08-12.5 227.66-12.7L227.66-12.7Q228.1-12.84 228.1-13.43L228.1-13.43 228.1-15.19Q228.1-19.19 225.66-19.19L225.66-19.19Q222.83-19.19 222.83-15.92L222.83-15.92Q222.83-14.84 221.95-14.33 221.07-13.82 220-13.82L220-13.82Q217.75-13.82 216.92-15.28L216.92-15.28Q216.92-17.77 220.22-19.85 223.51-21.92 227.37-21.92ZM251.78-21.83L251.78-21.83Q253.88-21.83 255.71-21.19 257.54-20.56 258.28-20 259.01-19.43 259.4-18.95L259.4-18.95Q259.4-14.45 256.76-14.45L256.76-14.45Q254.86-14.45 253.88-16.89L253.88-16.89Q253.44-18.02 252.78-18.58 252.12-19.14 250.95-19.14L250.95-19.14Q247.05-19.14 247.05-11.82L247.05-11.82Q247.05-3.56 252.56-3.56L252.56-3.56Q254.17-3.56 255.64-4.03 257.1-4.49 257.69-4.86 258.28-5.22 259.25-5.96L259.25-5.96Q259.69-5.76 259.69-5.03L259.69-5.03Q259.69-4.44 259.5-4.05L259.5-4.05Q259.01-2.83 256.59-1.25 254.17 0.34 251.15 0.34L251.15 0.34Q246.46 0.34 243.29-2.95 240.11-6.25 240.11-11.04L240.11-11.04Q240.11-15.53 243.51-18.68 246.9-21.83 251.78-21.83ZM286.4-15.97L286.4-15.97 286.4-6.4Q286.4-3.86 286.89-3.32L286.89-3.32Q287.13-3.08 287.67-2.95 288.2-2.83 288.74-2.83L288.74-2.83 289.23-2.83Q289.43-2.73 289.43-2.44L289.43-2.44Q289.43-1.03 289.13-1.03L289.13-1.03Q288.4-0.98 287.23-0.83 286.06-0.68 284.88-0.51 283.71-0.34 282.66-0.17 281.61 0 280.93 0.1L280.93 0.1 280.25 0.24Q279.95 0.24 279.95-0.63L279.95-0.63 279.95-2.44Q279.95-2.64 279.9-2.69 279.86-2.73 279.76-2.64L279.76-2.64Q278.73-1.56 276.75-0.68 274.78 0.2 272.48 0.2L272.48 0.2Q269.6 0.2 267.87-2.34 266.13-4.88 266.13-8.5L266.13-8.5 266.13-13.23Q266.13-15.97 265.26-16.89L265.26-16.89Q264.91-17.29 264.23-17.53 263.55-17.77 263.06-17.87 262.57-17.97 262.57-18.02L262.57-18.02Q262.57-19.73 262.81-19.73L262.81-19.73Q263.74-19.73 267.06-20.39 270.38-21.04 271.75-21.48L271.75-21.48 271.99-21.58Q272.24-21.63 272.29-21.63L272.29-21.63Q272.53-21.63 272.78-21.31 273.02-21 273.02-20.8L273.02-20.8Q272.48-16.5 272.48-15.92L272.48-15.92 272.48-10.69Q272.48-6.88 273.46-5.35 274.44-3.81 276.73-3.81L276.73-3.81Q278.39-3.81 279.22-4.57 280.05-5.32 280.05-6.25L280.05-6.25 280.05-13.23Q280.05-15.97 279.17-16.89L279.17-16.89Q278.83-17.29 278.15-17.53 277.46-17.77 276.97-17.87 276.49-17.97 276.49-18.02L276.49-18.02Q276.49-19.73 276.73-19.73L276.73-19.73Q277.66-19.73 280.98-20.39 284.3-21.04 285.67-21.48L285.67-21.48Q285.71-21.48 285.96-21.58L285.96-21.58 286.2-21.63Q286.45-21.63 286.69-21.31 286.94-21 286.94-20.8L286.94-20.8Q286.4-16.5 286.4-15.97ZM300.41-21.92L300.41-21.92Q304.71-21.92 306.76-20.95L306.76-20.95Q307.25-18.7 307.25-14.89L307.25-14.89Q307.25-14.45 306.61-14.45L306.61-14.45Q305.1-14.45 305-14.84L305-14.84Q304.56-16.89 303.51-18.07 302.46-19.24 300.17-19.24L300.17-19.24Q299.09-19.24 298.41-18.73 297.72-18.21 297.72-17.24L297.72-17.24Q297.72-16.11 298.7-15.31 299.68-14.5 301.58-13.57L301.58-13.57Q302.9-12.94 303.66-12.5 304.41-12.06 305.66-11.11 306.9-10.16 307.51-8.89 308.12-7.62 308.12-6.05L308.12-6.05Q308.12-2.83 305.66-1.17 303.19 0.49 299.38 0.49L299.38 0.49Q297.68 0.49 295.58-0.05 293.48-0.59 292.55-1.37L292.55-1.37Q291.96-4.74 291.96-7.32L291.96-7.32Q292.16-7.47 292.69-7.47L292.69-7.47Q294.26-7.47 294.31-7.03L294.31-7.03Q295.14-2.2 299.58-2.2L299.58-2.2Q300.75-2.2 301.53-2.73 302.31-3.27 302.31-4.25L302.31-4.25Q302.31-5.47 301.26-6.3 300.21-7.13 297.48-8.5L297.48-8.5Q294.65-9.86 293.28-11.5 291.91-13.13 291.91-15.53L291.91-15.53Q291.91-18.85 294.45-20.39 296.99-21.92 300.41-21.92ZM340.25-1.61L340.25-1.61Q341.32-1.61 342.45-2.08 343.57-2.54 343.57-3.32L343.57-3.32Q343.57-3.42 342.35-6.59L342.35-6.59 340.88-10.16Q340.69-10.35 340.54-10.35L340.54-10.35Q339.61-10.4 335.85-10.4L335.85-10.4Q332.63-10.4 330.92-10.35L330.92-10.35Q330.73-10.35 330.58-10.11L330.58-10.11Q330.58-10.11 328.97-6.4L328.97-6.4Q327.99-4.2 327.99-3.42 327.99-2.64 328.87-2.2 329.75-1.76 330.41-1.68 331.07-1.61 331.56-1.61L331.56-1.61Q331.7-1.56 331.7-0.83 331.7-0.1 331.61 0.2L331.61 0.2Q330.97 0.15 329.04-0.02 327.11-0.2 325.89-0.2 324.67-0.2 322.96-0.02 321.25 0.15 320.33 0.2L320.33 0.2Q320.13 0 320.13-0.54L320.13-0.54Q320.13-1.56 320.23-1.56L320.23-1.56Q320.81-1.56 322.18-2.08 323.55-2.59 323.89-3.13L323.89-3.13Q324.28-3.71 324.7-4.57 325.11-5.42 325.36-5.96L325.36-5.96 325.6-6.54 336.39-31.35Q336.93-32.62 338.2-32.62L338.2-32.62Q338.93-32.62 339.37-31.98L339.37-31.98 349.38-7.23Q350.31-4.98 350.99-3.22L350.99-3.22Q351.28-2.44 352.6-2.03 353.92-1.61 354.6-1.61L354.6-1.61Q354.8-1.61 354.8-0.78 354.8 0.05 354.7 0.2L354.7 0.2Q354.51 0.2 351.7 0 348.89-0.2 347.62-0.2L347.62-0.2Q347.28-0.2 340.25 0.2L340.25 0.2Q340.05 0 340.05-0.81 340.05-1.61 340.25-1.61ZM332.24-13.48L332.24-13.48Q333.71-13.33 335.85-13.33L335.85-13.33Q337.81-13.33 339.32-13.43L339.32-13.43 339.47-13.67 335.95-22.41 332.14-13.67Q332.14-13.48 332.24-13.48ZM367.69-21.83L367.69-21.83Q369.79-21.83 371.62-21.19 373.45-20.56 374.18-20 374.91-19.43 375.3-18.95L375.3-18.95Q375.3-14.45 372.67-14.45L372.67-14.45Q370.76-14.45 369.79-16.89L369.79-16.89Q369.35-18.02 368.69-18.58 368.03-19.14 366.86-19.14L366.86-19.14Q362.95-19.14 362.95-11.82L362.95-11.82Q362.95-3.56 368.47-3.56L368.47-3.56Q370.08-3.56 371.54-4.03 373.01-4.49 373.6-4.86 374.18-5.22 375.16-5.96L375.16-5.96Q375.6-5.76 375.6-5.03L375.6-5.03Q375.6-4.44 375.4-4.05L375.4-4.05Q374.91-2.83 372.5-1.25 370.08 0.34 367.05 0.34L367.05 0.34Q362.36 0.34 359.19-2.95 356.02-6.25 356.02-11.04L356.02-11.04Q356.02-15.53 359.41-18.68 362.8-21.83 367.69-21.83ZM387.61-3.17L387.61-3.17Q388.88-3.17 389.58-3.78 390.29-4.39 390.29-5.27L390.29-5.27 390.29-10.21Q390.19-10.16 389.34-9.89 388.49-9.62 388.24-9.52 388-9.42 387.31-9.16 386.63-8.89 386.36-8.67 386.09-8.45 385.7-8.11 385.31-7.76 385.17-7.37 385.02-6.98 385.02-6.49L385.02-6.49Q385.02-4.74 385.78-3.96 386.53-3.17 387.61-3.17ZM389.56-21.92L389.56-21.92Q392.98-21.92 394.81-20.04 396.64-18.16 396.64-13.23L396.64-13.23 396.64-5.32Q396.64-3.66 397.81-3.66L397.81-3.66Q398.64-3.66 399.47-4.3L399.47-4.3Q399.81-4.1 399.81-3.56L399.81-3.56Q399.81-2.34 399.47-1.76L399.47-1.76Q398.79-1.12 397.25-0.42 395.71 0.29 394.34 0.29L394.34 0.29Q393.17 0.29 392.1-0.42 391.02-1.12 390.68-2.05L390.68-2.05Q390.63-2.05 390.29-1.78 389.95-1.51 389.41-1.17 388.88-0.83 388.17-0.49 387.46-0.15 386.48 0.1 385.51 0.34 384.53 0.34L384.53 0.34Q381.84 0.34 380.26-1.15 378.67-2.64 378.67-4.88L378.67-4.88Q378.67-6.2 379.28-7.3 379.89-8.4 380.7-9.11 381.5-9.81 382.87-10.42 384.24-11.04 385.21-11.35 386.19-11.67 387.73-12.08 389.27-12.5 389.85-12.7L389.85-12.7Q390.29-12.84 390.29-13.43L390.29-13.43 390.29-15.19Q390.29-19.19 387.85-19.19L387.85-19.19Q385.02-19.19 385.02-15.92L385.02-15.92Q385.02-14.84 384.14-14.33 383.26-13.82 382.19-13.82L382.19-13.82Q379.94-13.82 379.11-15.28L379.11-15.28Q379.11-17.77 382.41-19.85 385.7-21.92 389.56-21.92ZM413.34-19.19L413.34-19.19Q411.04-19.19 409.99-17.36 408.94-15.53 408.94-11.52L408.94-11.52Q408.94-2.69 413.34-2.69L413.34-2.69Q415-2.69 416.1-3.64 417.19-4.59 417.19-5.96L417.19-5.96 417.19-14.84Q417.19-15.43 417.1-15.97 417-16.5 416.66-17.33 416.31-18.16 415.46-18.68 414.61-19.19 413.34-19.19ZM413.63-21.83L413.63-21.83Q415.63-21.83 417.05-21.39L417.05-21.39Q417.19-21.39 417.19-22.07L417.19-22.07 417.19-25.93Q417.19-27.98 416.9-29.44L416.9-29.44Q416.66-30.22 414.36-30.22L414.36-30.22 413.92-30.22Q413.63-30.22 413.63-31.2L413.63-31.2Q413.63-32.03 413.92-32.03L413.92-32.03Q415.44-32.18 416.97-32.42 418.51-32.67 419.59-32.91 420.66-33.15 421.52-33.4 422.37-33.64 422.86-33.79L422.86-33.79 423.35-33.94 423.44-33.94Q423.64-33.94 423.83-33.64 424.03-33.35 424.08-33.11L424.08-33.11Q423.54-30.91 423.54-28.17L423.54-28.17 423.54-7.18Q423.54-5.08 423.83-3.66L423.83-3.66Q423.93-3.32 424.37-3.13 424.81-2.93 425.3-2.88 425.79-2.83 426.23-2.83L426.23-2.83 426.72-2.78Q426.86-2.73 426.86-2.2L426.86-2.2Q426.86-0.98 426.57-0.98L426.57-0.98Q425.84-0.93 424.64-0.78 423.44-0.63 422.25-0.46 421.05-0.29 419.98-0.12 418.9 0.05 418.22 0.2L418.22 0.2 417.49 0.29Q417.19 0.29 417.19-0.54L417.19-0.54 417.19-1.56Q417.19-1.76 417.15-1.81 417.1-1.86 417-1.76L417-1.76Q414.95 0.29 412.07 0.29L412.07 0.29Q408.11 0.29 405.01-2.66 401.91-5.62 401.91-10.35L401.91-10.35Q401.91-15.23 405.26-18.53 408.6-21.83 413.63-21.83ZM439.7-19.14L439.7-19.14Q437.8-19.14 436.92-17.31 436.04-15.48 436.04-13.72L436.04-13.72Q436.04-13.43 436.38-13.43L436.38-13.43 442.58-13.43Q443.27-13.43 443.27-14.36L443.27-14.36Q443.27-16.21 442.26-17.68 441.26-19.14 439.7-19.14ZM439.95-21.83L439.95-21.83Q444.34-21.83 447-18.77 449.66-15.72 449.66-12.55L449.66-12.55Q449.66-11.43 449.2-11.08 448.73-10.74 447.37-10.74L447.37-10.74 436.33-10.74Q436.04-10.74 436.04-10.4L436.04-10.4Q436.04-7.76 437.53-5.66 439.02-3.56 441.8-3.56L441.8-3.56Q443.41-3.56 444.88-4.03 446.34-4.49 446.93-4.86 447.51-5.22 448.49-5.96L448.49-5.96Q448.93-5.76 448.93-5.03L448.93-5.03Q448.93-4.44 448.73-4.05L448.73-4.05Q448.25-2.88 445.8-1.27 443.36 0.34 440.34 0.34L440.34 0.34Q435.84 0.34 432.6-2.93 429.35-6.2 429.35-10.79L429.35-10.79Q429.35-15.48 432.28-18.65 435.21-21.83 439.95-21.83ZM469.53-21.78L469.53-21.78Q473.05-21.78 474.71-18.41L474.71-18.41Q477.74-21.73 483.5-21.78L483.5-21.78Q486.33-21.78 488.11-19.38 489.89-16.99 489.89-12.11L489.89-12.11 489.89-7.28Q489.89-4.15 490.24-2.83L490.24-2.83Q490.33-2.49 491.55-2.05 492.77-1.61 493.21-1.61L493.21-1.61Q493.36-1.61 493.39-0.81 493.41 0 493.31 0.2L493.31 0.2Q492.77 0.15 490.31-0.02 487.84-0.2 486.72-0.2L486.72-0.2Q485.55-0.2 483.13-0.02 480.71 0.15 480.13 0.2L480.13 0.2Q479.93 0 479.93-0.81 479.93-1.61 480.13-1.61L480.13-1.61Q480.67-1.61 481.89-2.05 483.11-2.49 483.2-2.83L483.2-2.83Q483.55-4.3 483.55-6.54L483.55-6.54 483.55-10.94Q483.55-14.31 482.55-15.97 481.54-17.63 479.35-17.63L479.35-17.63Q476.61-17.63 475.93-15.77L475.93-15.77Q475.78-15.38 475.83-14.75L475.83-14.75Q475.93-13.87 475.93-12.11L475.93-12.11 475.93-7.28Q475.93-4.15 476.27-2.83L476.27-2.83Q476.37-2.49 477.59-2.05 478.81-1.61 479.25-1.61L479.25-1.61Q479.4-1.61 479.42-0.81 479.44 0 479.35 0.2L479.35 0.2Q478.81 0.15 476.34-0.02 473.88-0.2 472.76-0.2L472.76-0.2Q471.58-0.2 469.17-0.02 466.75 0.15 466.16 0.2L466.16 0.2Q465.97 0 465.97-0.81 465.97-1.61 466.16-1.61L466.16-1.61Q466.7-1.61 467.92-2.05 469.14-2.49 469.24-2.83L469.24-2.83Q469.58-4.3 469.58-6.54L469.58-6.54 469.58-10.94Q469.58-14.55 468.58-16.09 467.58-17.63 465.38-17.63L465.38-17.63Q463.87-17.63 462.94-17.07 462.01-16.5 462.01-15.48L462.01-15.48 462.01-7.28Q462.01-4.15 462.35-2.83L462.35-2.83Q462.45-2.49 463.65-2.05 464.85-1.61 465.24-1.61L465.24-1.61Q465.38-1.61 465.41-0.81 465.43 0 465.33 0.2L465.33 0.2Q464.75 0.15 462.35-0.02 459.96-0.2 458.84-0.2L458.84-0.2Q457.67-0.2 455.18-0.02 452.69 0.15 452.15 0.2L452.15 0.2Q451.95 0 451.95-0.81 451.95-1.61 452.15-1.61L452.15-1.61Q452.69-1.61 453.96-2.05 455.23-2.49 455.32-2.83L455.32-2.83Q455.67-4.3 455.67-6.54L455.67-6.54 455.67-13.23Q455.67-15.97 454.79-16.89L454.79-16.89Q454.44-17.29 453.76-17.53 453.08-17.77 452.59-17.87 452.1-17.97 452.1-18.02L452.1-18.02Q452.1-19.73 452.35-19.73L452.35-19.73Q452.93-19.73 454.3-20 455.67-20.26 457.86-20.75 460.06-21.24 461.28-21.48L461.28-21.48Q461.38-21.48 461.5-21.53 461.62-21.58 461.72-21.58L461.72-21.58 461.82-21.63Q462.06-21.63 462.31-21.31 462.55-21 462.55-20.8L462.55-20.8Q462.35-19.43 462.35-19.29L462.35-19.29Q462.35-19.04 462.4-18.99L462.4-18.99Q462.5-18.99 462.75-19.24L462.75-19.24Q465.48-21.78 469.53-21.78ZM501.22-21.24L501.22-21.24Q502.29-21.24 504.69-21.41 507.08-21.58 507.62-21.63L507.62-21.63Q507.76-21.19 507.76-20.61L507.76-20.61Q507.76-19.82 507.57-19.82L507.57-19.82Q506.93-19.82 505.74-19.43 504.54-19.04 504.54-18.55L504.54-18.55 504.59-18.12Q504.69-17.33 508.4-8.59L508.4-8.59Q511.72-15.77 512.01-16.5L512.01-16.5Q512.3-17.19 512.3-17.97L512.3-17.97Q512.3-18.26 512.03-18.65 511.77-19.04 510.94-19.43 510.11-19.82 508.84-19.82L508.84-19.82Q508.64-19.82 508.64-20.7L508.64-20.7Q508.64-21.34 508.74-21.63L508.74-21.63Q509.33-21.58 511.64-21.41 513.96-21.24 515.14-21.24L515.14-21.24Q516.16-21.24 517.87-21.41 519.58-21.58 520.36-21.63L520.36-21.63Q520.56-21.24 520.56-20.8L520.56-20.8Q520.56-19.82 520.36-19.82L520.36-19.82Q519.63-19.82 518.19-19.34 516.75-18.85 516.26-17.87L516.26-17.87 507.18 1.81Q503.12 10.64 497.7 10.64L497.7 10.64Q496.24 10.64 495.34 9.86 494.43 9.08 494.43 8.06L494.43 8.06Q494.43 6.54 495.56 5.76L495.56 5.76Q501.76 5.76 503.61 1.95L503.61 1.95Q504.74-0.44 505.13-1.27L505.13-1.27 497.85-17.38 497.61-17.97Q497.12-18.99 496.12-19.41 495.12-19.82 494.38-19.82L494.38-19.82Q494.19-19.82 494.19-20.56L494.19-20.56Q494.19-21.53 494.29-21.63L494.29-21.63Q494.68-21.63 497.36-21.44 500.05-21.24 501.22-21.24Z"
                                                                opacity="1" transform="matrix(1,0,0,1,0,0)"
                                                                fill="#233565" class="wordmark-text-0"
                                                                data-fill-palette-color="primary" id="text-0"></path>
                                                        </svg></g>
                                                </svg></g>
                                        </svg></g>
                                </svg></g>
                            <g></g>
                        </svg></g>
                    <defs></defs>
                </svg>
                <rect width="395.52" height="98.45133428846009" fill="none" stroke="none" visibility="hidden"></rect>
            </g>
        </svg></g>
</svg>