<svg xmlns="http://www.w3.org/2000/svg" version="1.1" xmlns:xlink="http://www.w3.org/1999/xlink" xmlns:svgjs="http://svgjs.dev/svgjs" width="1000" height="1000" viewBox="0 0 1000 1000"><rect width="1000" height="1000" fill="#000000"></rect><g transform="matrix(0.7,0,0,0.7,150,281.25)"><svg viewBox="0 0 512 320" data-background-color="#ffffff" preserveAspectRatio="xMidYMid meet" height="625" width="1000" xmlns="http://www.w3.org/2000/svg" xmlns:xlink="http://www.w3.org/1999/xlink"><g id="tight-bounds" transform="matrix(1,0,0,1,0,0)"><svg viewBox="0 0 512 320" height="320" width="512"><g><svg></svg></g><g><svg viewBox="0 0 512 320" height="320" width="512"><g><path transform="translate(256,160) scale(160,160)" d="M-1 0c0-0.552 0.448-1 1-1 0.552 0 1 0.448 1 1 0 0.552-0.448 1-1 1-0.552 0-1-0.448-1-1z" fill="#ffffff" fill-rule="nonzero" stroke="none" stroke-width="1" stroke-linecap="butt" stroke-linejoin="miter" stroke-miterlimit="10" stroke-dasharray="" stroke-dashoffset="0" font-family="none" font-weight="none" font-size="none" text-anchor="none" style="mix-blend-mode: normal" data-fill-palette-color="tertiary"></path></g><g transform="matrix(1,0,0,1,216.14992860327874,80)"><svg viewBox="0 0 79.70014279344251 160" height="160" width="79.70014279344251"><g><svg viewBox="0 0 79.70014279344251 160" height="160" width="79.70014279344251"><g><svg viewBox="0 0 196.2951111111111 394.0672711111111" height="160" width="79.70014279344251"><g transform="matrix(1,0,0,1,18.74014814814815,234.0672711111111)"><svg viewBox="0 0 158.8148148148148 160" height="160" width="158.8148148148148"><g id="textblocktransform"><svg viewBox="0 0 158.8148148148148 160" height="160" width="158.8148148148148" id="textblock"><g><svg viewBox="0 0 158.8148148148148 160" height="160" width="158.8148148148148"><g transform="matrix(1,0,0,1,0,0)"><svg width="158.8148148148148" viewBox="1.42 -6.01 6.540000000000001 6.6" height="160" data-palette-color="#ffffff"><path d="M7.01-5.03Q7.96-4.05 7.96-2.73 7.96-1.42 7.01-0.42 6.05 0.59 4.74 0.59L4.74 0.59Q3.37 0.59 2.39-0.42 1.42-1.42 1.42-2.73 1.42-4.05 2.39-5.03 3.37-6.01 4.74-6.01L4.74-6.01Q6.05-6.01 7.01-5.03Z" opacity="1" transform="matrix(1,0,0,1,0,0)" fill="#000000" class="wordmark-text-0" data-fill-palette-color="quaternary" id="text-0"></path></svg></g></svg></g></svg></g></svg></g><g><svg viewBox="0 0 196.2951111111111 196.2951111111111" height="196.2951111111111" width="196.2951111111111"><g><svg xmlns="http://www.w3.org/2000/svg" xmlns:xlink="http://www.w3.org/1999/xlink" version="1.1" x="0" y="0" viewBox="0 0 100 100" enable-background="new 0 0 100 100" xml:space="preserve" height="196.2951111111111" width="196.2951111111111" class="icon-icon-0" data-fill-palette-color="quaternary" id="icon-0"><path d="M53.5 0v46.5H100V0H53.5zM91.029 26.75H62.471v-7h28.559V26.75z" fill="#000000" data-fill-palette-color="quaternary"></path><path d="M0 0v46.5h46.5V0H0zM37.53 26.75H26.75v10.78h-7V26.75H8.97v-7h10.78V8.97h7v10.78h10.78V26.75z" fill="#000000" data-fill-palette-color="quaternary"></path><path d="M0 53.5V100h46.5V53.5H0zM32.92 91.369l-9.67-9.671-9.671 9.671L8.63 86.42l9.671-9.671L8.632 67.08l4.95-4.949 9.668 9.669 9.669-9.669 4.949 4.949L28.2 76.749l9.67 9.671L32.92 91.369z" fill="#000000" data-fill-palette-color="quaternary"></path><path d="M53.5 53.5V100H100V53.5H53.5zM91.029 86.096H62.471v-7h28.559V86.096zM91.029 74.404H62.471v-7h28.559V74.404z" fill="#000000" data-fill-palette-color="quaternary"></path></svg></g></svg></g><g></g></svg></g></svg></g></svg></g></svg></g><defs></defs></svg><rect width="512" height="320" fill="none" stroke="none" visibility="hidden"></rect></g></svg></g></svg>