<svg xmlns="http://www.w3.org/2000/svg" version="1.1" xmlns:xlink="http://www.w3.org/1999/xlink" xmlns:svgjs="http://svgjs.dev/svgjs" width="1000" height="1000" viewBox="0 0 1000 1000"><rect width="1000" height="1000" fill="#000000"></rect><g transform="matrix(0.7,0,0,0.7,150,281.25)"><svg viewBox="0 0 512 320" data-background-color="#ffffff" preserveAspectRatio="xMidYMid meet" height="625" width="1000" xmlns="http://www.w3.org/2000/svg" xmlns:xlink="http://www.w3.org/1999/xlink"><g id="tight-bounds" transform="matrix(1,0,0,1,0,0)"><svg viewBox="0 0 512 320" height="320" width="512"><g><svg></svg></g><g><svg viewBox="0 0 512 320" height="320" width="512"><g><path transform="translate(256,160) scale(160,160)" d="M-1 0c0-0.552 0.448-1 1-1 0.552 0 1 0.448 1 1 0 0.552-0.448 1-1 1-0.552 0-1-0.448-1-1z" fill="#ffffff" fill-rule="nonzero" stroke="none" stroke-width="1" stroke-linecap="butt" stroke-linejoin="miter" stroke-miterlimit="10" stroke-dasharray="" stroke-dashoffset="0" font-family="none" font-weight="none" font-size="none" text-anchor="none" style="mix-blend-mode: normal" data-fill-palette-color="tertiary"></path></g><g transform="matrix(1,0,0,1,153.6,110.98710296068376)"><svg viewBox="0 0 204.8 98.02579407863249" height="98.02579407863249" width="204.8"><g><svg viewBox="0 0 204.8 98.02579407863249" height="98.02579407863249" width="204.8"><g><svg viewBox="0 0 204.8 98.02579407863249" height="98.02579407863249" width="204.8"><g transform="matrix(1,0,0,1,0,73.51981117264958)"><svg viewBox="0 0 204.8 24.505982905982908" height="24.505982905982908" width="204.8"><g id="textblocktransform"><svg viewBox="0 0 204.8 24.505982905982908" height="24.505982905982908" width="204.8" id="textblock"><g><svg viewBox="0 0 204.8 24.505982905982908" height="24.505982905982908" width="204.8"><g transform="matrix(1,0,0,1,0,0)"><svg width="204.8" viewBox="2.98 -0.63 22.849999999999998 2.73" height="24.505982905982908" data-palette-color="#ffffff"><path d="M2.98 1.61L2.98 1.61Q3.22-0.63 3.71-0.63L3.71-0.63 25.63-0.63Q25.83-0.63 25.83-0.39L25.83-0.39Q25.83 0 25.34 1.81L25.34 1.81Q25.29 1.95 25.22 2.03 25.15 2.1 25.1 2.1L25.1 2.1 25.05 2.1 3.32 2.1Q2.98 2.1 2.98 1.61Z" opacity="1" transform="matrix(1,0,0,1,0,0)" fill="#000000" class="wordmark-text-0" data-fill-palette-color="quaternary" id="text-0"></path></svg></g></svg></g></svg></g></svg></g><g transform="matrix(1,0,0,1,68.53273162393162,0)"><svg viewBox="0 0 67.73453675213676 67.73453675213676" height="67.73453675213676" width="67.73453675213676"><g><svg xmlns="http://www.w3.org/2000/svg" xmlns:xlink="http://www.w3.org/1999/xlink" version="1.1" x="0" y="0" viewBox="0 0 100 100" enable-background="new 0 0 100 100" xml:space="preserve" height="67.73453675213676" width="67.73453675213676" class="icon-icon-0" data-fill-palette-color="quaternary" id="icon-0"><path d="M53.5 0v46.5H100V0H53.5zM91.029 26.75H62.471v-7h28.559V26.75z" fill="#000000" data-fill-palette-color="quaternary"></path><path d="M0 0v46.5h46.5V0H0zM37.53 26.75H26.75v10.78h-7V26.75H8.97v-7h10.78V8.97h7v10.78h10.78V26.75z" fill="#000000" data-fill-palette-color="quaternary"></path><path d="M0 53.5V100h46.5V53.5H0zM32.92 91.369l-9.67-9.671-9.671 9.671L8.63 86.42l9.671-9.671L8.632 67.08l4.95-4.949 9.668 9.669 9.669-9.669 4.949 4.949L28.2 76.749l9.67 9.671L32.92 91.369z" fill="#000000" data-fill-palette-color="quaternary"></path><path d="M53.5 53.5V100H100V53.5H53.5zM91.029 86.096H62.471v-7h28.559V86.096zM91.029 74.404H62.471v-7h28.559V74.404z" fill="#000000" data-fill-palette-color="quaternary"></path></svg></g></svg></g><g></g></svg></g></svg></g></svg></g></svg></g><defs></defs></svg><rect width="512" height="320" fill="none" stroke="none" visibility="hidden"></rect></g></svg></g></svg>