<svg xmlns="http://www.w3.org/2000/svg" version="1.1" xmlns:xlink="http://www.w3.org/1999/xlink" xmlns:svgjs="http://svgjs.dev/svgjs" width="1000" height="133" viewBox="0 0 1000 133"><g transform="matrix(1,0,0,1,-0.6060606060606233,0.022772753780429866)"><svg viewBox="0 0 396 53" data-background-color="#ffffff" preserveAspectRatio="xMidYMid meet" height="133" width="1000" xmlns="http://www.w3.org/2000/svg" xmlns:xlink="http://www.w3.org/1999/xlink"><g id="tight-bounds" transform="matrix(1,0,0,1,0.2400000000000091,-0.009074856769643702)"><svg viewBox="0 0 395.52 53.01814971353931" height="53.01814971353931" width="395.52"><g><svg viewBox="0 0 464.38490068066653 62.249262209230025" height="53.01814971353931" width="395.52"><g transform="matrix(1,0,0,1,68.86490068066658,8.603190363214857)"><svg viewBox="0 0 395.52 45.04288148280031" height="45.04288148280031" width="395.52"><g id="textblocktransform"><svg viewBox="0 0 395.52 45.04288148280031" height="45.04288148280031" width="395.52" id="textblock"><g><svg viewBox="0 0 395.52 28.023341938344263" height="28.023341938344263" width="395.52"><g transform="matrix(1,0,0,1,0,0)"><svg width="395.52" viewBox="3.0999999046325684 -36.75757598876953 537.800048828125 38.107574462890625" height="28.023341938344263" data-palette-color="#a437db"><path d="M5.7-34.5L9.5-34.6 12.7-34.7Q13.3-34.7 14.05-34.75 14.8-34.8 15.55-34.85L15.55-34.85Q17.25-35 18.35-35L18.35-35 22.55-34.95Q23.7-34.95 23.7-34.2L23.7-34.2 23.7-31.7Q23.7-31.25 23.53-31.18 23.35-31.1 22.8-31.1L22.8-31.1Q22.15-31.1 21.65-31.15L21.65-31.15 18.45-31.2Q16.55-31.2 14.75-31L14.75-31 12.3-30.85 12.15-29.95Q12.05-28.85 12.05-28.2L12.05-28.2 12-23.75 11.95-21.2 11.95-20Q13-20 13.5-20.05L13.5-20.05 15.9-20.1 17.9-20.15Q18.6-20.2 19.85-20.2L19.85-20.2Q20.65-20.2 20.93-20 21.2-19.8 21.2-19.35L21.2-19.35 21.15-17.7Q21.15-17.3 20.93-17.15 20.7-17 20-17L20-17Q19.1-17 18.5-17.05L18.5-17.05 16.5-17.1 11.85-17.1Q11.85-15.8 11.9-15.2L11.9-15.2 11.95-12.05 11.9-9.6Q11.8-8 11.8-7.15L11.8-7.15 11.85-1.25Q11.85-0.6 11.58-0.35 11.3-0.1 10.7-0.1L10.7-0.1Q10.45-0.1 9.55-0.2L9.55-0.2Q9.1-0.25 7.7-0.25L7.7-0.25 4.05-0.2Q3.5-0.25 3.38-0.4 3.25-0.55 3.25-0.83 3.25-1.1 3.25-1.2L3.25-1.2 3.2-3.85Q3.2-4.55 3.15-5.05L3.15-5.05 3.1-8.45Q3.1-9.2 3.18-9.98 3.25-10.75 3.25-11.1L3.25-11.1Q3.4-12.25 3.4-13.7L3.4-13.7 3.35-19.4 3.4-22.7Q3.5-25 3.5-26.2L3.5-26.2Q3.5-29 3.4-33.1L3.4-33.1Q3.4-34 3.63-34.3 3.85-34.6 4.3-34.6L4.3-34.6Q4.6-34.6 4.93-34.55 5.25-34.5 5.7-34.5L5.7-34.5ZM28.45-35.25Q29.1-35.2 29.72-35.23 30.35-35.25 30.8-35.25L30.8-35.25Q31.9-35.25 32.4-35.2L32.4-35.2Q33-35.15 33.25-34.95 33.5-34.75 33.5-34.4L33.5-34.4Q33.5-34.15 33.45-33.85 33.4-33.55 33.35-33.3L33.35-33.3Q32.8-29.05 32.75-24.55L32.75-24.55Q32.7-23.25 32.7-20.55L32.7-20.55 32.75-14.5Q32.8-13.75 32.8-12.95L32.8-12.95 32.85-10.95Q32.95-8.35 32.95-7.1L32.95-7.1Q32.95-6.15 32.9-5.95L32.9-5.95Q32.85-5.75 32.85-4.8L32.85-4.8 32.9-2.05Q32.95-1.45 32.95-0.55L32.95-0.55Q33 0.1 32.57 0.28 32.15 0.45 31.45 0.4L31.45 0.4 26.9 0.4Q26.15 0.45 25.95 0.08 25.75-0.3 25.7-1.15L25.7-1.15Q25.6-1.5 25.8-3L25.8-3Q26-4.4 26-5.4L26-5.4Q26-5.75 26.35-12.15L26.35-12.15Q26.65-16.85 26.65-17.3L26.65-17.3 26.75-22.2 26.85-26.75 26.95-29.45 27.05-31.25 27.05-33.35Q27.05-35.3 28.05-35.3L28.05-35.3Q28.3-35.3 28.45-35.25L28.45-35.25ZM53.09-31.15Q53.09-34.25 53.14-35L53.14-35Q53.14-35.95 53.8-36.15 54.45-36.35 55.7-36.35L55.7-36.35Q56.8-36.35 58.52-36.48 60.25-36.6 61.2-36.75L61.2-36.75Q61.9-36.8 62.2-36.52 62.5-36.25 62.5-35.6L62.5-35.6Q62.5-35.4 62.4-34.5L62.4-34.5Q62.3-33.75 62.3-24.55L62.3-24.55 62.3-13.25Q62.3-10.7 62.37-7.63 62.45-4.55 62.55-2.1 62.65 0.35 62.65-0.75L62.65-0.75Q62.65 0.05 61.84 0.05L61.84 0.05Q61.5 0.05 61.25 0L61.25 0Q61.05-0.05 60.45-0.05L60.45-0.05Q59.84-0.05 58.55 0.05L58.55 0.05Q57.15 0.15 56.59 0.15L56.59 0.15Q55.65 0.15 55.17-0.25 54.7-0.65 54.2-1.7L54.2-1.7 53.34-3.4Q51.84-6.75 50.7-8.65L50.7-8.65Q50.05-9.75 47.4-14.7L47.4-14.7 45.2-18.85 45.2-16.95 45.2-15.8Q45.2-15.4 45.17-14.8 45.15-14.2 45.2-13.45L45.2-13.45Q45.2-10.85 45.27-6.65 45.34-2.45 45.5-1.6L45.5-1.6Q45.55-1.35 45.55-1L45.55-1Q45.55-0.5 45.34-0.38 45.15-0.25 44.59-0.3L44.59-0.3Q43.8-0.3 42.72-0.2 41.65-0.1 40.7 0L40.7 0Q39.95 0.1 39.72-0.25 39.49-0.6 39.55-1.8L39.55-1.8Q39.55-3.6 39.4-8.15L39.4-8.15Q39.2-12.9 39.15-16.4L39.15-16.4Q39.15-19.95 39.3-23.6L39.3-23.6Q39.4-28.2 39.4-29.9L39.4-29.9Q39.4-32.2 39.24-33.25L39.24-33.25Q39.15-34.15 39.15-34.4L39.15-34.4Q39.15-35.3 39.45-35.63 39.74-35.95 40.24-35.95L40.24-35.95Q40.49-35.95 41.25-35.93 42-35.9 43.4-36.25L43.4-36.25Q43.95-36.35 44.5-36.35L44.5-36.35Q44.8-36.35 45.34-36.3 45.9-36.25 46.8-36.25L46.8-36.25Q47.95-36.25 48.72-35.35 49.5-34.45 50.4-32.8L50.4-32.8 50.9-31.9Q51.5-30.8 52.34-29.55L52.34-29.55 53.09-28.4 53.09-31.15ZM79.49-35.4Q82.89-35.4 84.67-34.25 86.44-33.1 87.14-32.13 87.84-31.15 88.04-30.95L88.04-30.95Q88.44-30.5 88.44-30L88.44-30Q88.44-29.4 87.99-28.95L87.99-28.95Q87.54-28.5 86.87-27.95 86.19-27.4 85.64-27L85.64-27Q85.39-26.85 85.19-26.85L85.19-26.85Q84.74-26.85 84.29-27.3L84.29-27.3Q84.19-27.4 82.84-28.98 81.49-30.55 78.79-30.55L78.79-30.55Q76.74-30.55 75.24-28.38 73.74-26.2 72.97-23.13 72.19-20.05 72.19-17.4L72.19-17.4Q72.19-14.65 72.99-11.55 73.79-8.45 75.57-6.25 77.34-4.05 80.04-4.05L80.04-4.05Q83.64-4.05 85.54-6.85L85.54-6.85Q86.34-8.15 86.59-9.7L86.59-9.7 85.14-9.7 82.89-9.75 77.84-9.8Q76.99-9.8 76.99-10.6L76.99-10.6 76.99-12.55Q76.99-13.05 77.14-13.18 77.29-13.3 77.54-13.3L77.54-13.3 79.84-13.3 90.09-13.55Q90.54-13.55 90.77-13.1 90.99-12.65 90.94-11.9L90.94-11.9Q90.94-10.15 90.29-7.38 89.64-4.6 87.09-1.98 84.54 0.65 79.49 0.65L79.49 0.65Q75.74 0.65 73.07-2.2 70.39-5.05 69.07-9.53 67.74-14 67.74-18.7L67.74-18.7Q67.74-23.1 69.37-26.95 70.99-30.8 73.72-33.1 76.44-35.4 79.49-35.4L79.49-35.4ZM116.54-33.25L116.54-32.7Q116.54-31.55 116.34-31.55L116.34-31.55Q116.04-31.55 115.67-31.63 115.29-31.7 114.74-31.7L114.74-31.7 106.74-31.7 100.54-31.75Q100.24-31.75 98.29-31.6L98.29-31.6 97.14-31.5 97.04-30.15Q96.99-29.4 96.99-27.8L96.99-27.8Q96.99-27 97.09-25.7L97.09-25.7Q97.19-24.5 97.19-23.95L97.19-23.95 97.19-21.95Q97.19-21.15 97.24-20.7L97.24-20.7Q97.69-20.65 98.59-20.65L98.59-20.65 100.59-20.65Q100.89-20.65 101.79-20.75L101.79-20.75Q103.09-20.85 104.04-20.85L104.04-20.85Q104.44-20.85 106.84-20.7L106.84-20.7 107.94-20.65Q108.34-20.65 109.09-20.73 109.84-20.8 110.54-20.8L110.54-20.8 112.19-20.75Q113.49-20.65 113.99-20.65L113.99-20.65Q114.54-20.65 114.74-20.7L114.74-20.7 115.04-20.75Q115.39-20.75 115.54-20.53 115.69-20.3 115.64-20.1L115.64-20.1Q115.59-19.75 115.59-19.23 115.59-18.7 115.54-18.3L115.54-18.3Q115.49-17.9 115.39-17.82 115.29-17.75 114.79-17.75L114.79-17.75 112.79-17.95Q109.04-18.3 107.89-18.3L107.89-18.3Q103.64-18.3 101.64-18.15L101.64-18.15Q100.84-18.05 99.89-18.05 98.94-18.05 98.69-18.05L98.69-18.05Q97.74-18.05 97.29-18.1L97.29-18.1 97.14-17.3Q97.04-16.4 97.04-15.7L97.04-15.7Q97.04-15.1 97.14-14.3L97.14-14.3Q97.24-13.5 97.24-12.9L97.24-12.9 97.29-6.95 97.24-4.45Q97.19-4 97.19-3.2L97.19-3.2Q97.84-3.15 99.09-3.15L99.09-3.15Q100.14-3.1 102.34-3.1L102.34-3.1 105.04-3.05Q105.89-3 107.64-3L107.64-3Q108.69-3 110.39-3.1L110.39-3.1 112.49-3.15Q113.69-3.15 114.49-3.1 115.29-3.05 115.69-3.05L115.69-3.05Q116.09-3.05 116.17-2.9 116.24-2.75 116.24-2.25L116.24-2.25Q116.24-1.9 116.19-1.53 116.14-1.15 116.14-0.7L116.14-0.7Q116.14-0.35 115.89-0.23 115.64-0.1 115.09-0.1L115.09-0.1Q114.54-0.1 114.19-0.15L114.19-0.15Q112.84-0.3 108.74-0.3L108.74-0.3Q106.24-0.3 105.14-0.25L105.14-0.25Q104.29-0.2 102.34-0.2L102.34-0.2 97.69-0.25Q96.89-0.3 95.79-0.3L95.79-0.3Q95.09-0.3 94.87-0.48 94.64-0.65 94.64-1.05L94.64-1.05 94.69-1.85Q94.74-2.05 94.74-2.3L94.74-2.3Q94.74-2.45 94.69-3.03 94.64-3.6 94.64-5.15L94.64-5.15Q94.64-6.65 94.54-10.05L94.54-10.05Q94.39-12.85 94.39-15.45L94.39-15.45Q94.39-16.55 94.64-21.8L94.64-21.8Q94.69-22.85 94.74-23.9 94.79-24.95 94.79-25.8L94.79-25.8Q94.79-31.6 94.64-33.45L94.64-33.45Q94.49-34.65 96.09-34.65L96.09-34.65Q96.49-34.65 97.39-34.55L97.39-34.55Q98.19-34.45 98.59-34.45L98.59-34.45 101.74-34.55Q105.14-34.75 106.99-34.75L106.99-34.75Q109.14-34.75 113.04-34.65L113.04-34.65Q114.29-34.6 115.69-34.6L115.69-34.6Q116.29-34.6 116.44-34.3 116.59-34 116.57-33.68 116.54-33.35 116.54-33.25L116.54-33.25ZM143.74-2.05Q145.09-0.7 145.09-0.2L145.09-0.2Q145.09-0.1 144.84 0.15L144.84 0.15Q144.39 0.45 142.59 0.45L142.59 0.45Q141.29 0.45 140.94 0.28 140.59 0.1 140.41-0.3 140.24-0.7 140.14-0.9L140.14-0.9Q139.99-1.2 138.91-2.63 137.84-4.05 137.29-4.8L137.29-4.8Q134.64-8.2 132.69-10.95L132.69-10.95Q131.49-12.65 128.24-16.8L128.24-16.8 127.44-17.8 123.99-22.1 123.79-20.1Q123.59-18.6 123.69-16.5L123.69-16.5Q123.84-15.1 123.89-9.25 123.94-3.4 123.94-0.7L123.94-0.7Q123.94 0.1 123.34 0.33 122.74 0.55 121.94 0.55L121.94 0.55Q121.59 0.55 121.49 0.25 121.39-0.05 121.36-0.4 121.34-0.75 121.34-0.85L121.34-0.85Q121.24-1.65 121.24-3.2L121.24-3.2Q121.24-4.2 121.29-4.7L121.29-4.7Q121.34-7.4 121.44-14.13 121.54-20.85 121.54-26.2L121.54-26.2Q121.54-31.95 121.39-32.9L121.39-32.9Q121.34-33.3 121.34-33.95L121.34-33.95Q121.34-34.7 121.56-34.9 121.79-35.1 122.24-35.1L122.24-35.1Q123.24-35.1 124.19-35.05L124.19-35.05 129.64-34.95Q132.64-34.95 135.89-33.9 139.14-32.85 139.14-30L139.14-30Q139.14-27.3 137.14-25.8 135.14-24.3 132.66-23.75 130.19-23.2 128.34-23.2L128.34-23.2Q127.69-23.2 127.64-23.25L127.64-23.25Q127.94-22.95 131.59-17.95L131.59-17.95Q142.59-3.2 143.74-2.05L143.74-2.05ZM123.84-25.25Q125.49-25.25 126.34-25.3L126.34-25.3Q129.24-25.4 130.84-25.7L130.84-25.7Q133.14-26.1 134.31-26.8 135.49-27.5 135.49-29L135.49-29Q135.49-30 134.44-30.73 133.39-31.45 131.91-31.83 130.44-32.2 129.34-32.2L129.34-32.2Q128.09-32.25 125.84-32.25L125.84-32.25 124.14-32.25 123.84-25.25ZM185.68-0.7Q185.83-0.35 185.83-0.2L185.83-0.2Q185.83 0 185.28 0L185.28 0 182.48 0Q182.28 0 182.16-0.08 182.03-0.15 181.93-0.45L181.93-0.45Q181.73-1 181.38-2.25L181.38-2.25Q180.93-3.5 180.78-4.5L180.78-4.5Q180.63-5.25 180.31-6.3 179.98-7.35 179.73-7.9L179.73-7.9Q179.28-8.85 178.93-10.05L178.93-10.05 178.48-11.5Q178.23-12.05 178.11-12.18 177.98-12.3 177.68-12.3L177.68-12.3Q176.63-12.3 176.13-12.25L176.13-12.25 173.98-12.15Q173.58-12.1 170.28-12.1L170.28-12.1 167.23-12.1 167.13-12.1Q166.83-12.1 166.68-11.55L166.68-11.55 166.58-11.05 166.38-10.1Q166.28-9.85 165.73-7.2L165.73-7.2Q165.58-6.35 165.23-5L165.23-5Q165.13-4 164.78-3.35L164.78-3.35Q164.68-3.2 164.53-2.65 164.38-2.1 164.28-1.75L164.28-1.75Q164.13-1.35 163.93-0.45L163.93-0.45Q163.88-0.4 163.83-0.23 163.78-0.05 163.68-0.03 163.58 0 163.38 0L163.38 0 162.38 0Q161.93 0 162.13-0.65L162.13-0.65Q162.13-0.8 162.18-0.9L162.18-0.9Q162.18-1 162.23-1.15 162.28-1.3 162.38-1.6L162.38-1.6 162.83-3.45Q162.93-3.75 163.18-4.5 163.43-5.25 163.53-5.9L163.53-5.9Q163.78-7.1 164.48-9.55L164.48-9.55 164.88-10.95Q165.83-14.05 166.08-15.3L166.08-15.3 166.78-17.95Q167.28-19.6 167.38-20.05L167.38-20.05Q167.73-21.55 168.38-23.8L168.38-23.8 168.73-25.2 169.03-26.25Q169.53-27.95 169.88-28.7L169.88-28.7Q169.98-29 170.61-30.78 171.23-32.55 171.43-33.6L171.43-33.6Q171.78-34.8 172.16-35.4 172.53-36 173.18-36L173.18-36Q173.43-36 173.68-35.55 173.93-35.1 174.18-34.45 174.43-33.8 174.53-33.5L174.53-33.5Q174.93-32.55 175.93-28.75L175.93-28.75 176.33-27.35Q176.38-26.95 177.98-22.45L177.98-22.45 178.93-19.7 179.83-17.35Q181.23-13.4 181.63-12.55L181.63-12.55Q183.38-7.25 183.68-6.15L183.68-6.15Q184.03-4.85 184.81-2.9 185.58-0.95 185.68-0.7L185.68-0.7ZM176.33-15.55Q176.98-15.55 176.98-15.9L176.98-15.9Q176.98-16.15 176.63-17L176.63-17Q176.33-17.75 175.73-19.8L175.73-19.8Q175.28-21.45 174.83-22.65L174.83-22.65Q174.33-24.15 173.76-26.2 173.18-28.25 173.08-28.85L173.08-28.85Q172.33-31.5 172.08-31.5L172.08-31.5Q171.93-31.5 171.58-30.15L171.58-30.15 171.28-29.05Q170.93-27.7 170.38-25.68 169.83-23.65 169.38-22.25L169.38-22.25Q169.08-20.95 168.56-18.98 168.03-17 167.73-16.25L167.73-16.25Q167.63-15.95 167.63-15.9L167.63-15.9Q167.63-15.55 167.96-15.45 168.28-15.35 168.61-15.38 168.93-15.4 169.03-15.4L169.03-15.4 171.93-15.5Q172.53-15.6 173.63-15.6L173.63-15.6 176.33-15.55ZM202.23-19.2Q205.03-18.9 207.18-17.55L207.18-17.55Q212.18-14.4 212.18-7L212.18-7Q212.18-2.6 208.81-1.15 205.43 0.3 201.73 0.3L201.73 0.3Q199.48 0.3 194.58 0.5L194.58 0.5Q191.93 0.65 190.83 0.65L190.83 0.65Q190.03 0.65 189.78 0.38 189.53 0.1 189.53-0.4L189.53-0.4 189.53-2.6 189.63-5.2Q189.83-9 189.83-10.85L189.83-10.85 189.73-17.1 189.68-23Q189.68-24.4 189.98-27.6L189.98-27.6Q190.18-29.9 190.18-30.35L190.18-30.35Q190.18-31.15 190.08-33.05L190.08-33.05 189.98-34.9Q189.98-35.55 190.88-35.55L190.88-35.55 191.63-35.5Q192.03-35.5 192.76-35.6 193.48-35.7 194.03-35.7L194.03-35.7Q194.78-35.7 195.18-35.65L195.18-35.65Q196.98-35.55 200.93-35.55L200.93-35.55Q210.03-35.55 210.03-26.8L210.03-26.8Q210.03-24.55 208.93-23.03 207.83-21.5 206.13-20.6L206.13-20.6Q204.48-19.65 202.23-19.2L202.23-19.2ZM191.53-28.5L191.43-25.45 191.33-23.5Q191.33-22.95 191.51-22.85 191.68-22.75 192.33-22.75L192.33-22.75 193.78-22.7Q195.18-22.6 195.83-22.6L195.83-22.6 197.48-22.65Q199.18-22.75 200.23-22.75L200.23-22.75Q204.98-22.75 204.98-26.55L204.98-26.55Q204.98-30.65 198.33-31.65L198.33-31.65Q196.48-31.95 194.23-31.95L194.23-31.95Q193.48-31.95 191.68-31.85L191.68-31.85 191.58-30.6Q191.53-29.85 191.53-28.5L191.53-28.5ZM200.28-2.95Q206.73-2.95 206.73-7.85L206.73-7.85Q206.73-10.45 205.66-12.05 204.58-13.65 203.28-14.38 201.98-15.1 201.13-15.2L201.13-15.2Q200.33-15.3 197.03-15.53 193.73-15.75 192.28-15.8L192.28-15.8Q191.48-15.8 191.28-15.68 191.08-15.55 191.08-15.2L191.08-15.2Q191.08-14.9 191.11-14.25 191.13-13.6 191.13-12.25L191.13-12.25Q191.13-11.35 191.03-9.75L191.03-9.75 190.98-7.75 190.93-4.25Q190.93-3.75 191.06-3.6 191.18-3.45 191.48-3.45L191.48-3.45 194.08-3.35Q194.83-3.35 196.63-3.15L196.63-3.15Q199.03-2.95 200.28-2.95L200.28-2.95ZM242.48-1Q242.73-0.5 242.73-0.35L242.73-0.35Q242.73 0.05 241.83 0.05L241.83 0.05 238.23 0.05Q238.03 0.05 237.83-0.3 237.63-0.65 237.48-1 237.33-1.35 237.23-1.6L237.23-1.6Q236.98-2.1 236.3-3.9 235.63-5.7 235.28-6.75L235.28-6.75Q235.13-7.25 234.68-8.22 234.23-9.2 234.03-9.6L234.03-9.6Q233.83-10.2 233.65-10.4 233.48-10.6 233.13-10.6L233.13-10.6Q232.78-10.6 232.25-10.55 231.73-10.5 231.13-10.45L231.13-10.45Q230.73-10.35 228.63-10.35L228.63-10.35Q227.18-10.35 225.78-10.25L225.78-10.25Q225.33-10.2 224.18-10.2L224.18-10.2 221.53-10.25Q221.28-10.25 221.15-10.05 221.03-9.85 220.98-9.58 220.93-9.3 220.88-9.15L220.88-9.15 220.58-7.9Q220.43-7.2 220.2-6.28 219.98-5.35 219.83-4.55L219.83-4.55 219.28-2.4 218.88-0.95Q218.73-0.35 218.6-0.18 218.48 0 218.23 0L218.23 0 215.28 0Q215.03 0 215.03-0.2L215.03-0.2Q215.03-0.3 215.23-0.9L215.23-0.9Q215.63-1.85 215.93-2.8L215.93-2.8Q217.78-9 218.13-10.9L218.13-10.9Q218.58-13.4 219.98-17.35L219.98-17.35Q220.43-19.05 220.83-20.45L220.83-20.45Q220.98-21.15 221.28-22.15L221.28-22.15Q222.23-25.65 223.18-28.7L223.18-28.7 224.43-32.7Q224.83-34.25 225.43-35.9L225.43-35.9Q225.73-36.65 226.13-36.25L226.13-36.25Q226.43-36.05 226.58-35.55 226.73-35.05 226.78-34.85L226.78-34.85Q226.93-34.25 229.43-28.85L229.43-28.85Q230.43-26.8 231.58-23.5L231.58-23.5Q232.08-22.05 234.33-17.25L234.33-17.25Q235.48-14.9 235.83-14L235.83-14Q236.63-12.25 240.13-5.5L240.13-5.5 240.73-4.25Q241.88-1.7 242.48-1L242.48-1ZM229.38-17.5Q229.73-17.55 229.98-17.55 230.23-17.55 230.38-17.6 230.53-17.65 230.53-17.75L230.53-17.75Q230.53-17.85 230.38-18.15L230.38-18.15Q230.13-18.6 229.23-20.68 228.33-22.75 227.98-23.8L227.98-23.8Q227.48-25 227.2-25.8 226.93-26.6 226.78-26.9L226.78-26.9Q226.68-27.15 226.55-27.4 226.43-27.65 226.33-27.8 226.23-27.95 226.13-27.95L226.13-27.95Q225.98-27.95 225.8-27.2 225.63-26.45 225.53-26.05L225.53-26.05Q224.63-23.15 224.23-21.65L224.23-21.65Q224.03-20.9 223.65-19.83 223.28-18.75 223.13-18.35L223.13-18.35Q222.98-17.85 222.98-17.55L222.98-17.55Q222.98-17.25 223.43-17.25L223.43-17.25Q224.48-17.25 226.65-17.32 228.83-17.4 229.38-17.5L229.38-17.5ZM257.78-36Q261.88-36 263.98-34.52 266.07-33.05 266.9-31.83 267.73-30.6 267.93-30.3L267.93-30.3Q268.43-29.65 268.43-29.3L268.43-29.3Q268.43-29 268.23-28.8 268.03-28.6 267.73-28.45 267.43-28.3 267.32-28.2L267.32-28.2Q266.73-27.8 265.73-26.95L265.73-26.95Q265.28-26.6 264.4-25.93 263.53-25.25 263.23-25.1L263.23-25.1Q263.03-24.95 262.82-24.95L262.82-24.95Q262.48-24.95 262.18-25.35 261.88-25.75 261.78-25.9L261.78-25.9Q261.68-26.05 261.25-26.55 260.82-27.05 260.18-27.4 259.53-27.75 258.73-27.75L258.73-27.75Q257.23-27.75 256.38-25.8 255.53-23.85 255.53-18.85L255.53-18.85Q255.53-15.55 256.07-13.45 256.63-11.35 257.4-10.43 258.18-9.5 258.88-9.5L258.88-9.5Q259.88-9.5 260.4-9.95 260.93-10.4 261.32-11.65L261.32-11.65Q261.73-12.85 262.63-12.85L262.63-12.85Q262.93-12.85 263.3-12.75 263.68-12.65 263.88-12.6L263.88-12.6Q264.38-12.4 266.32-11.98 268.28-11.55 269.68-11.3L269.68-11.3Q270.38-11.15 270.38-10.1L270.38-10.1Q270.38-9.6 270.32-9.35L270.32-9.35Q270.28-8.7 269.93-7.6L269.93-7.6Q268.88-4.4 266.35-1.83 263.82 0.75 258.82 0.75L258.82 0.75Q255.78 0.75 252.68-1.1 249.58-2.95 247.43-7.28 245.28-11.6 245.28-18.65L245.28-18.65Q245.28-28.65 249.13-32.33 252.98-36 257.78-36L257.78-36ZM284.72-34.9L284.72-14.9Q284.72-13.8 284.85-13 284.97-12.2 285.6-11.48 286.22-10.75 287.62-10.75L287.62-10.75Q289.57-10.75 290.27-12.23 290.97-13.7 290.97-15.45L290.97-15.45 291.02-17.95Q291.17-23.5 291.17-24.15L291.17-24.15Q291.17-25.55 291.12-26.05L291.12-26.05Q291.12-27.8 290.92-31.4L290.92-31.4 290.82-34.15Q290.82-35.05 291.07-35.4 291.32-35.75 292.02-35.75L292.02-35.75 298.37-35.75 299.12-35.8Q299.62-35.8 299.95-35.5 300.27-35.2 300.37-34.3L300.37-34.3Q300.47-33.45 300.47-28.4L300.47-28.4 300.42-17.65Q300.42-14.85 299.52-10.93 298.62-7 295.77-3.65 292.92-0.3 287.62-0.3L287.62-0.3Q275.72-0.3 274.82-11.7L274.82-11.7Q274.77-12.2 274.77-13.7L274.77-13.7Q274.77-15.25 274.87-19.15L274.87-19.15Q275.02-23.65 274.97-25.85L274.97-25.85Q274.97-28.85 274.87-32.15L274.87-32.15Q274.82-33.1 274.82-34.1L274.82-34.1Q274.82-34.3 274.8-34.85 274.77-35.4 275-35.65 275.22-35.9 275.82-35.9L275.82-35.9 278.72-35.85Q279.72-35.85 280.17-35.9L280.17-35.9Q281.27-36 281.97-36L281.97-36 283.97-35.95Q284.42-35.95 284.55-35.73 284.67-35.5 284.72-34.9L284.72-34.9ZM316.82-35.25Q321.17-35.25 323.27-33.55 325.37-31.85 325.47-31.75L325.47-31.75Q325.97-31.4 325.97-31.05L325.97-31.05Q325.97-30.85 325.77-30.65L325.77-30.65Q325.62-30.45 325.17-29.8 324.72-29.15 324.47-29.15L324.47-29.15Q324.22-29.15 323.82-29.4L323.82-29.4 323.47-29.7Q319.67-32.45 316.97-32.45L316.97-32.45Q313.52-32.45 311.75-30.88 309.97-29.3 309.97-26.9L309.97-26.9Q309.97-24.85 311.44-23.4 312.92-21.95 315.32-20.65L315.32-20.65Q316.02-20.35 316.77-20.1L316.77-20.1Q319.27-19.15 321.14-18.07 323.02-17 324.52-14.83 326.02-12.65 326.02-9.35L326.02-9.35Q326.02-3.7 322.17-1.63 318.32 0.45 313.57 0.45L313.57 0.45Q310.82 0.45 308.59-0.8 306.37-2.05 305.42-3L305.42-3Q304.92-3.45 305.17-3.9L305.17-3.9Q305.22-4 305.59-4.7 305.97-5.4 306.27-5.4L306.27-5.4 306.37-5.4Q306.52-5.4 306.64-5.33 306.77-5.25 306.94-5.05 307.12-4.85 307.37-4.6L307.37-4.6Q308.02-3.95 309.92-3.13 311.82-2.3 313.07-2.3L313.07-2.3Q315.72-2.3 318.12-3.43 320.52-4.55 320.52-8.2L320.52-8.2Q320.52-9.75 319.14-10.9 317.77-12.05 314.87-13.6L314.87-13.6 312.72-14.8Q309.22-16.8 307.25-19.1 305.27-21.4 305.27-25.15L305.27-25.15Q305.27-28.25 307.05-30.55 308.82-32.85 311.5-34.05 314.17-35.25 316.82-35.25L316.82-35.25ZM367.86-0.7Q368.01-0.35 368.01-0.2L368.01-0.2Q368.01 0 367.46 0L367.46 0 364.66 0Q364.46 0 364.34-0.08 364.21-0.15 364.11-0.45L364.11-0.45Q363.91-1 363.56-2.25L363.56-2.25Q363.11-3.5 362.96-4.5L362.96-4.5Q362.81-5.25 362.49-6.3 362.16-7.35 361.91-7.9L361.91-7.9Q361.46-8.85 361.11-10.05L361.11-10.05 360.66-11.5Q360.41-12.05 360.29-12.18 360.16-12.3 359.86-12.3L359.86-12.3Q358.81-12.3 358.31-12.25L358.31-12.25 356.16-12.15Q355.76-12.1 352.46-12.1L352.46-12.1 349.41-12.1 349.31-12.1Q349.01-12.1 348.86-11.55L348.86-11.55 348.76-11.05 348.56-10.1Q348.46-9.85 347.91-7.2L347.91-7.2Q347.76-6.35 347.41-5L347.41-5Q347.31-4 346.96-3.35L346.96-3.35Q346.86-3.2 346.71-2.65 346.56-2.1 346.46-1.75L346.46-1.75Q346.31-1.35 346.11-0.45L346.11-0.45Q346.06-0.4 346.01-0.23 345.96-0.05 345.86-0.03 345.76 0 345.56 0L345.56 0 344.56 0Q344.11 0 344.31-0.65L344.31-0.65Q344.31-0.8 344.36-0.9L344.36-0.9Q344.36-1 344.41-1.15 344.46-1.3 344.56-1.6L344.56-1.6 345.01-3.45Q345.11-3.75 345.36-4.5 345.61-5.25 345.71-5.9L345.71-5.9Q345.96-7.1 346.66-9.55L346.66-9.55 347.06-10.95Q348.01-14.05 348.26-15.3L348.26-15.3 348.96-17.95Q349.46-19.6 349.56-20.05L349.56-20.05Q349.91-21.55 350.56-23.8L350.56-23.8 350.91-25.2 351.21-26.25Q351.71-27.95 352.06-28.7L352.06-28.7Q352.16-29 352.79-30.78 353.41-32.55 353.61-33.6L353.61-33.6Q353.96-34.8 354.34-35.4 354.71-36 355.36-36L355.36-36Q355.61-36 355.86-35.55 356.11-35.1 356.36-34.45 356.61-33.8 356.71-33.5L356.71-33.5Q357.11-32.55 358.11-28.75L358.11-28.75 358.51-27.35Q358.56-26.95 360.16-22.45L360.16-22.45 361.11-19.7 362.01-17.35Q363.41-13.4 363.81-12.55L363.81-12.55Q365.56-7.25 365.86-6.15L365.86-6.15Q366.21-4.85 366.99-2.9 367.76-0.95 367.86-0.7L367.86-0.7ZM358.51-15.55Q359.16-15.55 359.16-15.9L359.16-15.9Q359.16-16.15 358.81-17L358.81-17Q358.51-17.75 357.91-19.8L357.91-19.8Q357.46-21.45 357.01-22.65L357.01-22.65Q356.51-24.15 355.94-26.2 355.36-28.25 355.26-28.85L355.26-28.85Q354.51-31.5 354.26-31.5L354.26-31.5Q354.11-31.5 353.76-30.15L353.76-30.15 353.46-29.05Q353.11-27.7 352.56-25.68 352.01-23.65 351.56-22.25L351.56-22.25Q351.26-20.95 350.74-18.98 350.21-17 349.91-16.25L349.91-16.25Q349.81-15.95 349.81-15.9L349.81-15.9Q349.81-15.55 350.14-15.45 350.46-15.35 350.79-15.38 351.11-15.4 351.21-15.4L351.21-15.4 354.11-15.5Q354.71-15.6 355.81-15.6L355.81-15.6 358.51-15.55ZM383.16-36Q387.26-36 389.36-34.52 391.46-33.05 392.29-31.83 393.11-30.6 393.31-30.3L393.31-30.3Q393.81-29.65 393.81-29.3L393.81-29.3Q393.81-29 393.61-28.8 393.41-28.6 393.11-28.45 392.81-28.3 392.71-28.2L392.71-28.2Q392.11-27.8 391.11-26.95L391.11-26.95Q390.66-26.6 389.79-25.93 388.91-25.25 388.61-25.1L388.61-25.1Q388.41-24.95 388.21-24.95L388.21-24.95Q387.86-24.95 387.56-25.35 387.26-25.75 387.16-25.9L387.16-25.9Q387.06-26.05 386.64-26.55 386.21-27.05 385.56-27.4 384.91-27.75 384.11-27.75L384.11-27.75Q382.61-27.75 381.76-25.8 380.91-23.85 380.91-18.85L380.91-18.85Q380.91-15.55 381.46-13.45 382.01-11.35 382.79-10.43 383.56-9.5 384.26-9.5L384.26-9.5Q385.26-9.5 385.79-9.95 386.31-10.4 386.71-11.65L386.71-11.65Q387.11-12.85 388.01-12.85L388.01-12.85Q388.31-12.85 388.69-12.75 389.06-12.65 389.26-12.6L389.26-12.6Q389.76-12.4 391.71-11.98 393.66-11.55 395.06-11.3L395.06-11.3Q395.76-11.15 395.76-10.1L395.76-10.1Q395.76-9.6 395.71-9.35L395.71-9.35Q395.66-8.7 395.31-7.6L395.31-7.6Q394.26-4.4 391.74-1.83 389.21 0.75 384.21 0.75L384.21 0.75Q381.16 0.75 378.06-1.1 374.96-2.95 372.81-7.28 370.66-11.6 370.66-18.65L370.66-18.65Q370.66-28.65 374.51-32.33 378.36-36 383.16-36L383.16-36ZM425.76-1Q426.01-0.5 426.01-0.35L426.01-0.35Q426.01 0.05 425.11 0.05L425.11 0.05 421.51 0.05Q421.31 0.05 421.11-0.3 420.91-0.65 420.76-1 420.61-1.35 420.51-1.6L420.51-1.6Q420.26-2.1 419.58-3.9 418.91-5.7 418.56-6.75L418.56-6.75Q418.41-7.25 417.96-8.22 417.51-9.2 417.31-9.6L417.31-9.6Q417.11-10.2 416.94-10.4 416.76-10.6 416.41-10.6L416.41-10.6Q416.06-10.6 415.53-10.55 415.01-10.5 414.41-10.45L414.41-10.45Q414.01-10.35 411.91-10.35L411.91-10.35Q410.46-10.35 409.06-10.25L409.06-10.25Q408.61-10.2 407.46-10.2L407.46-10.2 404.81-10.25Q404.56-10.25 404.44-10.05 404.31-9.85 404.26-9.58 404.21-9.3 404.16-9.15L404.16-9.15 403.86-7.9Q403.71-7.2 403.49-6.28 403.26-5.35 403.11-4.55L403.11-4.55 402.56-2.4 402.16-0.95Q402.01-0.35 401.88-0.18 401.76 0 401.51 0L401.51 0 398.56 0Q398.31 0 398.31-0.2L398.31-0.2Q398.31-0.3 398.51-0.9L398.51-0.9Q398.91-1.85 399.21-2.8L399.21-2.8Q401.06-9 401.41-10.9L401.41-10.9Q401.86-13.4 403.26-17.35L403.26-17.35Q403.71-19.05 404.11-20.45L404.11-20.45Q404.26-21.15 404.56-22.15L404.56-22.15Q405.51-25.65 406.46-28.7L406.46-28.7 407.71-32.7Q408.11-34.25 408.71-35.9L408.71-35.9Q409.01-36.65 409.41-36.25L409.41-36.25Q409.71-36.05 409.86-35.55 410.01-35.05 410.06-34.85L410.06-34.85Q410.21-34.25 412.71-28.85L412.71-28.85Q413.71-26.8 414.86-23.5L414.86-23.5Q415.36-22.05 417.61-17.25L417.61-17.25Q418.76-14.9 419.11-14L419.11-14Q419.91-12.25 423.41-5.5L423.41-5.5 424.01-4.25Q425.16-1.7 425.76-1L425.76-1ZM412.66-17.5Q413.01-17.55 413.26-17.55 413.51-17.55 413.66-17.6 413.81-17.65 413.81-17.75L413.81-17.75Q413.81-17.85 413.66-18.15L413.66-18.15Q413.41-18.6 412.51-20.68 411.61-22.75 411.26-23.8L411.26-23.8Q410.76-25 410.49-25.8 410.21-26.6 410.06-26.9L410.06-26.9Q409.96-27.15 409.83-27.4 409.71-27.65 409.61-27.8 409.51-27.95 409.41-27.95L409.41-27.95Q409.26-27.95 409.08-27.2 408.91-26.45 408.81-26.05L408.81-26.05Q407.91-23.15 407.51-21.65L407.51-21.65Q407.31-20.9 406.94-19.83 406.56-18.75 406.41-18.35L406.41-18.35Q406.26-17.85 406.26-17.55L406.26-17.55Q406.26-17.25 406.71-17.25L406.71-17.25Q407.76-17.25 409.94-17.32 412.11-17.4 412.66-17.5L412.66-17.5ZM448.36-30.7Q451.31-28.1 452.26-24.53 453.21-20.95 453.21-16.65L453.21-16.65Q453.21-14.4 452.46-11.6 451.71-8.8 450.38-6.4 449.06-4 447.31-2.85L447.31-2.85Q444.91-1.3 441.36-0.68 437.81-0.05 435.76-0.05L435.76-0.05 430.66-0.05Q430.11-0.05 429.96-0.3 429.81-0.55 429.96-0.85L429.96-0.85Q430.01-1 430.01-1.25L430.01-1.25Q430.01-1.45 429.98-1.78 429.96-2.1 429.96-2.7L429.96-2.7Q429.96-4.35 429.91-5.95L429.91-5.95 429.81-15 429.86-25.05Q429.86-26.35 429.81-27.58 429.76-28.8 429.71-29.7L429.71-29.7 429.61-32.85Q429.66-34 429.76-34.45 429.86-34.9 430.16-34.9L430.16-34.9 430.31-34.9Q430.51-34.9 430.76-34.83 431.01-34.75 431.21-34.75L431.21-34.75Q431.61-34.75 432.18-34.8 432.76-34.85 433.36-34.85L433.36-34.85 435.31-34.8Q438.11-34.8 440.36-34.55L440.36-34.55Q440.56-34.55 441.68-34.45 442.81-34.35 444.58-33.4 446.36-32.45 448.36-30.7L448.36-30.7ZM438.21-1.95Q441.66-1.75 444.51-3.2L444.51-3.2Q447.26-4.6 449.06-7.85 450.86-11.1 450.86-16.65L450.86-16.65Q450.86-22.15 449.08-25.48 447.31-28.8 444.61-30.45L444.61-30.45Q441.86-32.1 438.36-32.15L438.36-32.15 438.16-27.6Q438.01-25.15 438.01-20.85L438.01-20.85Q438.01-20.45 438.16-16.4L438.16-16.4Q438.31-14.7 438.31-13.2L438.31-13.2 438.26-6.75Q438.21-5.25 438.21-1.95L438.21-1.95ZM479.11-33.25L479.11-32.7Q479.11-31.55 478.9-31.55L478.9-31.55Q478.61-31.55 478.23-31.63 477.86-31.7 477.31-31.7L477.31-31.7 469.31-31.7 463.11-31.75Q462.81-31.75 460.86-31.6L460.86-31.6 459.7-31.5 459.61-30.15Q459.56-29.4 459.56-27.8L459.56-27.8Q459.56-27 459.65-25.7L459.65-25.7Q459.75-24.5 459.75-23.95L459.75-23.95 459.75-21.95Q459.75-21.15 459.81-20.7L459.81-20.7Q460.25-20.65 461.15-20.65L461.15-20.65 463.15-20.65Q463.45-20.65 464.36-20.75L464.36-20.75Q465.65-20.85 466.61-20.85L466.61-20.85Q467-20.85 469.4-20.7L469.4-20.7 470.5-20.65Q470.9-20.65 471.65-20.73 472.4-20.8 473.11-20.8L473.11-20.8 474.75-20.75Q476.06-20.65 476.56-20.65L476.56-20.65Q477.11-20.65 477.31-20.7L477.31-20.7 477.61-20.75Q477.95-20.75 478.11-20.53 478.25-20.3 478.2-20.1L478.2-20.1Q478.15-19.75 478.15-19.23 478.15-18.7 478.11-18.3L478.11-18.3Q478.06-17.9 477.95-17.82 477.86-17.75 477.36-17.75L477.36-17.75 475.36-17.95Q471.61-18.3 470.45-18.3L470.45-18.3Q466.2-18.3 464.2-18.15L464.2-18.15Q463.4-18.05 462.45-18.05 461.5-18.05 461.25-18.05L461.25-18.05Q460.31-18.05 459.86-18.1L459.86-18.1 459.7-17.3Q459.61-16.4 459.61-15.7L459.61-15.7Q459.61-15.1 459.7-14.3L459.7-14.3Q459.81-13.5 459.81-12.9L459.81-12.9 459.86-6.95 459.81-4.45Q459.75-4 459.75-3.2L459.75-3.2Q460.4-3.15 461.65-3.15L461.65-3.15Q462.7-3.1 464.9-3.1L464.9-3.1 467.61-3.05Q468.45-3 470.2-3L470.2-3Q471.25-3 472.95-3.1L472.95-3.1 475.06-3.15Q476.25-3.15 477.06-3.1 477.86-3.05 478.25-3.05L478.25-3.05Q478.65-3.05 478.73-2.9 478.81-2.75 478.81-2.25L478.81-2.25Q478.81-1.9 478.75-1.53 478.7-1.15 478.7-0.7L478.7-0.7Q478.7-0.35 478.45-0.23 478.2-0.1 477.65-0.1L477.65-0.1Q477.11-0.1 476.75-0.15L476.75-0.15Q475.4-0.3 471.31-0.3L471.31-0.3Q468.81-0.3 467.7-0.25L467.7-0.25Q466.86-0.2 464.9-0.2L464.9-0.2 460.25-0.25Q459.45-0.3 458.36-0.3L458.36-0.3Q457.65-0.3 457.43-0.48 457.2-0.65 457.2-1.05L457.2-1.05 457.25-1.85Q457.31-2.05 457.31-2.3L457.31-2.3Q457.31-2.45 457.25-3.03 457.2-3.6 457.2-5.15L457.2-5.15Q457.2-6.65 457.11-10.05L457.11-10.05Q456.95-12.85 456.95-15.45L456.95-15.45Q456.95-16.55 457.2-21.8L457.2-21.8Q457.25-22.85 457.31-23.9 457.36-24.95 457.36-25.8L457.36-25.8Q457.36-31.6 457.2-33.45L457.2-33.45Q457.06-34.65 458.65-34.65L458.65-34.65Q459.06-34.65 459.95-34.55L459.95-34.55Q460.75-34.45 461.15-34.45L461.15-34.45 464.31-34.55Q467.7-34.75 469.56-34.75L469.56-34.75Q471.7-34.75 475.61-34.65L475.61-34.65Q476.86-34.6 478.25-34.6L478.25-34.6Q478.86-34.6 479-34.3 479.15-34 479.13-33.68 479.11-33.35 479.11-33.25L479.11-33.25ZM487.55-33.7Q487.65-32.55 488.03-31.2 488.4-29.85 489.1-27.7L489.1-27.7Q489.6-26.15 491.68-20.75 493.75-15.35 494.45-13.8L494.45-13.8Q495.1-12.15 496.2-8.75L496.2-8.75 497.3-5.35 497.95-6.5 499.35-9.25Q499.65-9.95 501.2-12.9L501.2-12.9Q504.45-18.95 505.45-21.3L505.45-21.3Q506.2-23.05 507.6-26L507.6-26Q507.95-26.8 508.48-27.93 509-29.05 509.2-29.55L509.2-29.55Q509.3-29.85 509.83-31.43 510.35-33 510.88-34.1 511.4-35.2 511.75-35.2L511.75-35.2Q512.15-35.2 512.15-34.05L512.15-34.05Q512.15-33.4 512.1-32.77 512.05-32.15 512-31.65L512-31.65 511.85-29.85Q511.7-27.25 511.7-20.25L511.7-20.25Q511.7-17.8 511.63-14.03 511.55-10.25 511.45-8.95L511.45-8.95 511.4-0.8 511.4-0.65Q511.4-0.15 510.85-0.15L510.85-0.15Q509.5-0.15 509.1-0.2L509.1-0.2Q508.85-0.25 508.85-0.6L508.85-0.6 508.9-1.45Q508.9-3.6 509-8.47 509.1-13.35 509.25-14.95L509.25-14.95Q509.3-16.15 509.3-20L509.3-20Q509.3-22.1 509.25-23.2L509.25-23.2Q508.2-21.35 508-20.9L508-20.9Q507.6-20.2 506.85-18.7L506.85-18.7Q506.7-18.4 506.5-18 506.3-17.6 506.05-17.2L506.05-17.2Q505.4-15.9 503.15-11.35L503.15-11.35 501.55-8.05Q501.05-7.2 499.9-4.95 498.75-2.7 498.35-1.9L498.35-1.9 497.55-0.3Q497.25 0.35 496.83 0.85 496.4 1.35 496.1 1.35L496.1 1.35Q495.8 1.35 495.68 1.2 495.55 1.05 495.45 0.73 495.35 0.4 495.3 0.25L495.3 0.25Q495.2-0.05 494.2-2.93 493.2-5.8 492.65-7.05L492.65-7.05Q491.95-8.75 490.85-11.5 489.75-14.25 489.4-15.45L489.4-15.45Q488.95-16.7 488.6-17.85L488.6-17.85 487.85-20.2Q486.9-23 486.75-23.55L486.75-23.55 486.65-21.7Q486.6-20.65 486.6-18.5L486.6-18.5Q486.6-11.4 486.4-8.6L486.4-8.6Q486.35-7.9 486.35-5.75L486.35-5.75 486.4-0.7 486.4-0.55Q486.4 0.35 485.7 0.25L485.7 0.25Q485.45 0.15 484.9 0.15 484.35 0.15 484.1 0.15L484.1 0.15Q483.85 0.15 483.85-0.2L483.85-0.2 483.9-1.1 483.8-5.9 483.65-16.35Q483.65-18.9 483.75-22.48 483.85-26.05 483.95-27.3L483.95-27.3Q484.1-28.95 484.18-30.93 484.25-32.9 484.25-34.15L484.25-34.15 484.25-34.35Q484.25-35 484.4-35.08 484.55-35.15 484.9-35.1L484.9-35.1 485.3-35.1Q486.1-35.1 486.55-35.15L486.55-35.15Q487.4-35.15 487.55-33.7L487.55-33.7ZM521.45-33.4L522.7-29.25Q523.75-25.95 525.15-22.75L525.15-22.75Q525.8-21.25 526.55-18.95L526.55-18.95Q527.35-16.55 527.35-16.55L527.35-16.55 527.75-17.8 528.5-19.95Q529-21.45 529.97-24.03 530.95-26.6 531.3-27.3L531.3-27.3Q532.7-31.35 533.1-33.05L533.1-33.05Q533.35-34.05 533.75-34.3 534.15-34.55 534.52-34.52 534.9-34.5 535-34.5L535-34.5 537.7-34.55Q538.95-34.55 539.85-34.45L539.85-34.45Q540.9-34.3 540.9-33.95L540.9-33.95Q540.9-33.9 540.8-33.5L540.8-33.5Q540.7-33.25 540.57-32.88 540.45-32.5 540.3-32.05L540.3-32.05Q539.1-28.5 538.75-27.7L538.75-27.7Q538.1-25.8 536.55-22L536.55-22 534.45-16.5Q533.35-13.8 531.65-9.5 529.95-5.2 529.8-4.6L529.8-4.6Q529.6-4 529.38-2.68 529.15-1.35 529.05-0.95L529.05-0.95Q528.9-0.35 528.72-0.13 528.55 0.1 528.25 0.05L528.25 0.05 525.3 0.1 521.35 0.15Q520.7 0.15 520.7-0.15L520.7-0.15Q520.7-0.3 520.77-0.43 520.85-0.55 520.9-0.7L520.9-0.7 522.7-5.55Q522.85-6.35 523.45-7.7L523.45-7.7Q523.6-8.1 523.75-8.47 523.9-8.85 524-9.25L524-9.25Q524.1-9.55 524.3-9.95 524.5-10.35 524.55-10.63 524.6-10.9 524.5-11.15L524.5-11.15Q524.5-11.15 523.95-12.7L523.95-12.7Q523.25-14.9 523-15.5L523-15.5Q522.7-16.25 522.2-17.95L522.2-17.95Q521.85-19.1 521.55-20L521.55-20Q521.15-21 519.75-25.05 518.35-29.1 517.7-31.2L517.7-31.2Q517.4-32.1 517.1-32.75L517.1-32.75Q516.75-33.55 516.75-33.85L516.75-33.85Q516.75-34.2 517.13-34.33 517.5-34.45 518.25-34.5L518.25-34.5Q519-34.55 520.75-34.45L520.75-34.45Q521.15-34.4 521.25-34.25 521.35-34.1 521.35-33.88 521.35-33.65 521.45-33.4L521.45-33.4Z" opacity="1" transform="matrix(1,0,0,1,0,0)" fill="#a437db" class="wordmark-text-0" data-fill-palette-color="primary" id="text-0"></path></svg></g></svg></g><g transform="matrix(1,0,0,1,0,34.63898040978082)"><svg viewBox="0 0 232.209792 10.403901073019483" height="10.403901073019483" width="232.209792"><g transform="matrix(1,0,0,1,0,0)"><svg width="232.209792" viewBox="3 -33 967.469970703125 43.349998474121094" height="10.403901073019483" data-palette-color="#bb84e8"><path d="M29.5 0L3 0 3-0.8 7.05-2.8 7.05-30.2 3-32.2 3-33 28.1-33 28.1-24.4 27.3-24.4 24.05-30.25 12.3-30.25 12.3-18.4 20.6-18.4 23.15-22.6 23.95-22.6 23.95-11.55 23.15-11.55 20.6-15.65 12.3-15.65 12.3-2.75 25.4-2.75 28.7-9.35 29.5-9.35 29.5 0ZM45.95 0L35.75 0 35.75-0.8 39.3-2.45 40.25-25.55 36.4-27.2 36.4-28 46.05-28 55.2-7.5 64.65-28 73.85-28 73.85-27.2 70.15-25.85 70.85-2.45 74.05-0.8 74.05 0 62.45 0 62.45-0.8 65.8-2.4 65.35-23.15 54.6 0.2 53.1 0.2 42.8-23.1 42.3-2.4 45.95-0.8 45.95 0ZM92.65 0L79.85 0 79.85-0.8 83.5-2.45 83.5-25.55 79.85-27.2 79.85-28 91.9-28Q97.5-28 100.4-26.08 103.3-24.15 103.3-20.1L103.3-20.1Q103.3-17.6 101.75-15.75 100.2-13.9 97.47-12.93 94.75-11.95 91.2-11.95L91.2-11.95 88.45-11.95 88.45-2.45 92.65-0.8 92.65 0ZM90.6-25.5L88.45-25.5 88.45-14.4 90.9-14.4Q94.25-14.4 96.2-15.88 98.15-17.35 98.15-20L98.15-20Q98.15-22.95 96.17-24.23 94.2-25.5 90.6-25.5L90.6-25.5ZM123.39 0.5L123.39 0.5Q119.19 0.5 115.94-1.38 112.69-3.25 110.82-6.53 108.94-9.8 108.94-14L108.94-14Q108.94-18.2 110.82-21.5 112.69-24.8 115.94-26.68 119.19-28.55 123.39-28.55L123.39-28.55Q127.59-28.55 130.87-26.68 134.14-24.8 136.02-21.5 137.89-18.2 137.89-14L137.89-14Q137.89-9.8 136.02-6.53 134.14-3.25 130.87-1.38 127.59 0.5 123.39 0.5ZM124.19-2L124.19-2Q128.24-2 130.54-4.95 132.84-7.9 132.84-12.75L132.84-12.75Q132.84-16.7 131.57-19.7 130.29-22.7 127.99-24.38 125.69-26.05 122.74-26.05L122.74-26.05Q118.74-26.05 116.37-23.13 113.99-20.2 113.99-15.4L113.99-15.4Q113.99-11.4 115.29-8.4 116.59-5.4 118.89-3.7 121.19-2 124.19-2ZM155.69 0.2L153.24 0.2 145.19-25.7 141.84-27.2 141.84-28 154.14-28 154.14-27.2 150.39-25.8 155.69-8 156.04-8 163.99-28.15 166.24-28.15 173.84-8 174.09-8 179.14-25.7 175.39-27.2 175.39-28 185.24-28 185.24-27.2 182.24-25.7 174.29 0.2 171.84 0.2 163.94-20.15 163.74-20.15 155.69 0.2ZM212.19 0L188.94 0 188.94-0.8 192.54-2.45 192.54-25.55 188.94-27.2 188.94-28 210.94-28 210.94-20.8 210.14-20.8 207.54-25.5 197.49-25.5 197.49-15.75 204.79-15.75 206.49-19.2 207.29-19.2 207.29-9.85 206.49-9.85 204.79-13.25 197.49-13.25 197.49-2.5 208.64-2.5 211.39-8.15 212.19-8.15 212.19 0ZM230.34 0L218.49 0 218.49-0.8 222.14-2.45 222.14-25.55 218.49-27.2 218.49-28 230.59-28Q235.19-28 237.86-26.13 240.54-24.25 240.54-20.95L240.54-20.95Q240.54-18.55 239.06-16.82 237.59-15.1 234.84-14.1L234.84-14.1 242.54-2.35 245.84-0.8 245.84 0 237.99 0 230.09-12.75 227.04-12.75 227.04-2.5 230.34-0.8 230.34 0ZM229.39-25.55L229.39-25.55 227.04-25.55 227.04-15.2 229.59-15.2Q232.29-15.2 233.84-16.6 235.39-18 235.39-20.4L235.39-20.4Q235.39-22.95 233.81-24.25 232.24-25.55 229.39-25.55ZM260.48 0L248.73 0 248.73-0.8 252.03-2.45 252.03-25.55 248.73-27.2 248.73-28 260.48-28 260.48-27.2 257.03-25.55 257.03-2.45 260.48-0.8 260.48 0ZM277.33 0L266.48 0 266.48-0.8 270.03-2.45 270.03-25.6 266.48-27.2 266.48-28 273.93-28 290.83-7.95 290.83-25.6 286.43-27.2 286.43-28 297.18-28 297.18-27.2 293.63-25.6 293.63 0.2 291.33 0.2 272.88-21.55 272.88-2.6 277.33-0.8 277.33 0ZM317.93 0.5L317.93 0.5Q313.73 0.5 310.4-1.28 307.08-3.05 305.15-6.15 303.23-9.25 303.23-13.25L303.23-13.25Q303.23-16.55 304.45-19.33 305.68-22.1 307.83-24.18 309.98-26.25 312.8-27.38 315.63-28.5 318.83-28.5L318.83-28.5Q322.18-28.5 324.2-27.93 326.23-27.35 328.08-26.45L328.08-26.45 328.38-19.25 327.63-19.25 324.63-24.25Q322.93-25.4 321.7-25.85 320.48-26.3 318.88-26.3L318.88-26.3Q315.63-26.3 313.15-24.85 310.68-23.4 309.3-20.85 307.93-18.3 307.93-15.1L307.93-15.1Q307.93-11 309.38-8.08 310.83-5.15 313.35-3.58 315.88-2 319.08-2L319.08-2Q320.38-2 321.65-2.18 322.93-2.35 324.23-2.85L324.23-2.85 324.23-10 320.38-11.75 320.38-12.5 331.83-12.5 331.83-11.75 328.83-9.9 328.83-3.1Q327.58-2 325.73-1.2 323.88-0.4 321.83 0.05 319.78 0.5 317.93 0.5ZM360.72 0L349.42 0 349.42-0.8 353.42-2.8 354.47-30.2 350.17-32.2 350.17-33 360.12-33 371.32-7.15 382.47-33 392.02-33 392.02-32.2 387.77-30.35 388.62-2.8 392.22-0.8 392.22 0 379.87 0 379.87-0.8 383.62-2.75 383.12-27.2 371.32 0.25 368.92 0.25 357.22-26.9 356.57-2.75 360.72-0.8 360.72 0ZM409.97 0L398.22 0 398.22-0.8 401.52-2.45 401.52-25.55 398.22-27.2 398.22-28 409.97-28 409.97-27.2 406.52-25.55 406.52-2.45 409.97-0.8 409.97 0ZM426.82 0L415.97 0 415.97-0.8 419.52-2.45 419.52-25.6 415.97-27.2 415.97-28 423.42-28 440.32-7.95 440.32-25.6 435.92-27.2 435.92-28 446.67-28 446.67-27.2 443.12-25.6 443.12 0.2 440.82 0.2 422.37-21.55 422.37-2.6 426.82-0.8 426.82 0ZM464.92 0L452.47 0 452.47-0.8 456.12-2.45 456.12-25.55 452.47-27.2 452.47-28 465.22-28Q470.27-28 473.77-26.38 477.27-24.75 479.12-21.88 480.97-19 480.97-15.25L480.97-15.25Q480.97-10.65 479.02-7.23 477.07-3.8 473.47-1.9 469.87 0 464.92 0L464.92 0ZM464.17-25.5L464.17-25.5 461.07-25.5 461.07-2.5 464.52-2.5Q469.97-2.5 472.89-5.68 475.82-8.85 475.82-14.15L475.82-14.15Q475.82-19.65 472.82-22.58 469.82-25.5 464.17-25.5ZM496.11 0.5L496.11 0.5Q493.41 0.5 491.44-0.05 489.46-0.6 487.46-1.6L487.46-1.6 487.01-8.4 487.81-8.4 490.41-3.75Q491.76-2.7 493.26-2.3 494.76-1.9 496.31-1.9L496.31-1.9Q499.06-1.9 500.56-3 502.06-4.1 502.06-6.4L502.06-6.4Q502.06-8.1 501.16-9.05 500.26-10 498.46-10.83 496.66-11.65 494.01-12.9L494.01-12.9Q490.86-14.4 489.46-16.03 488.06-17.65 488.06-20.4L488.06-20.4Q488.06-22.6 489.34-24.45 490.61-26.3 492.74-27.43 494.86-28.55 497.36-28.55L497.36-28.55Q499.51-28.55 501.31-28.03 503.11-27.5 504.76-26.65L504.76-26.65 505.16-20.1 504.36-20.1 502.06-24.5Q500.01-26.15 497.46-26.15L497.46-26.15Q495.06-26.15 493.69-24.98 492.31-23.8 492.31-21.8L492.31-21.8Q492.31-20.5 492.96-19.63 493.61-18.75 494.99-17.98 496.36-17.2 498.51-16.15L498.51-16.15Q501.31-14.8 503.01-13.65 504.71-12.5 505.49-11.08 506.26-9.65 506.26-7.5L506.26-7.5Q506.26-5.15 504.94-3.35 503.61-1.55 501.31-0.53 499.01 0.5 496.11 0.5ZM511.91 10.35L511.91 10.35 511.91 9.2Q514.11 8.05 515.04 6.65 515.96 5.25 515.96 3.7L515.96 3.7Q515.96 2.3 515.31 1.35 514.66 0.4 513.46-0.25L513.46-0.25 511.76-1.15 511.56-1.65 513.16-4.4Q513.51-4.95 513.76-5.23 514.01-5.5 514.41-5.5L514.41-5.5Q514.81-5.5 515.66-5.05L515.66-5.05Q517.31-4.1 518.21-2.45 519.11-0.8 519.11 1.1L519.11 1.1Q519.11 3.75 517.46 6.18 515.81 8.6 511.91 10.35ZM563.6 0L537.1 0 537.1-0.8 541.15-2.8 541.15-30.2 537.1-32.2 537.1-33 562.2-33 562.2-24.4 561.4-24.4 558.15-30.25 546.4-30.25 546.4-18.4 554.7-18.4 557.25-22.6 558.05-22.6 558.05-11.55 557.25-11.55 554.7-15.65 546.4-15.65 546.4-2.75 559.5-2.75 562.8-9.35 563.6-9.35 563.6 0ZM593 0L570.05 0 570.05-0.8 573.65-2.45 573.65-25.55 570.05-27.2 570.05-28 582.65-28 582.65-27.2 578.6-25.55 578.6-2.5 589.05-2.5 592.2-9.85 593-9.85 593 0ZM622.55 0L599.3 0 599.3-0.8 602.9-2.45 602.9-25.55 599.3-27.2 599.3-28 621.3-28 621.3-20.8 620.5-20.8 617.9-25.5 607.85-25.5 607.85-15.75 615.15-15.75 616.85-19.2 617.65-19.2 617.65-9.85 616.85-9.85 615.15-13.25 607.85-13.25 607.85-2.5 619-2.5 621.75-8.15 622.55-8.15 622.55 0ZM643.45 0.25L641.3 0.25 630.35-25.8 627.4-27.2 627.4-28 639.2-28 639.2-27.2 635.7-25.75 643.5-6.85 643.8-6.85 651.5-25.75 647.85-27.2 647.85-28 657.1-28 657.1-27.2 654.6-25.8 643.45 0.25ZM669.49 0L660.19 0 660.19-0.8 662.74-2.15 673.84-28.25 676.44-28.25 687.44-2.25 690.39-0.8 690.39 0 678.79 0 678.79-0.8 682.29-2.25 679.19-9.65 668.89-9.65 665.84-2.2 669.49-0.8 669.49 0ZM673.99-22.1L669.94-12.15 678.14-12.15 673.99-22.1ZM714.34 0L700.34 0 700.34-0.8 704.84-2.45 704.84-25.5 697.49-25.5 694.84-19.4 694.04-19.4 694.04-28 720.64-28 720.64-19.4 719.84-19.4 717.14-25.5 709.79-25.5 709.79-2.45 714.34-0.8 714.34 0ZM737.74 0L725.99 0 725.99-0.8 729.29-2.45 729.29-25.55 725.99-27.2 725.99-28 737.74-28 737.74-27.2 734.29-25.55 734.29-2.45 737.74-0.8 737.74 0ZM754.59 0L743.74 0 743.74-0.8 747.29-2.45 747.29-25.6 743.74-27.2 743.74-28 751.19-28 768.09-7.95 768.09-25.6 763.69-27.2 763.69-28 774.44-28 774.44-27.2 770.89-25.6 770.89 0.2 768.59 0.2 750.14-21.55 750.14-2.6 754.59-0.8 754.59 0ZM795.18 0.5L795.18 0.5Q790.98 0.5 787.66-1.28 784.33-3.05 782.41-6.15 780.48-9.25 780.48-13.25L780.48-13.25Q780.48-16.55 781.71-19.33 782.93-22.1 785.08-24.18 787.23-26.25 790.06-27.38 792.88-28.5 796.08-28.5L796.08-28.5Q799.43-28.5 801.46-27.93 803.48-27.35 805.33-26.45L805.33-26.45 805.63-19.25 804.88-19.25 801.88-24.25Q800.18-25.4 798.96-25.85 797.73-26.3 796.13-26.3L796.13-26.3Q792.88-26.3 790.41-24.85 787.93-23.4 786.56-20.85 785.18-18.3 785.18-15.1L785.18-15.1Q785.18-11 786.63-8.08 788.08-5.15 790.61-3.58 793.13-2 796.33-2L796.33-2Q797.63-2 798.91-2.18 800.18-2.35 801.48-2.85L801.48-2.85 801.48-10 797.63-11.75 797.63-12.5 809.08-12.5 809.08-11.75 806.08-9.9 806.08-3.1Q804.83-2 802.98-1.2 801.13-0.4 799.08 0.05 797.03 0.5 795.18 0.5ZM837.98 0L826.68 0 826.68-0.8 830.68-2.8 831.73-30.2 827.43-32.2 827.43-33 837.38-33 848.58-7.15 859.73-33 869.28-33 869.28-32.2 865.03-30.35 865.88-2.8 869.48-0.8 869.48 0 857.13 0 857.13-0.8 860.88-2.75 860.38-27.2 848.58 0.25 846.18 0.25 834.48-26.9 833.83-2.75 837.98-0.8 837.98 0ZM883.08 0L873.78 0 873.78-0.8 876.33-2.15 887.43-28.25 890.03-28.25 901.03-2.25 903.98-0.8 903.98 0 892.38 0 892.38-0.8 895.88-2.25 892.78-9.65 882.48-9.65 879.43-2.2 883.08-0.8 883.08 0ZM887.58-22.1L883.53-12.15 891.73-12.15 887.58-22.1ZM927.92 0L913.92 0 913.92-0.8 918.42-2.45 918.42-25.5 911.07-25.5 908.42-19.4 907.62-19.4 907.62-28 934.22-28 934.22-19.4 933.42-19.4 930.72-25.5 923.37-25.5 923.37-2.45 927.92-0.8 927.92 0ZM951.57 0L939.37 0 939.37-0.8 942.97-2.45 942.97-25.55 939.37-27.2 939.37-28 951.57-28 951.57-27.2 947.92-25.55 947.92-15.75 962.02-15.75 962.02-25.55 958.37-27.2 958.37-28 970.47-28 970.47-27.2 966.97-25.55 966.97-2.45 970.47-0.8 970.47 0 958.37 0 958.37-0.8 962.02-2.45 962.02-13.25 947.92-13.25 947.92-2.45 951.57-0.8 951.57 0Z" opacity="1" transform="matrix(1,0,0,1,0,0)" fill="#bb84e8" class="slogan-text-1" data-fill-palette-color="secondary" id="text-1"></path></svg></g></svg></g></svg></g></svg></g><g><svg viewBox="0 0 62.249262209230025 62.249262209230025" height="62.249262209230025" width="62.249262209230025"><g><svg xmlns="http://www.w3.org/2000/svg" xmlns:xlink="http://www.w3.org/1999/xlink" version="1.1" x="0" y="0" viewBox="0 0 100 100" enable-background="new 0 0 100 100" xml:space="preserve" height="62.249262209230025" width="62.249262209230025" class="icon-icon-0" data-fill-palette-color="accent" id="icon-0"><path d="M53.5 0v46.5H100V0H53.5zM91.029 26.75H62.471v-7h28.559V26.75z" fill="#bb84e8" data-fill-palette-color="accent"></path><path d="M0 0v46.5h46.5V0H0zM37.53 26.75H26.75v10.78h-7V26.75H8.97v-7h10.78V8.97h7v10.78h10.78V26.75z" fill="#bb84e8" data-fill-palette-color="accent"></path><path d="M0 53.5V100h46.5V53.5H0zM32.92 91.369l-9.67-9.671-9.671 9.671L8.63 86.42l9.671-9.671L8.632 67.08l4.95-4.949 9.668 9.669 9.669-9.669 4.949 4.949L28.2 76.749l9.67 9.671L32.92 91.369z" fill="#bb84e8" data-fill-palette-color="accent"></path><path d="M53.5 53.5V100H100V53.5H53.5zM91.029 86.096H62.471v-7h28.559V86.096zM91.029 74.404H62.471v-7h28.559V74.404z" fill="#bb84e8" data-fill-palette-color="accent"></path></svg></g></svg></g></svg></g><defs></defs></svg><rect width="395.52" height="53.01814971353931" fill="none" stroke="none" visibility="hidden"></rect></g></svg></g></svg>